SplineFontDB: 3.2
FontName: Nunito-BlackItalic
FullName: Nunito Black Italic
FamilyName: Nunito Black
Weight: Black
Copyright: Copyright 2014 The Nunito Project Authors (https://github.com/googlefonts/nunito)
Version: 3.602-ef
ItalicAngle: -9
UnderlinePosition: -94
UnderlineWidth: 28
Ascent: 800
Descent: 200
InvalidEm: 0
sfntRevision: 0x00039a1d
LayerCount: 2
Layer: 0 1 "Back" 1
Layer: 1 1 "Fore" 0
XUID: [1021 965 1680887925 4232353]
StyleMap: 0x0001
FSType: 0
OS2Version: 4
OS2_WeightWidthSlopeOnly: 0
OS2_UseTypoMetrics: 1
CreationTime: 1592915285
ModificationTime: 1719075477
PfmFamily: 81
TTFWeight: 900
TTFWidth: 5
LineGap: 0
VLineGap: 0
Panose: 0 0 0 0 0 0 0 0 0 0
OS2TypoAscent: 1011
OS2TypoAOffset: 0
OS2TypoDescent: -353
OS2TypoDOffset: 0
OS2TypoLinegap: 0
OS2WinAscent: 1077
OS2WinAOffset: 0
OS2WinDescent: 300
OS2WinDOffset: 0
HheadAscent: 1011
HheadAOffset: 0
HheadDescent: -353
HheadDOffset: 0
OS2SubXSize: 650
OS2SubYSize: 600
OS2SubXOff: 0
OS2SubYOff: 75
OS2SupXSize: 650
OS2SupYSize: 600
OS2SupXOff: 0
OS2SupYOff: 350
OS2StrikeYSize: 28
OS2StrikeYPos: 290
OS2CapHeight: 705
OS2XHeight: 484
OS2Vendor: 'NONE'
OS2CodePages: 20000197.00000000
OS2UnicodeRanges: a00002ff.5000204b.00000000.00000000
Lookup: 1 0 0 "'aalt' Access All Alternates lookup 0" { "'aalt' Access All Alternates lookup 0 subtable"  } ['aalt' ('DFLT' <'dflt' > 'cyrl' <'BSH ' 'CHU ' 'dflt' > 'latn' <'AZE ' 'CAT ' 'CRT ' 'KAZ ' 'MOL ' 'NLD ' 'ROM ' 'TAT ' 'TRK ' 'dflt' > ) ]
Lookup: 3 0 0 "'aalt' Access All Alternates lookup 1" { "'aalt' Access All Alternates lookup 1 subtable"  } ['aalt' ('DFLT' <'dflt' > 'cyrl' <'BSH ' 'CHU ' 'dflt' > 'latn' <'AZE ' 'CAT ' 'CRT ' 'KAZ ' 'MOL ' 'NLD ' 'ROM ' 'TAT ' 'TRK ' 'dflt' > ) ]

StartChar: .notdef
Encoding: 65536 -1 0
Width: 500
GlyphClass: 1
Flags: W
LayerCount: 2
Fore
SplineSet
50 -180 m 1,0,-1
 50 705 l 1,1,-1
 450 705 l 1,2,-1
 450 -180 l 1,3,-1
 50 -180 l 1,0,-1
100 -130 m 1,4,-1
 400 -130 l 1,5,-1
 400 655 l 1,6,-1
 100 655 l 1,7,-1
 100 -130 l 1,4,-1
EndSplineSet
EndChar

StartChar: A
Encoding: 65 65 1
Width: 763
GlyphClass: 2
Flags: W
AnchorPoint: "Anchor-3" 683 0 basechar 0
AnchorPoint: "Anchor-2" 363 0 basechar 0
AnchorPoint: "Anchor-0" 452 705 basechar 0
LayerCount: 2
Fore
SplineSet
67 -9 m 0,0,1
 34 -9 34 -9 12.5 5 c 128,-1,2
 -9 19 -9 19 -13 43 c 128,-1,3
 -17 67 -17 67 1 96 c 2,4,-1
 349 653 l 2,5,6
 369 686 369 686 392.5 700 c 128,-1,7
 416 714 416 714 453 714 c 256,8,9
 490 714 490 714 514 695.5 c 128,-1,10
 538 677 538 677 549 639 c 2,11,-1
 714 99 l 2,12,13
 725 64 725 64 718 39.5 c 128,-1,14
 711 15 711 15 691 3 c 128,-1,15
 671 -9 671 -9 643 -9 c 0,16,17
 603 -9 603 -9 582.5 9.5 c 128,-1,18
 562 28 562 28 550 70 c 2,19,-1
 522 180 l 1,20,-1
 573 143 l 1,21,-1
 173 143 l 1,22,-1
 235 176 l 1,23,-1
 156 42 l 2,24,25
 142 17 142 17 120 4 c 128,-1,26
 98 -9 98 -9 67 -9 c 0,0,1
433 513 m 1,27,-1
 278 251 l 1,28,-1
 256 284 l 1,29,-1
 536 284 l 1,30,-1
 505 247 l 1,31,-1
 435 513 l 1,32,-1
 433 513 l 1,27,-1
EndSplineSet
Substitution2: "Single Substitution lookup 29 subtable" ordfeminine
Substitution2: "'aalt' Access All Alternates lookup 0 subtable" ordfeminine
EndChar

StartChar: Aogonek
Encoding: 260 260 24
Width: 763
GlyphClass: 1
Flags: W
LayerCount: 2
Fore
SplineSet
643 -198 m 0,0,1
 581 -198 581 -198 550 -171 c 128,-1,2
 519 -144 519 -144 519 -100 c 0,3,4
 519 -64 519 -64 536.5 -33.5 c 128,-1,5
 554 -3 554 -3 585 20 c 1,6,-1
 584 9 l 1,7,8
 572 18 572 18 564 33.5 c 128,-1,9
 556 49 556 49 550 70 c 2,10,-1
 522 180 l 1,11,-1
 573 143 l 1,12,-1
 173 143 l 1,13,-1
 235 176 l 1,14,-1
 156 42 l 2,15,16
 142 17 142 17 120 4 c 128,-1,17
 98 -9 98 -9 67 -9 c 0,18,19
 34 -9 34 -9 12.5 5 c 128,-1,20
 -9 19 -9 19 -13 43 c 128,-1,21
 -17 67 -17 67 1 96 c 2,22,-1
 349 653 l 2,23,24
 369 686 369 686 392.5 700 c 128,-1,25
 416 714 416 714 453 714 c 256,26,27
 490 714 490 714 514 695.5 c 128,-1,28
 538 677 538 677 549 639 c 2,29,-1
 714 99 l 2,30,31
 726 59 726 59 715.5 33.5 c 128,-1,32
 705 8 705 8 680 -3 c 0,33,34
 662 -10 662 -10 649.5 -20 c 128,-1,35
 637 -30 637 -30 630.5 -42.5 c 128,-1,36
 624 -55 624 -55 624 -70 c 0,37,38
 624 -88 624 -88 638 -99.5 c 128,-1,39
 652 -111 652 -111 672 -111 c 0,40,41
 678 -111 678 -111 685.5 -110 c 128,-1,42
 693 -109 693 -109 704 -107 c 0,43,44
 724 -102 724 -102 735 -111.5 c 128,-1,45
 746 -121 746 -121 747.5 -137 c 128,-1,46
 749 -153 749 -153 741.5 -167.5 c 128,-1,47
 734 -182 734 -182 717 -187 c 0,48,49
 701 -192 701 -192 683 -195 c 128,-1,50
 665 -198 665 -198 643 -198 c 0,0,1
433 513 m 1,51,-1
 278 251 l 1,52,-1
 256 284 l 1,53,-1
 536 284 l 1,54,-1
 505 247 l 1,55,-1
 435 513 l 1,56,-1
 433 513 l 1,51,-1
EndSplineSet
EndChar

StartChar: AE
Encoding: 198 198 28
Width: 1006
GlyphClass: 2
Flags: W
AnchorPoint: "Anchor-2" 450 0 basechar 0
AnchorPoint: "Anchor-0" 551 705 basechar 0
LayerCount: 2
Fore
SplineSet
37 -9 m 0,0,1
 0 -9 0 -9 -18.5 9 c 128,-1,2
 -37 27 -37 27 -37 52.5 c 128,-1,3
 -37 78 -37 78 -20 100 c 2,4,-1
 425 659 l 2,5,6
 444 684 444 684 467 694.5 c 128,-1,7
 490 705 490 705 521 705 c 2,8,-1
 951 705 l 2,9,10
 987 705 987 705 1006.5 690 c 128,-1,11
 1026 675 1026 675 1026 647 c 0,12,13
 1026 608 1026 608 1003 585.5 c 128,-1,14
 980 563 980 563 941 563 c 2,15,-1
 580 563 l 1,16,-1
 635 603 l 1,17,-1
 649 378 l 1,18,-1
 594 429 l 1,19,-1
 884 429 l 2,20,21
 920 429 920 429 939.5 414 c 128,-1,22
 959 399 959 399 959 371 c 0,23,24
 959 332 959 332 936.5 309.5 c 128,-1,25
 914 287 914 287 875 287 c 2,26,-1
 603 287 l 1,27,-1
 651 338 l 1,28,-1
 666 93 l 1,29,-1
 611 142 l 1,30,-1
 862 142 l 2,31,32
 898 142 898 142 917.5 127 c 128,-1,33
 937 112 937 112 937 84 c 0,34,35
 937 45 937 45 914.5 22.5 c 128,-1,36
 892 0 892 0 852 0 c 2,37,-1
 591 0 l 2,38,39
 514 0 514 0 509 76 c 2,40,-1
 502 197 l 1,41,-1
 550 143 l 1,42,-1
 169 143 l 1,43,-1
 243 190 l 1,44,-1
 126 35 l 2,45,46
 109 12 109 12 88 1.5 c 128,-1,47
 67 -9 67 -9 37 -9 c 0,0,1
481 507 m 1,48,-1
 279 240 l 1,49,-1
 277 284 l 1,50,-1
 543 284 l 1,51,-1
 500 233 l 1,52,-1
 483 507 l 1,53,-1
 481 507 l 1,48,-1
EndSplineSet
EndChar

StartChar: B
Encoding: 66 66 30
Width: 702
GlyphClass: 2
Flags: W
AnchorPoint: "Anchor-2" 312 0 basechar 0
AnchorPoint: "Anchor-0" 423 705 basechar 0
LayerCount: 2
Fore
SplineSet
129 0 m 2,0,1
 81 0 81 0 57.5 27 c 128,-1,2
 34 54 34 54 42 102 c 2,3,-1
 123 617 l 2,4,5
 130 661 130 661 156 683 c 128,-1,6
 182 705 182 705 226 705 c 2,7,-1
 455 705 l 2,8,9
 538 705 538 705 589 682.5 c 128,-1,10
 640 660 640 660 663 621.5 c 128,-1,11
 686 583 686 583 686 535 c 0,12,13
 686 461 686 461 639 414 c 128,-1,14
 592 367 592 367 516 354 c 1,15,-1
 516 371 l 1,16,17
 581 358 581 358 617.5 315.5 c 128,-1,18
 654 273 654 273 654 211 c 0,19,20
 654 109 654 109 582 54.5 c 128,-1,21
 510 0 510 0 388 0 c 2,22,-1
 129 0 l 2,0,1
222 135 m 1,23,-1
 377 135 l 2,24,25
 429 135 429 135 454 158 c 128,-1,26
 479 181 479 181 479 223 c 0,27,28
 479 257 479 257 456 273.5 c 128,-1,29
 433 290 433 290 390 290 c 2,30,-1
 247 290 l 1,31,-1
 222 135 l 1,23,-1
268 425 m 1,32,-1
 403 425 l 2,33,34
 456 425 456 425 483.5 447 c 128,-1,35
 511 469 511 469 511 512 c 0,36,37
 511 540 511 540 490.5 555 c 128,-1,38
 470 570 470 570 424 570 c 2,39,-1
 291 570 l 1,40,-1
 268 425 l 1,32,-1
EndSplineSet
EndChar

StartChar: uni0181
Encoding: 385 385 31
Width: 883
GlyphClass: 1
Flags: W
LayerCount: 2
Fore
SplineSet
311 0 m 2,0,1
 262 0 262 0 238.5 27 c 128,-1,2
 215 54 215 54 223 102 c 2,3,-1
 299 580 l 1,4,-1
 279 580 l 2,5,6
 239 580 239 580 217 560 c 128,-1,7
 195 540 195 540 187 497 c 2,8,-1
 184 478 l 2,9,10
 182 466 182 466 173 456.5 c 128,-1,11
 164 447 164 447 149 441.5 c 128,-1,12
 134 436 134 436 112 436 c 0,13,14
 84 436 84 436 67.5 445.5 c 128,-1,15
 51 455 51 455 45 471 c 128,-1,16
 39 487 39 487 43 508 c 2,17,-1
 46 527 l 2,18,19
 60 618 60 618 119.5 661.5 c 128,-1,20
 179 705 179 705 293 705 c 2,21,-1
 636 705 l 2,22,23
 720 705 720 705 770.5 682.5 c 128,-1,24
 821 660 821 660 844 621.5 c 128,-1,25
 867 583 867 583 867 535 c 0,26,27
 867 461 867 461 820 414 c 128,-1,28
 773 367 773 367 697 354 c 1,29,-1
 697 371 l 1,30,31
 763 358 763 358 799 315.5 c 128,-1,32
 835 273 835 273 835 211 c 0,33,34
 835 109 835 109 763 54.5 c 128,-1,35
 691 0 691 0 569 0 c 2,36,-1
 311 0 l 2,0,1
403 135 m 1,37,-1
 558 135 l 2,38,39
 610 135 610 135 635 158 c 128,-1,40
 660 181 660 181 660 223 c 0,41,42
 660 257 660 257 637.5 273.5 c 128,-1,43
 615 290 615 290 571 290 c 2,44,-1
 428 290 l 1,45,-1
 403 135 l 1,37,-1
449 425 m 1,46,-1
 584 425 l 2,47,48
 638 425 638 425 665 447 c 128,-1,49
 692 469 692 469 692 512 c 0,50,51
 692 540 692 540 671.5 555 c 128,-1,52
 651 570 651 570 605 570 c 2,53,-1
 472 570 l 1,54,-1
 449 425 l 1,46,-1
EndSplineSet
EndChar

StartChar: C
Encoding: 67 67 32
Width: 688
GlyphClass: 2
Flags: W
AnchorPoint: "Anchor-2" 375 0 basechar 0
AnchorPoint: "Anchor-0" 448 705 basechar 0
LayerCount: 2
Fore
SplineSet
405 -11 m 0,0,1
 307 -11 307 -11 230 25.5 c 128,-1,2
 153 62 153 62 108 134.5 c 128,-1,3
 63 207 63 207 63 313 c 0,4,5
 63 398 63 398 89 471 c 128,-1,6
 115 544 115 544 165.5 599 c 128,-1,7
 216 654 216 654 290.5 685 c 128,-1,8
 365 716 365 716 462 716 c 0,9,10
 507 716 507 716 555.5 705.5 c 128,-1,11
 604 695 604 695 646 673 c 0,12,13
 673 659 673 659 682 636.5 c 128,-1,14
 691 614 691 614 686.5 590 c 128,-1,15
 682 566 682 566 667.5 546.5 c 128,-1,16
 653 527 653 527 631.5 519.5 c 128,-1,17
 610 512 610 512 585 523 c 0,18,19
 548 541 548 541 517.5 548.5 c 128,-1,20
 487 556 487 556 458 556 c 0,21,22
 391 556 391 556 346.5 524.5 c 128,-1,23
 302 493 302 493 279.5 439.5 c 128,-1,24
 257 386 257 386 257 320 c 0,25,26
 257 262 257 262 275 223.5 c 128,-1,27
 293 185 293 185 330.5 167 c 128,-1,28
 368 149 368 149 427 149 c 0,29,30
 453 149 453 149 480.5 155 c 128,-1,31
 508 161 508 161 536 174 c 0,32,33
 564 186 564 186 586.5 179 c 128,-1,34
 609 172 609 172 622 153 c 128,-1,35
 635 134 635 134 637 110.5 c 128,-1,36
 639 87 639 87 628 65 c 128,-1,37
 617 43 617 43 589 30 c 0,38,39
 549 9 549 9 498 -1 c 128,-1,40
 447 -11 447 -11 405 -11 c 0,0,1
EndSplineSet
EndChar

StartChar: D
Encoding: 68 68 39
Width: 786
GlyphClass: 2
Flags: W
AnchorPoint: "Anchor-5" 223 358 basechar 0
AnchorPoint: "Anchor-2" 358 0 basechar 0
AnchorPoint: "Anchor-0" 453 705 basechar 0
LayerCount: 2
Fore
SplineSet
129 0 m 2,0,1
 81 0 81 0 57.5 27 c 128,-1,2
 34 54 34 54 42 102 c 2,3,-1
 123 617 l 2,4,5
 130 661 130 661 156 683 c 128,-1,6
 182 705 182 705 226 705 c 2,7,-1
 387 705 l 2,8,9
 565 705 565 705 661.5 623 c 128,-1,10
 758 541 758 541 758 396 c 0,11,12
 758 311 758 311 732 238.5 c 128,-1,13
 706 166 706 166 654 112.5 c 128,-1,14
 602 59 602 59 525.5 29.5 c 128,-1,15
 449 0 449 0 349 0 c 2,16,-1
 129 0 l 2,0,1
232 149 m 1,17,-1
 351 149 l 2,18,19
 405 149 405 149 445.5 166.5 c 128,-1,20
 486 184 486 184 513 216 c 128,-1,21
 540 248 540 248 553.5 292.5 c 128,-1,22
 567 337 567 337 567 393 c 0,23,24
 567 472 567 472 522 514 c 128,-1,25
 477 556 477 556 387 556 c 2,26,-1
 297 556 l 1,27,-1
 232 149 l 1,17,-1
EndSplineSet
EndChar

StartChar: uni018A
Encoding: 394 394 45
Width: 968
GlyphClass: 1
Flags: W
LayerCount: 2
Fore
SplineSet
311 0 m 2,0,1
 262 0 262 0 238.5 27 c 128,-1,2
 215 54 215 54 223 102 c 2,3,-1
 299 580 l 1,4,-1
 279 580 l 2,5,6
 241 580 241 580 217.5 560 c 128,-1,7
 194 540 194 540 187 497 c 2,8,-1
 184 478 l 2,9,10
 182 466 182 466 173 456.5 c 128,-1,11
 164 447 164 447 149 441.5 c 128,-1,12
 134 436 134 436 112 436 c 0,13,14
 84 436 84 436 67.5 445.5 c 128,-1,15
 51 455 51 455 45 471 c 128,-1,16
 39 487 39 487 43 508 c 2,17,-1
 46 527 l 2,18,19
 60 617 60 617 119.5 661 c 128,-1,20
 179 705 179 705 293 705 c 2,21,-1
 569 705 l 2,22,23
 746 705 746 705 843 623 c 128,-1,24
 940 541 940 541 940 396 c 0,25,26
 940 311 940 311 913 238.5 c 128,-1,27
 886 166 886 166 834.5 112.5 c 128,-1,28
 783 59 783 59 707 29.5 c 128,-1,29
 631 0 631 0 530 0 c 2,30,-1
 311 0 l 2,0,1
413 149 m 1,31,-1
 532 149 l 2,32,33
 586 149 586 149 626.5 166.5 c 128,-1,34
 667 184 667 184 694.5 216 c 128,-1,35
 722 248 722 248 735.5 292.5 c 128,-1,36
 749 337 749 337 749 393 c 0,37,38
 749 472 749 472 703.5 514 c 128,-1,39
 658 556 658 556 569 556 c 2,40,-1
 479 556 l 1,41,-1
 413 149 l 1,31,-1
EndSplineSet
EndChar

StartChar: E
Encoding: 69 69 48
Width: 614
GlyphClass: 2
Flags: W
AnchorPoint: "Anchor-3" 460 0 basechar 0
AnchorPoint: "Anchor-2" 298 0 basechar 0
AnchorPoint: "Anchor-0" 404 705 basechar 0
LayerCount: 2
Fore
SplineSet
130 0 m 2,0,1
 80 0 80 0 57 26.5 c 128,-1,2
 34 53 34 53 42 102 c 2,3,-1
 123 617 l 2,4,5
 130 661 130 661 156 683 c 128,-1,6
 182 705 182 705 226 705 c 2,7,-1
 560 705 l 2,8,9
 596 705 596 705 615 690 c 128,-1,10
 634 675 634 675 634 647 c 0,11,12
 634 608 634 608 611.5 585.5 c 128,-1,13
 589 563 589 563 550 563 c 2,14,-1
 290 563 l 1,15,-1
 269 429 l 1,16,-1
 494 429 l 2,17,18
 530 429 530 429 549 414 c 128,-1,19
 568 399 568 399 568 371 c 0,20,21
 568 332 568 332 545 309.5 c 128,-1,22
 522 287 522 287 484 287 c 2,23,-1
 246 287 l 1,24,-1
 223 142 l 1,25,-1
 470 142 l 2,26,27
 506 142 506 142 525 127 c 128,-1,28
 544 112 544 112 544 84 c 0,29,30
 544 45 544 45 521.5 22.5 c 128,-1,31
 499 0 499 0 461 0 c 2,32,-1
 130 0 l 2,0,1
EndSplineSet
EndChar

StartChar: uni018F
Encoding: 399 399 72
Width: 807
GlyphClass: 2
Flags: W
AnchorPoint: "Anchor-2" 368 0 basechar 0
AnchorPoint: "Anchor-0" 479 705 basechar 0
LayerCount: 2
Fore
SplineSet
391 -11 m 0,0,1
 306 -11 306 -11 239.5 17.5 c 128,-1,2
 173 46 173 46 130 99 c 128,-1,3
 87 152 87 152 70.5 224.5 c 128,-1,4
 54 297 54 297 68 383 c 0,5,6
 72 403 72 403 87 413 c 128,-1,7
 102 423 102 423 132 423 c 2,8,-1
 646 423 l 1,9,-1
 624 282 l 1,10,-1
 191 282 l 1,11,-1
 250 353 l 1,12,13
 239 282 239 282 253 233.5 c 128,-1,14
 267 185 267 185 303.5 160.5 c 128,-1,15
 340 136 340 136 397 136 c 0,16,17
 465 136 465 136 506.5 171.5 c 128,-1,18
 548 207 548 207 568 267 c 128,-1,19
 588 327 588 327 588 397 c 0,20,21
 588 450 588 450 566 487 c 128,-1,22
 544 524 544 524 501.5 543 c 128,-1,23
 459 562 459 562 398 562 c 0,24,25
 357 562 357 562 314 554 c 128,-1,26
 271 546 271 546 232 530 c 0,27,28
 201 519 201 519 177 526 c 128,-1,29
 153 533 153 533 139 551 c 128,-1,30
 125 569 125 569 123 592.5 c 128,-1,31
 121 616 121 616 133 637 c 128,-1,32
 145 658 145 658 173 670 c 0,33,34
 227 694 227 694 292 705 c 128,-1,35
 357 716 357 716 424 716 c 0,36,37
 529 716 529 716 608.5 676.5 c 128,-1,38
 688 637 688 637 733 564 c 128,-1,39
 778 491 778 491 778 389 c 0,40,41
 778 314 778 314 755.5 242.5 c 128,-1,42
 733 171 733 171 685.5 113.5 c 128,-1,43
 638 56 638 56 565 22.5 c 128,-1,44
 492 -11 492 -11 391 -11 c 0,0,1
EndSplineSet
EndChar

StartChar: F
Encoding: 70 70 73
Width: 579
GlyphClass: 2
Flags: W
AnchorPoint: "Anchor-2" 264 0 basechar 0
AnchorPoint: "Anchor-0" 380 705 basechar 0
LayerCount: 2
Fore
SplineSet
122 -9 m 0,0,1
 77 -9 77 -9 55 17.5 c 128,-1,2
 33 44 33 44 41 93 c 2,3,-1
 123 617 l 2,4,5
 130 661 130 661 156 683 c 128,-1,6
 182 705 182 705 226 705 c 2,7,-1
 552 705 l 2,8,9
 589 705 589 705 608 690 c 128,-1,10
 627 675 627 675 627 647 c 0,11,12
 627 610 627 610 605 586.5 c 128,-1,13
 583 563 583 563 543 563 c 2,14,-1
 299 563 l 1,15,-1
 276 421 l 1,16,-1
 485 421 l 2,17,18
 522 421 522 421 541 406 c 128,-1,19
 560 391 560 391 560 364 c 0,20,21
 560 326 560 326 538 303 c 128,-1,22
 516 280 516 280 476 280 c 2,23,-1
 254 280 l 1,24,-1
 222 79 l 2,25,26
 208 -9 208 -9 122 -9 c 0,0,1
EndSplineSet
EndChar

StartChar: G
Encoding: 71 71 74
Width: 747
GlyphClass: 2
Flags: W
AnchorPoint: "Anchor-2" 401 0 basechar 0
AnchorPoint: "Anchor-0" 455 705 basechar 0
LayerCount: 2
Fore
SplineSet
407 -11 m 0,0,1
 308 -11 308 -11 230.5 26 c 128,-1,2
 153 63 153 63 108 135 c 128,-1,3
 63 207 63 207 63 312 c 0,4,5
 63 397 63 397 90 470.5 c 128,-1,6
 117 544 117 544 169.5 599.5 c 128,-1,7
 222 655 222 655 299 685.5 c 128,-1,8
 376 716 376 716 477 716 c 0,9,10
 528 716 528 716 576.5 706 c 128,-1,11
 625 696 625 696 661 679 c 0,12,13
 690 666 690 666 701.5 643 c 128,-1,14
 713 620 713 620 710 595.5 c 128,-1,15
 707 571 707 571 692 551.5 c 128,-1,16
 677 532 677 532 653.5 524.5 c 128,-1,17
 630 517 630 517 601 529 c 0,18,19
 569 544 569 544 534.5 551.5 c 128,-1,20
 500 559 500 559 468 559 c 0,21,22
 398 559 398 559 350 525.5 c 128,-1,23
 302 492 302 492 277.5 437.5 c 128,-1,24
 253 383 253 383 253 319 c 0,25,26
 253 229 253 229 301.5 186 c 128,-1,27
 350 143 350 143 435 143 c 0,28,29
 464 143 464 143 495.5 148.5 c 128,-1,30
 527 154 527 154 559 164 c 1,31,-1
 517 97 l 1,32,-1
 545 268 l 1,33,-1
 479 268 l 2,34,35
 444 268 444 268 424 282.5 c 128,-1,36
 404 297 404 297 404 323 c 0,37,38
 404 358 404 358 426.5 377.5 c 128,-1,39
 449 397 449 397 487 397 c 2,40,-1
 630 397 l 2,41,42
 670 397 670 397 689.5 375 c 128,-1,43
 709 353 709 353 702 313 c 2,44,-1
 668 99 l 2,45,46
 663 67 663 67 647 46 c 128,-1,47
 631 25 631 25 599 16 c 0,48,49
 555 2 555 2 504.5 -4.5 c 128,-1,50
 454 -11 454 -11 407 -11 c 0,0,1
EndSplineSet
EndChar

StartChar: H
Encoding: 72 72 81
Width: 786
GlyphClass: 2
Flags: W
AnchorPoint: "Anchor-5" 445 570 basechar 0
AnchorPoint: "Anchor-2" 361 0 basechar 0
AnchorPoint: "Anchor-0" 464 705 basechar 0
LayerCount: 2
Fore
SplineSet
118 -9 m 256,0,1
 72 -9 72 -9 52 19 c 128,-1,2
 32 47 32 47 41 99 c 2,3,-1
 124 623 l 2,4,5
 131 669 131 669 157 691.5 c 128,-1,6
 183 714 183 714 228 714 c 0,7,8
 275 714 275 714 294.5 685.5 c 128,-1,9
 314 657 314 657 305 606 c 2,10,-1
 278 433 l 1,11,-1
 568 433 l 1,12,-1
 599 623 l 2,13,14
 606 669 606 669 631.5 691.5 c 128,-1,15
 657 714 657 714 702 714 c 0,16,17
 749 714 749 714 768.5 686 c 128,-1,18
 788 658 788 658 779 606 c 2,19,-1
 696 83 l 2,20,21
 689 36 689 36 663.5 13.5 c 128,-1,22
 638 -9 638 -9 593 -9 c 0,23,24
 546 -9 546 -9 527 19.5 c 128,-1,25
 508 48 508 48 516 99 c 2,26,-1
 544 282 l 1,27,-1
 254 282 l 1,28,-1
 222 83 l 2,29,30
 215 36 215 36 189.5 13.5 c 128,-1,31
 164 -9 164 -9 118 -9 c 256,0,1
EndSplineSet
EndChar

StartChar: Hbar
Encoding: 294 294 82
Width: 841
GlyphClass: 1
Flags: W
LayerCount: 2
Fore
SplineSet
146 -9 m 0,0,1
 103 -9 103 -9 81.5 19 c 128,-1,2
 60 47 60 47 68 99 c 2,3,-1
 138 541 l 1,4,-1
 169 501 l 1,5,-1
 123 501 l 2,6,7
 54 501 54 501 54 553 c 0,8,9
 54 589 54 589 75 610 c 128,-1,10
 96 631 96 631 132 631 c 2,11,-1
 191 631 l 1,12,-1
 145 587 l 1,13,-1
 151 623 l 2,14,15
 158 669 158 669 184 691.5 c 128,-1,16
 210 714 210 714 255 714 c 0,17,18
 298 714 298 714 319.5 687 c 128,-1,19
 341 660 341 660 333 611 c 2,20,-1
 326 573 l 1,21,-1
 298 631 l 1,22,-1
 665 631 l 1,23,-1
 619 586 l 1,24,-1
 625 623 l 2,25,26
 632 669 632 669 658 691.5 c 128,-1,27
 684 714 684 714 730 714 c 0,28,29
 772 714 772 714 793.5 687 c 128,-1,30
 815 660 815 660 807 611 c 2,31,-1
 801 576 l 1,32,-1
 773 631 l 1,33,-1
 819 631 l 2,34,35
 888 631 888 631 888 578 c 0,36,37
 888 542 888 542 867 521.5 c 128,-1,38
 846 501 846 501 810 501 c 2,39,-1
 752 501 l 1,40,-1
 796 542 l 1,41,-1
 723 83 l 2,42,43
 716 36 716 36 690.5 13.5 c 128,-1,44
 665 -9 665 -9 620 -9 c 0,45,46
 576 -9 576 -9 555 19 c 128,-1,47
 534 47 534 47 542 99 c 2,48,-1
 569 265 l 1,49,-1
 278 265 l 1,50,-1
 249 83 l 2,51,52
 242 36 242 36 217 13.5 c 128,-1,53
 192 -9 192 -9 146 -9 c 0,0,1
302 416 m 1,54,-1
 593 416 l 1,55,-1
 606 501 l 1,56,-1
 316 501 l 1,57,-1
 302 416 l 1,54,-1
EndSplineSet
EndChar

StartChar: I
Encoding: 73 73 86
Width: 312
GlyphClass: 2
Flags: W
AnchorPoint: "Anchor-3" 162 0 basechar 0
AnchorPoint: "Anchor-2" 117 0 basechar 0
AnchorPoint: "Anchor-0" 228 705 basechar 0
LayerCount: 2
Fore
SplineSet
119 -9 m 0,0,1
 72 -9 72 -9 52.5 19 c 128,-1,2
 33 47 33 47 41 99 c 2,3,-1
 124 623 l 2,4,5
 131 669 131 669 157 691.5 c 128,-1,6
 183 714 183 714 229 714 c 256,7,8
 275 714 275 714 294.5 686 c 128,-1,9
 314 658 314 658 305 606 c 2,10,-1
 222 83 l 2,11,12
 215 36 215 36 190 13.5 c 128,-1,13
 165 -9 165 -9 119 -9 c 0,0,1
EndSplineSet
EndChar

StartChar: Iogonek
Encoding: 302 302 100
Width: 312
GlyphClass: 1
Flags: W
LayerCount: 2
Fore
SplineSet
123 -198 m 0,0,1
 60 -198 60 -198 29.5 -171 c 128,-1,2
 -1 -144 -1 -144 -1 -100 c 0,3,4
 -1 -64 -1 -64 16.5 -33.5 c 128,-1,5
 34 -3 34 -3 64 19 c 1,6,-1
 65 6 l 1,7,8
 48 18 48 18 41.5 42 c 128,-1,9
 35 66 35 66 41 99 c 2,10,-1
 124 623 l 2,11,12
 131 669 131 669 157 691.5 c 128,-1,13
 183 714 183 714 229 714 c 256,14,15
 275 714 275 714 294.5 686 c 128,-1,16
 314 658 314 658 305 606 c 2,17,-1
 222 83 l 2,18,19
 217 48 217 48 201.5 26.5 c 128,-1,20
 186 5 186 5 159 -4 c 0,21,22
 130 -14 130 -14 117 -32 c 128,-1,23
 104 -50 104 -50 104 -70 c 0,24,25
 104 -88 104 -88 118 -99.5 c 128,-1,26
 132 -111 132 -111 152 -111 c 0,27,28
 158 -111 158 -111 165.5 -110 c 128,-1,29
 173 -109 173 -109 183 -107 c 0,30,31
 204 -102 204 -102 215 -111.5 c 128,-1,32
 226 -121 226 -121 227.5 -137 c 128,-1,33
 229 -153 229 -153 221.5 -167.5 c 128,-1,34
 214 -182 214 -182 196 -187 c 0,35,36
 181 -192 181 -192 160.5 -195 c 128,-1,37
 140 -198 140 -198 123 -198 c 0,0,1
EndSplineSet
EndChar

StartChar: J
Encoding: 74 74 102
Width: 390
GlyphClass: 2
Flags: W
AnchorPoint: "Anchor-2" 195 0 basechar 0
AnchorPoint: "Anchor-0" 306 705 basechar 0
LayerCount: 2
Fore
SplineSet
38 -8 m 2,0,1
 1 -10 1 -10 -21 9.5 c 128,-1,2
 -43 29 -43 29 -42 63 c 0,3,4
 -40 99 -40 99 -24.5 119 c 128,-1,5
 -9 139 -9 139 25 140 c 2,6,-1
 55 141 l 2,7,8
 93 143 93 143 112.5 161 c 128,-1,9
 132 179 132 179 139 220 c 2,10,-1
 203 630 l 2,11,12
 210 673 210 673 234.5 693.5 c 128,-1,13
 259 714 259 714 302 714 c 0,14,15
 348 714 348 714 370 688 c 128,-1,16
 392 662 392 662 385 616 c 2,17,-1
 320 208 l 2,18,19
 309 141 309 141 282.5 95 c 128,-1,20
 256 49 256 49 204.5 24 c 128,-1,21
 153 -1 153 -1 68 -6 c 2,22,-1
 38 -8 l 2,0,1
EndSplineSet
EndChar

StartChar: K
Encoding: 75 75 104
Width: 712
GlyphClass: 2
Flags: W
AnchorPoint: "Anchor-2" 316 0 basechar 0
AnchorPoint: "Anchor-0" 423 705 basechar 0
LayerCount: 2
Fore
SplineSet
118 -9 m 0,0,1
 74 -9 74 -9 53 18.5 c 128,-1,2
 32 46 32 46 40 97 c 2,3,-1
 124 624 l 2,4,5
 131 670 131 670 157.5 692 c 128,-1,6
 184 714 184 714 228 714 c 256,7,8
 272 714 272 714 293 686.5 c 128,-1,9
 314 659 314 659 305 608 c 2,10,-1
 273 403 l 1,11,-1
 275 403 l 1,12,-1
 552 672 l 2,13,14
 574 693 574 693 593.5 703.5 c 128,-1,15
 613 714 613 714 643 714 c 0,16,17
 679 714 679 714 699.5 693.5 c 128,-1,18
 720 673 720 673 719.5 643.5 c 128,-1,19
 719 614 719 614 692 588 c 2,20,-1
 421 331 l 1,21,-1
 410 408 l 1,22,-1
 633 111 l 2,23,24
 654 84 654 84 650.5 56 c 128,-1,25
 647 28 647 28 625.5 9.5 c 128,-1,26
 604 -9 604 -9 570 -9 c 0,27,28
 537 -9 537 -9 516 4 c 128,-1,29
 495 17 495 17 469 52 c 2,30,-1
 262 323 l 1,31,-1
 260 323 l 1,32,-1
 222 79 l 2,33,34
 215 34 215 34 189.5 12.5 c 128,-1,35
 164 -9 164 -9 118 -9 c 0,0,1
EndSplineSet
EndChar

StartChar: L
Encoding: 76 76 106
Width: 585
GlyphClass: 2
Flags: W
AnchorPoint: "Anchor-5" 224 387 basechar 0
AnchorPoint: "Anchor-2" 276 0 basechar 0
AnchorPoint: "Anchor-1" 417 705 basechar 0
AnchorPoint: "Anchor-0" 227 705 basechar 0
LayerCount: 2
Fore
SplineSet
127 0 m 2,0,1
 79 0 79 0 56.5 26.5 c 128,-1,2
 34 53 34 53 41 100 c 2,3,-1
 125 629 l 2,4,5
 132 672 132 672 157 693 c 128,-1,6
 182 714 182 714 225 714 c 0,7,8
 271 714 271 714 293 688 c 128,-1,9
 315 662 315 662 307 614 c 2,10,-1
 234 153 l 1,11,-1
 464 153 l 2,12,13
 502 153 502 153 523.5 137 c 128,-1,14
 545 121 545 121 545 91 c 0,15,16
 545 49 545 49 520.5 24.5 c 128,-1,17
 496 0 496 0 453 0 c 2,18,-1
 127 0 l 2,0,1
EndSplineSet
EndChar

StartChar: M
Encoding: 77 77 116
Width: 884
GlyphClass: 2
Flags: W
AnchorPoint: "Anchor-2" 412 0 basechar 0
AnchorPoint: "Anchor-0" 515 705 basechar 0
LayerCount: 2
Fore
SplineSet
114 -8 m 0,0,1
 70 -8 70 -8 52.5 16 c 128,-1,2
 35 40 35 40 40 82 c 2,3,-1
 128 637 l 2,4,5
 135 676 135 676 157.5 695 c 128,-1,6
 180 714 180 714 218 714 c 0,7,8
 252 714 252 714 272 699.5 c 128,-1,9
 292 685 292 685 306 649 c 2,10,-1
 454 270 l 1,11,-1
 424 270 l 1,12,-1
 703 662 l 2,13,14
 723 690 723 690 745.5 702 c 128,-1,15
 768 714 768 714 802 714 c 0,16,17
 844 714 844 714 864.5 690.5 c 128,-1,18
 885 667 885 667 878 624 c 2,19,-1
 790 69 l 2,20,21
 784 31 784 31 761 11.5 c 128,-1,22
 738 -8 738 -8 699 -8 c 0,23,24
 658 -8 658 -8 639 16 c 128,-1,25
 620 40 620 40 626 82 c 2,26,-1
 680 425 l 1,27,-1
 703 425 l 1,28,-1
 494 134 l 2,29,30
 479 113 479 113 463 104 c 128,-1,31
 447 95 447 95 423 95 c 0,32,33
 397 95 397 95 382 107 c 128,-1,34
 367 119 367 119 355 144 c 2,35,-1
 238 419 l 1,36,-1
 260 419 l 1,37,-1
 204 69 l 2,38,39
 198 31 198 31 175.5 11.5 c 128,-1,40
 153 -8 153 -8 114 -8 c 0,0,1
EndSplineSet
EndChar

StartChar: N
Encoding: 78 78 118
Width: 757
GlyphClass: 2
Flags: W
AnchorPoint: "Anchor-2" 350 0 basechar 0
AnchorPoint: "Anchor-0" 448 705 basechar 0
LayerCount: 2
Fore
SplineSet
115 -9 m 0,0,1
 74 -9 74 -9 53 17.5 c 128,-1,2
 32 44 32 44 40 91 c 2,3,-1
 126 637 l 2,4,5
 133 676 133 676 155 695 c 128,-1,6
 177 714 177 714 210 714 c 0,7,8
 246 714 246 714 264.5 701 c 128,-1,9
 283 688 283 688 301 658 c 2,10,-1
 553 245 l 1,11,-1
 522 245 l 1,12,-1
 583 630 l 2,13,14
 590 673 590 673 614 693.5 c 128,-1,15
 638 714 638 714 681 714 c 0,16,17
 721 714 721 714 740 688 c 128,-1,18
 759 662 759 662 752 614 c 2,19,-1
 665 69 l 2,20,21
 659 30 659 30 639 10.5 c 128,-1,22
 619 -9 619 -9 586 -9 c 0,23,24
 551 -9 551 -9 529.5 4.5 c 128,-1,25
 508 18 508 18 489 49 c 2,26,-1
 239 460 l 1,27,-1
 269 460 l 1,28,-1
 208 75 l 2,29,30
 201 32 201 32 179 11.5 c 128,-1,31
 157 -9 157 -9 115 -9 c 0,0,1
EndSplineSet
EndChar

StartChar: Eng
Encoding: 330 330 128
Width: 757
GlyphClass: 2
Flags: W
AnchorPoint: "Anchor-2" 340 0 basechar 0
AnchorPoint: "Anchor-0" 450 705 basechar 0
LayerCount: 2
Fore
SplineSet
417 -190 m 0,0,1
 390 -190 390 -190 374.5 -178 c 128,-1,2
 359 -166 359 -166 353 -147.5 c 128,-1,3
 347 -129 347 -129 351.5 -110.5 c 128,-1,4
 356 -92 356 -92 371 -78.5 c 128,-1,5
 386 -65 386 -65 410 -62 c 0,6,7
 438 -60 438 -60 458.5 -44.5 c 128,-1,8
 479 -29 479 -29 484 3 c 2,9,-1
 494 66 l 1,10,-1
 519 0 l 1,11,-1
 239 460 l 1,12,-1
 269 460 l 1,13,-1
 208 75 l 2,14,15
 202 32 202 32 179.5 11.5 c 128,-1,16
 157 -9 157 -9 115 -9 c 0,17,18
 74 -9 74 -9 53 17.5 c 128,-1,19
 32 44 32 44 40 91 c 2,20,-1
 126 636 l 2,21,22
 133 675 133 675 155 694.5 c 128,-1,23
 177 714 177 714 210 714 c 0,24,25
 246 714 246 714 264.5 701 c 128,-1,26
 283 688 283 688 301 658 c 2,27,-1
 552 245 l 1,28,-1
 522 245 l 1,29,-1
 583 630 l 2,30,31
 590 673 590 673 614 693.5 c 128,-1,32
 638 714 638 714 680 714 c 0,33,34
 720 714 720 714 739.5 688 c 128,-1,35
 759 662 759 662 752 614 c 2,36,-1
 659 27 l 2,37,38
 642 -83 642 -83 586.5 -136.5 c 128,-1,39
 531 -190 531 -190 417 -190 c 0,0,1
EndSplineSet
EndChar

StartChar: O
Encoding: 79 79 129
Width: 807
GlyphClass: 2
Flags: W
AnchorPoint: "Anchor-5" 420 353 basechar 0
AnchorPoint: "Anchor-3" 445 0 basechar 0
AnchorPoint: "Anchor-2" 371 0 basechar 0
AnchorPoint: "Anchor-1" 522 705 basechar 0
AnchorPoint: "Anchor-0" 461 705 basechar 0
LayerCount: 2
Fore
SplineSet
396 -11 m 0,0,1
 295 -11 295 -11 220 26.5 c 128,-1,2
 145 64 145 64 103.5 134.5 c 128,-1,3
 62 205 62 205 62 305 c 0,4,5
 62 396 62 396 89.5 471.5 c 128,-1,6
 117 547 117 547 167.5 602 c 128,-1,7
 218 657 218 657 288.5 686.5 c 128,-1,8
 359 716 359 716 445 716 c 0,9,10
 547 716 547 716 622 678.5 c 128,-1,11
 697 641 697 641 738 570.5 c 128,-1,12
 779 500 779 500 779 401 c 0,13,14
 779 309 779 309 752 233.5 c 128,-1,15
 725 158 725 158 674 103 c 128,-1,16
 623 48 623 48 552.5 18.5 c 128,-1,17
 482 -11 482 -11 396 -11 c 0,0,1
398 143 m 0,18,19
 459 143 459 143 501 175 c 128,-1,20
 543 207 543 207 566 264.5 c 128,-1,21
 589 322 589 322 589 397 c 0,22,23
 589 481 589 481 549.5 521.5 c 128,-1,24
 510 562 510 562 442 562 c 0,25,26
 383 562 383 562 340.5 530 c 128,-1,27
 298 498 298 498 275.5 441 c 128,-1,28
 253 384 253 384 253 308 c 0,29,30
 253 225 253 225 292 184 c 128,-1,31
 331 143 331 143 398 143 c 0,18,19
EndSplineSet
Substitution2: "Single Substitution lookup 29 subtable" ordmasculine
Substitution2: "'aalt' Access All Alternates lookup 0 subtable" ordmasculine
EndChar

StartChar: OE
Encoding: 338 338 163
Width: 1067
GlyphClass: 2
Flags: W
AnchorPoint: "Anchor-2" 567 0 basechar 0
AnchorPoint: "Anchor-0" 679 705 basechar 0
LayerCount: 2
Fore
SplineSet
434 0 m 2,0,1
 257 0 257 0 161 82 c 128,-1,2
 65 164 65 164 64 309 c 0,3,4
 64 400 64 400 90 473 c 128,-1,5
 116 546 116 546 169 598 c 128,-1,6
 222 650 222 650 300 677.5 c 128,-1,7
 378 705 378 705 481 705 c 2,8,-1
 1012 705 l 2,9,10
 1048 705 1048 705 1067 690 c 128,-1,11
 1086 675 1086 675 1086 647 c 0,12,13
 1086 608 1086 608 1063.5 585.5 c 128,-1,14
 1041 563 1041 563 1003 563 c 2,15,-1
 743 563 l 1,16,-1
 722 429 l 1,17,-1
 946 429 l 2,18,19
 982 429 982 429 1001 414 c 128,-1,20
 1020 399 1020 399 1020 371 c 0,21,22
 1020 332 1020 332 997.5 309.5 c 128,-1,23
 975 287 975 287 937 287 c 2,24,-1
 700 287 l 1,25,-1
 677 142 l 1,26,-1
 923 142 l 2,27,28
 958 142 958 142 978 127 c 128,-1,29
 998 112 998 112 998 85 c 0,30,31
 998 45 998 45 975.5 22.5 c 128,-1,32
 953 0 953 0 914 0 c 2,33,-1
 434 0 l 2,0,1
435 149 m 2,34,-1
 503 149 l 1,35,-1
 567 556 l 1,36,-1
 479 556 l 2,37,38
 422 556 422 556 380 539 c 128,-1,39
 338 522 338 522 310.5 490 c 128,-1,40
 283 458 283 458 269 413 c 128,-1,41
 255 368 255 368 255 312 c 0,42,43
 255 233 255 233 300 191 c 128,-1,44
 345 149 345 149 435 149 c 2,34,-1
EndSplineSet
EndChar

StartChar: P
Encoding: 80 80 164
Width: 676
GlyphClass: 2
Flags: W
AnchorPoint: "Anchor-2" 302 0 basechar 0
AnchorPoint: "Anchor-0" 413 705 basechar 0
LayerCount: 2
Fore
SplineSet
117 -9 m 0,0,1
 73 -9 73 -9 53 19 c 128,-1,2
 33 47 33 47 41 98 c 2,3,-1
 123 614 l 2,4,5
 130 660 130 660 157 682.5 c 128,-1,6
 184 705 184 705 229 705 c 2,7,-1
 435 705 l 2,8,9
 563 705 563 705 626.5 650.5 c 128,-1,10
 690 596 690 596 690 501 c 0,11,12
 690 377 690 377 615 310 c 128,-1,13
 540 243 540 243 396 243 c 2,14,-1
 248 243 l 1,15,-1
 222 82 l 2,16,17
 215 36 215 36 188.5 13.5 c 128,-1,18
 162 -9 162 -9 117 -9 c 0,0,1
270 384 m 1,19,-1
 403 384 l 2,20,21
 458 384 458 384 486.5 410 c 128,-1,22
 515 436 515 436 515 485 c 0,23,24
 515 526 515 526 489.5 545 c 128,-1,25
 464 564 464 564 410 564 c 2,26,-1
 298 564 l 1,27,-1
 270 384 l 1,19,-1
EndSplineSet
EndChar

StartChar: Thorn
Encoding: 222 222 165
Width: 679
GlyphClass: 2
Flags: W
AnchorPoint: "Anchor-2" 306 0 basechar 0
AnchorPoint: "Anchor-0" 417 705 basechar 0
LayerCount: 2
Fore
SplineSet
117 -9 m 0,0,1
 73 -9 73 -9 53 19 c 128,-1,2
 33 47 33 47 41 99 c 2,3,-1
 123 615 l 2,4,5
 130 661 130 661 157 683.5 c 128,-1,6
 184 706 184 706 230 706 c 0,7,8
 272 706 272 706 293.5 685 c 128,-1,9
 315 664 315 664 308 629 c 2,10,-1
 303 598 l 1,11,-1
 421 598 l 2,12,13
 549 598 549 598 612.5 544 c 128,-1,14
 676 490 676 490 676 395 c 0,15,16
 676 271 676 271 600.5 203.5 c 128,-1,17
 525 136 525 136 381 136 c 2,18,-1
 231 136 l 1,19,-1
 222 82 l 2,20,21
 215 36 215 36 188.5 13.5 c 128,-1,22
 162 -9 162 -9 117 -9 c 0,0,1
253 278 m 1,23,-1
 389 278 l 2,24,25
 444 278 444 278 472.5 303.5 c 128,-1,26
 501 329 501 329 501 378 c 0,27,28
 501 419 501 419 475.5 438 c 128,-1,29
 450 457 450 457 396 457 c 2,30,-1
 281 457 l 1,31,-1
 253 278 l 1,23,-1
EndSplineSet
EndChar

StartChar: Q
Encoding: 81 81 166
Width: 807
GlyphClass: 2
Flags: W
AnchorPoint: "Anchor-5" 420 353 basechar 0
AnchorPoint: "Anchor-3" 445 0 basechar 0
AnchorPoint: "Anchor-2" 371 0 basechar 0
AnchorPoint: "Anchor-1" 522 705 basechar 0
AnchorPoint: "Anchor-0" 461 705 basechar 0
LayerCount: 2
Fore
SplineSet
671 -91 m 2,0,1
 688 -125 688 -125 681.5 -152 c 128,-1,2
 675 -179 675 -179 654.5 -194.5 c 128,-1,3
 634 -210 634 -210 607 -213 c 128,-1,4
 580 -216 580 -216 555 -202.5 c 128,-1,5
 530 -189 530 -189 515 -157 c 2,6,-1
 469 -56 l 2,7,8
 457 -31 457 -31 439 -21 c 128,-1,9
 421 -11 421 -11 380 -11 c 1,10,-1
 522 40 l 1,11,12
 566 39 566 39 595 23 c 128,-1,13
 624 7 624 7 641 -30 c 2,14,-1
 671 -91 l 2,0,1
396 -11 m 0,15,16
 295 -11 295 -11 220 26.5 c 128,-1,17
 145 64 145 64 103.5 134.5 c 128,-1,18
 62 205 62 205 62 305 c 0,19,20
 62 396 62 396 89.5 471.5 c 128,-1,21
 117 547 117 547 167.5 602 c 128,-1,22
 218 657 218 657 288.5 686.5 c 128,-1,23
 359 716 359 716 445 716 c 0,24,25
 547 716 547 716 622 678.5 c 128,-1,26
 697 641 697 641 738 570.5 c 128,-1,27
 779 500 779 500 779 401 c 0,28,29
 779 309 779 309 752 233.5 c 128,-1,30
 725 158 725 158 674 103 c 128,-1,31
 623 48 623 48 552.5 18.5 c 128,-1,32
 482 -11 482 -11 396 -11 c 0,15,16
398 143 m 0,33,34
 459 143 459 143 501 175 c 128,-1,35
 543 207 543 207 566 264.5 c 128,-1,36
 589 322 589 322 589 397 c 0,37,38
 589 481 589 481 549.5 521.5 c 128,-1,39
 510 562 510 562 442 562 c 0,40,41
 383 562 383 562 340.5 530 c 128,-1,42
 298 498 298 498 275.5 441 c 128,-1,43
 253 384 253 384 253 308 c 0,44,45
 253 225 253 225 292 184 c 128,-1,46
 331 143 331 143 398 143 c 0,33,34
EndSplineSet
EndChar

StartChar: R
Encoding: 82 82 167
Width: 706
GlyphClass: 2
Flags: W
AnchorPoint: "Anchor-2" 322 0 basechar 0
AnchorPoint: "Anchor-0" 416 705 basechar 0
LayerCount: 2
Fore
SplineSet
117 -9 m 0,0,1
 73 -9 73 -9 53 19 c 128,-1,2
 33 47 33 47 41 99 c 2,3,-1
 123 614 l 2,4,5
 130 660 130 660 157 682.5 c 128,-1,6
 184 705 184 705 230 705 c 2,7,-1
 440 705 l 2,8,9
 561 705 561 705 625.5 651.5 c 128,-1,10
 690 598 690 598 690 504 c 0,11,12
 690 421 690 421 654 368 c 128,-1,13
 618 315 618 315 555 290 c 128,-1,14
 492 265 492 265 411 265 c 1,15,-1
 411 283 l 1,16,-1
 448 283 l 2,17,18
 500 283 500 283 532 255 c 128,-1,19
 564 227 564 227 583 178 c 2,20,-1
 610 107 l 2,21,22
 625 71 625 71 621 45 c 128,-1,23
 617 19 617 19 595 5 c 128,-1,24
 573 -9 573 -9 534 -9 c 0,25,26
 497 -9 497 -9 474.5 10 c 128,-1,27
 452 29 452 29 437 70 c 2,28,-1
 383 212 l 2,29,30
 373 240 373 240 356.5 251.5 c 128,-1,31
 340 263 340 263 311 263 c 2,32,-1
 251 263 l 1,33,-1
 223 82 l 2,34,35
 216 36 216 36 189 13.5 c 128,-1,36
 162 -9 162 -9 117 -9 c 0,0,1
271 393 m 1,37,-1
 404 393 l 2,38,39
 458 393 458 393 486.5 416.5 c 128,-1,40
 515 440 515 440 515 487 c 0,41,42
 515 526 515 526 489.5 545 c 128,-1,43
 464 564 464 564 409 564 c 2,44,-1
 298 564 l 1,45,-1
 271 393 l 1,37,-1
EndSplineSet
EndChar

StartChar: S
Encoding: 83 83 175
Width: 651
GlyphClass: 2
Flags: W
AnchorPoint: "Anchor-2" 311 0 basechar 0
AnchorPoint: "Anchor-0" 390 705 basechar 0
LayerCount: 2
Fore
SplineSet
303 -11 m 0,0,1
 265 -11 265 -11 224.5 -6 c 128,-1,2
 184 -1 184 -1 145 11 c 128,-1,3
 106 23 106 23 72 39 c 0,4,5
 45 53 45 53 34.5 75.5 c 128,-1,6
 24 98 24 98 27.5 122 c 128,-1,7
 31 146 31 146 45.5 164 c 128,-1,8
 60 182 60 182 83.5 188 c 128,-1,9
 107 194 107 194 137 180 c 0,10,11
 182 158 182 158 231.5 149 c 128,-1,12
 281 140 281 140 321 140 c 0,13,14
 378 140 378 140 408.5 158.5 c 128,-1,15
 439 177 439 177 439 205 c 0,16,17
 439 228 439 228 420.5 243.5 c 128,-1,18
 402 259 402 259 362 268 c 2,19,-1
 247 296 l 2,20,21
 171 313 171 313 126.5 361 c 128,-1,22
 82 409 82 409 82 480 c 0,23,24
 82 537 82 537 106 580.5 c 128,-1,25
 130 624 130 624 172 654.5 c 128,-1,26
 214 685 214 685 268 700.5 c 128,-1,27
 322 716 322 716 381 716 c 0,28,29
 429 716 429 716 485 705 c 128,-1,30
 541 694 541 694 592 666 c 0,31,32
 616 654 616 654 626.5 633 c 128,-1,33
 637 612 637 612 635 589.5 c 128,-1,34
 633 567 633 567 618.5 550 c 128,-1,35
 604 533 604 533 578.5 527.5 c 128,-1,36
 553 522 553 522 518 536 c 0,37,38
 487 550 487 550 450 557.5 c 128,-1,39
 413 565 413 565 380 565 c 0,40,41
 343 565 343 565 316.5 556.5 c 128,-1,42
 290 548 290 548 276 533 c 128,-1,43
 262 518 262 518 262 499 c 0,44,45
 262 476 262 476 279 461 c 128,-1,46
 296 446 296 446 332 437 c 2,47,-1
 447 410 l 2,48,49
 529 391 529 391 574 342.5 c 128,-1,50
 619 294 619 294 619 226 c 0,51,52
 619 166 619 166 593.5 121.5 c 128,-1,53
 568 77 568 77 523.5 47.5 c 128,-1,54
 479 18 479 18 422 3.5 c 128,-1,55
 365 -11 365 -11 303 -11 c 0,0,1
EndSplineSet
EndChar

StartChar: uni1E9E
Encoding: 7838 7838 186
Width: 752
GlyphClass: 1
Flags: W
LayerCount: 2
Fore
SplineSet
450 -11 m 0,0,1
 412 -11 412 -11 379.5 -4.5 c 128,-1,2
 347 2 347 2 314 17 c 0,3,4
 289 28 289 28 279 47 c 128,-1,5
 269 66 269 66 271 87 c 128,-1,6
 273 108 273 108 284.5 125.5 c 128,-1,7
 296 143 296 143 315.5 150.5 c 128,-1,8
 335 158 335 158 359 149 c 0,9,10
 384 139 384 139 404 135.5 c 128,-1,11
 424 132 424 132 443 132 c 0,12,13
 482 132 482 132 504.5 155 c 128,-1,14
 527 178 527 178 527 212 c 0,15,16
 527 241 527 241 504.5 262 c 128,-1,17
 482 283 482 283 427 283 c 2,18,-1
 399 283 l 2,19,20
 376 283 376 283 359.5 297 c 128,-1,21
 343 311 343 311 343 336 c 0,22,23
 343 375 343 375 359.5 398.5 c 128,-1,24
 376 422 376 422 413 422 c 2,25,-1
 438 422 l 2,26,27
 488 422 488 422 512 440.5 c 128,-1,28
 536 459 536 459 536 502 c 0,29,30
 536 530 536 530 508.5 550 c 128,-1,31
 481 570 481 570 427 570 c 0,32,33
 356 570 356 570 322.5 537.5 c 128,-1,34
 289 505 289 505 278 437 c 2,35,-1
 221 77 l 2,36,37
 215 34 215 34 189.5 12.5 c 128,-1,38
 164 -9 164 -9 121 -9 c 0,39,40
 75 -9 75 -9 53.5 17.5 c 128,-1,41
 32 44 32 44 40 91 c 2,42,-1
 97 454 l 2,43,44
 113 552 113 552 157.5 609.5 c 128,-1,45
 202 667 202 667 274 691.5 c 128,-1,46
 346 716 346 716 443 716 c 0,47,48
 531 716 531 716 590.5 690 c 128,-1,49
 650 664 650 664 680 621.5 c 128,-1,50
 710 579 710 579 710 530 c 0,51,52
 710 468 710 468 669 418.5 c 128,-1,53
 628 369 628 369 558 352 c 1,54,-1
 558 369 l 1,55,56
 605 360 605 360 637 334.5 c 128,-1,57
 669 309 669 309 685.5 272.5 c 128,-1,58
 702 236 702 236 702 195 c 0,59,60
 702 141 702 141 673 94 c 128,-1,61
 644 47 644 47 588 18 c 128,-1,62
 532 -11 532 -11 450 -11 c 0,0,1
EndSplineSet
EndChar

StartChar: T
Encoding: 84 84 187
Width: 644
GlyphClass: 2
Flags: W
AnchorPoint: "Anchor-5" 340 358 basechar 0
AnchorPoint: "Anchor-2" 284 0 basechar 0
AnchorPoint: "Anchor-0" 392 705 basechar 0
LayerCount: 2
Fore
SplineSet
284 -9 m 0,0,1
 241 -9 241 -9 220 19 c 128,-1,2
 199 47 199 47 207 98 c 2,3,-1
 279 555 l 1,4,-1
 137 555 l 2,5,6
 99 555 99 555 78 571.5 c 128,-1,7
 57 588 57 588 57 616 c 0,8,9
 57 658 57 658 81 681.5 c 128,-1,10
 105 705 105 705 147 705 c 2,11,-1
 630 705 l 2,12,13
 668 705 668 705 688.5 689 c 128,-1,14
 709 673 709 673 709 645 c 0,15,16
 709 603 709 603 685.5 579 c 128,-1,17
 662 555 662 555 620 555 c 2,18,-1
 463 555 l 1,19,-1
 388 82 l 2,20,21
 381 37 381 37 355.5 14 c 128,-1,22
 330 -9 330 -9 284 -9 c 0,0,1
EndSplineSet
EndChar

StartChar: U
Encoding: 85 85 194
Width: 748
GlyphClass: 2
Flags: W
AnchorPoint: "Anchor-3" 412 0 basechar 0
AnchorPoint: "Anchor-2" 337 0 basechar 0
AnchorPoint: "Anchor-1" 627 705 basechar 0
AnchorPoint: "Anchor-0" 445 705 basechar 0
LayerCount: 2
Fore
SplineSet
349 -11 m 0,0,1
 281 -11 281 -11 224 9 c 128,-1,2
 167 29 167 29 128 70 c 128,-1,3
 89 111 89 111 73.5 173 c 128,-1,4
 58 235 58 235 71 318 c 2,5,-1
 120 629 l 2,6,7
 127 672 127 672 152 693 c 128,-1,8
 177 714 177 714 220 714 c 0,9,10
 266 714 266 714 287 688 c 128,-1,11
 308 662 308 662 301 613 c 2,12,-1
 252 308 l 2,13,14
 241 230 241 230 268.5 186 c 128,-1,15
 296 142 296 142 364 142 c 0,16,17
 426 142 426 142 464 176.5 c 128,-1,18
 502 211 502 211 513 281 c 2,19,-1
 568 629 l 2,20,21
 575 672 575 672 600 693 c 128,-1,22
 625 714 625 714 668 714 c 0,23,24
 713 714 713 714 733.5 688 c 128,-1,25
 754 662 754 662 747 614 c 2,26,-1
 696 290 l 2,27,28
 681 193 681 193 640 126 c 128,-1,29
 599 59 599 59 528 24 c 128,-1,30
 457 -11 457 -11 349 -11 c 0,0,1
EndSplineSet
EndChar

StartChar: V
Encoding: 86 86 217
Width: 742
GlyphClass: 2
Flags: W
AnchorPoint: "Anchor-2" 332 0 basechar 0
AnchorPoint: "Anchor-0" 442 705 basechar 0
LayerCount: 2
Fore
SplineSet
337 -9 m 0,0,1
 298 -9 298 -9 274 10 c 128,-1,2
 250 29 250 29 239 68 c 2,3,-1
 83 592 l 2,4,5
 74 626 74 626 81.5 651 c 128,-1,6
 89 676 89 676 110.5 690.5 c 128,-1,7
 132 705 132 705 162 705 c 0,8,9
 196 705 196 705 219 688 c 128,-1,10
 242 671 242 671 254 625 c 2,11,-1
 377 171 l 1,12,-1
 322 171 l 1,13,-1
 599 641 l 2,14,15
 619 675 619 675 641.5 690 c 128,-1,16
 664 705 664 705 699 705 c 0,17,18
 736 705 736 705 756.5 687.5 c 128,-1,19
 777 670 777 670 780 643 c 128,-1,20
 783 616 783 616 765 587 c 2,21,-1
 438 53 l 2,22,23
 418 20 418 20 395 5.5 c 128,-1,24
 372 -9 372 -9 337 -9 c 0,0,1
EndSplineSet
EndChar

StartChar: W
Encoding: 87 87 218
Width: 1128
GlyphClass: 2
Flags: W
AnchorPoint: "Anchor-2" 524 0 basechar 0
AnchorPoint: "Anchor-0" 632 705 basechar 0
LayerCount: 2
Fore
SplineSet
297 -9 m 0,0,1
 261 -9 261 -9 240 11 c 128,-1,2
 219 31 219 31 211 72 c 2,3,-1
 104 605 l 2,4,5
 94 654 94 654 117 684 c 128,-1,6
 140 714 140 714 187 714 c 0,7,8
 223 714 223 714 244.5 693.5 c 128,-1,9
 266 673 266 673 273 631 c 2,10,-1
 350 195 l 1,11,-1
 305 195 l 1,12,-1
 538 648 l 2,13,14
 555 682 555 682 578 698 c 128,-1,15
 601 714 601 714 634 714 c 256,16,17
 667 714 667 714 685.5 693.5 c 128,-1,18
 704 673 704 673 712 631 c 2,19,-1
 790 195 l 1,20,-1
 748 195 l 1,21,-1
 974 647 l 2,22,23
 992 681 992 681 1013 697.5 c 128,-1,24
 1034 714 1034 714 1070 714 c 0,25,26
 1122 714 1122 714 1140.5 680 c 128,-1,27
 1159 646 1159 646 1134 597 c 2,28,-1
 853 56 l 2,29,30
 836 22 836 22 811.5 6.5 c 128,-1,31
 787 -9 787 -9 749 -9 c 0,32,33
 713 -9 713 -9 692 11 c 128,-1,34
 671 31 671 31 663 72 c 2,35,-1
 587 458 l 1,36,-1
 612 458 l 1,37,-1
 402 57 l 2,38,39
 385 23 385 23 360.5 7 c 128,-1,40
 336 -9 336 -9 297 -9 c 0,0,1
EndSplineSet
EndChar

StartChar: X
Encoding: 88 88 223
Width: 698
GlyphClass: 2
Flags: W
AnchorPoint: "Anchor-2" 309 0 basechar 0
AnchorPoint: "Anchor-0" 419 705 basechar 0
LayerCount: 2
Fore
SplineSet
96 -9 m 0,0,1
 60 -9 60 -9 39 11.5 c 128,-1,2
 18 32 18 32 18 62.5 c 128,-1,3
 18 93 18 93 43 121 c 2,4,-1
 287 397 l 1,5,-1
 287 315 l 1,6,-1
 124 587 l 2,7,8
 105 619 105 619 109.5 648 c 128,-1,9
 114 677 114 677 136 695.5 c 128,-1,10
 158 714 158 714 194 714 c 0,11,12
 226 714 226 714 245 699.5 c 128,-1,13
 264 685 264 685 287 645 c 2,14,-1
 399 448 l 1,15,-1
 355 448 l 1,16,-1
 528 656 l 2,17,18
 556 689 556 689 577.5 701.5 c 128,-1,19
 599 714 599 714 630 714 c 0,20,21
 666 714 666 714 687.5 694 c 128,-1,22
 709 674 709 674 710 644 c 128,-1,23
 711 614 711 614 686 586 c 2,24,-1
 445 314 l 1,25,-1
 445 398 l 1,26,-1
 613 118 l 2,27,28
 632 88 632 88 627.5 58.5 c 128,-1,29
 623 29 623 29 600 10 c 128,-1,30
 577 -9 577 -9 542 -9 c 0,31,32
 510 -9 510 -9 490.5 5.5 c 128,-1,33
 471 20 471 20 448 59 c 2,34,-1
 330 263 l 1,35,-1
 374 263 l 1,36,-1
 198 49 l 2,37,38
 171 16 171 16 149 3.5 c 128,-1,39
 127 -9 127 -9 96 -9 c 0,0,1
EndSplineSet
EndChar

StartChar: Y
Encoding: 89 89 224
Width: 645
GlyphClass: 2
Flags: W
AnchorPoint: "Anchor-2" 283 0 basechar 0
AnchorPoint: "Anchor-0" 380 705 basechar 0
LayerCount: 2
Fore
SplineSet
282 -9 m 0,0,1
 238 -9 238 -9 218.5 19 c 128,-1,2
 199 47 199 47 207 98 c 2,3,-1
 249 360 l 1,4,-1
 270 259 l 1,5,-1
 94 586 l 2,6,7
 77 619 77 619 81.5 648 c 128,-1,8
 86 677 86 677 108.5 695.5 c 128,-1,9
 131 714 131 714 168 714 c 0,10,11
 199 714 199 714 220 700 c 128,-1,12
 241 686 241 686 261 645 c 2,13,-1
 363 448 l 1,14,-1
 327 448 l 1,15,-1
 500 656 l 2,16,17
 528 690 528 690 549.5 702 c 128,-1,18
 571 714 571 714 602 714 c 0,19,20
 638 714 638 714 659 694 c 128,-1,21
 680 674 680 674 680.5 644.5 c 128,-1,22
 681 615 681 615 656 586 c 2,23,-1
 378 259 l 1,24,-1
 432 360 l 1,25,-1
 388 82 l 2,26,27
 373 -9 373 -9 282 -9 c 0,0,1
EndSplineSet
EndChar

StartChar: uni01B3
Encoding: 435 435 231
Width: 671
GlyphClass: 1
Flags: W
LayerCount: 2
Fore
SplineSet
286 -9 m 0,0,1
 237 -9 237 -9 217.5 18 c 128,-1,2
 198 45 198 45 206 93 c 2,3,-1
 249 360 l 1,4,-1
 270 259 l 1,5,-1
 94 586 l 2,6,7
 77 619 77 619 81.5 648 c 128,-1,8
 86 677 86 677 108.5 695.5 c 128,-1,9
 131 714 131 714 168 714 c 0,10,11
 189 714 189 714 205 708.5 c 128,-1,12
 221 703 221 703 234.5 688 c 128,-1,13
 248 673 248 673 261 645 c 2,14,-1
 363 448 l 1,15,-1
 327 448 l 1,16,-1
 465 613 l 2,17,18
 499 653 499 653 530.5 675.5 c 128,-1,19
 562 698 562 698 597 707 c 128,-1,20
 632 716 632 716 673 716 c 0,21,22
 722 716 722 716 747.5 702.5 c 128,-1,23
 773 689 773 689 773 650 c 0,24,25
 773 635 773 635 768 619.5 c 128,-1,26
 763 604 763 604 753.5 594 c 128,-1,27
 744 584 744 584 729 585 c 0,28,29
 724 585 724 585 716.5 586 c 128,-1,30
 709 587 709 587 701 587 c 0,31,32
 683 587 683 587 659.5 574 c 128,-1,33
 636 561 636 561 615 537 c 2,34,-1
 378 259 l 1,35,-1
 432 360 l 1,36,-1
 388 79 l 2,37,38
 373 -9 373 -9 286 -9 c 0,0,1
EndSplineSet
EndChar

StartChar: Z
Encoding: 90 90 235
Width: 625
GlyphClass: 2
Flags: W
AnchorPoint: "Anchor-2" 294 0 basechar 0
AnchorPoint: "Anchor-0" 382 705 basechar 0
LayerCount: 2
Fore
SplineSet
93 0 m 2,0,1
 63 0 63 0 43.5 15.5 c 128,-1,2
 24 31 24 31 18 56.5 c 128,-1,3
 12 82 12 82 22 113 c 128,-1,4
 32 144 32 144 63 176 c 2,5,-1
 465 606 l 1,6,-1
 469 554 l 1,7,-1
 175 554 l 2,8,9
 137 554 137 554 116.5 570.5 c 128,-1,10
 96 587 96 587 96 616 c 0,11,12
 96 658 96 658 120 681.5 c 128,-1,13
 144 705 144 705 186 705 c 2,14,-1
 566 705 l 2,15,16
 602 705 602 705 623.5 689.5 c 128,-1,17
 645 674 645 674 651 648.5 c 128,-1,18
 657 623 657 623 646.5 593 c 128,-1,19
 636 563 636 563 608 533 c 2,20,-1
 204 100 l 1,21,-1
 199 151 l 1,22,-1
 508 151 l 2,23,24
 546 151 546 151 567 135 c 128,-1,25
 588 119 588 119 588 90 c 0,26,27
 588 48 588 48 563.5 24 c 128,-1,28
 539 0 539 0 498 0 c 2,29,-1
 93 0 l 2,0,1
EndSplineSet
EndChar

StartChar: a
Encoding: 97 97 242
Width: 568
GlyphClass: 2
Flags: W
AnchorPoint: "Anchor-3" 423 0 basechar 0
AnchorPoint: "Anchor-2" 254 -1 basechar 0
AnchorPoint: "Anchor-0" 316 484 basechar 0
LayerCount: 2
Fore
SplineSet
185 -11 m 0,0,1
 138 -11 138 -11 99.5 11 c 128,-1,2
 61 33 61 33 38.5 68.5 c 128,-1,3
 16 104 16 104 16 145 c 0,4,5
 16 197 16 197 46 230 c 128,-1,6
 76 263 76 263 137 278.5 c 128,-1,7
 198 294 198 294 291 294 c 2,8,-1
 370 294 l 1,9,-1
 356 210 l 1,10,-1
 291 210 l 2,11,12
 254 210 254 210 230.5 205 c 128,-1,13
 207 200 207 200 196.5 188 c 128,-1,14
 186 176 186 176 186 157 c 0,15,16
 186 133 186 133 203 119 c 128,-1,17
 220 105 220 105 247 105 c 256,18,19
 274 105 274 105 293.5 115 c 128,-1,20
 313 125 313 125 325.5 144 c 128,-1,21
 338 163 338 163 342 188 c 2,22,-1
 360 303 l 2,23,24
 366 336 366 336 346 355 c 128,-1,25
 326 374 326 374 279 374 c 0,26,27
 251 374 251 374 222.5 368.5 c 128,-1,28
 194 363 194 363 163 351 c 0,29,30
 136 342 136 342 116.5 349 c 128,-1,31
 97 356 97 356 86.5 372 c 128,-1,32
 76 388 76 388 77 408.5 c 128,-1,33
 78 429 78 429 93 447.5 c 128,-1,34
 108 466 108 466 139 476 c 0,35,36
 184 492 184 492 225 497.5 c 128,-1,37
 266 503 266 503 304 503 c 0,38,39
 395 503 395 503 446 470 c 128,-1,40
 497 437 497 437 514.5 382 c 128,-1,41
 532 327 532 327 521 261 c 2,42,-1
 493 79 l 2,43,44
 486 35 486 35 461.5 13 c 128,-1,45
 437 -9 437 -9 397 -9 c 0,46,47
 358 -9 358 -9 339.5 14.5 c 128,-1,48
 321 38 321 38 329 87 c 2,49,-1
 336 129 l 1,50,-1
 338 96 l 1,51,52
 323 59 323 59 299.5 35 c 128,-1,53
 276 11 276 11 247 0 c 128,-1,54
 218 -11 218 -11 185 -11 c 0,0,1
EndSplineSet
Substitution2: "'ss01' Style Set 1 lookup 35 subtable" a.ss01
Substitution2: "'salt' Stylistic Alternatives lookup 34 subtable" a.ss01
Substitution2: "Single Substitution lookup 29 subtable" ordfeminine
AlternateSubs2: "'aalt' Access All Alternates lookup 1 subtable" a.ss01 ordfeminine
EndChar

StartChar: aogonek
Encoding: 261 261 265
Width: 568
GlyphClass: 1
Flags: W
LayerCount: 2
Fore
SplineSet
383 -198 m 0,0,1
 321 -198 321 -198 290.5 -171 c 128,-1,2
 260 -144 260 -144 260 -100 c 0,3,4
 260 -59 260 -59 282.5 -25 c 128,-1,5
 305 9 305 9 343 31 c 1,6,-1
 339 16 l 1,7,8
 330 28 330 28 328 45.5 c 128,-1,9
 326 63 326 63 329 87 c 2,10,-1
 336 129 l 1,11,-1
 338 96 l 1,12,13
 323 59 323 59 299.5 35 c 128,-1,14
 276 11 276 11 247 0 c 128,-1,15
 218 -11 218 -11 185 -11 c 0,16,17
 138 -11 138 -11 99.5 11 c 128,-1,18
 61 33 61 33 38.5 68.5 c 128,-1,19
 16 104 16 104 16 145 c 0,20,21
 16 197 16 197 46 230 c 128,-1,22
 76 263 76 263 137 278.5 c 128,-1,23
 198 294 198 294 291 294 c 2,24,-1
 370 294 l 1,25,-1
 356 210 l 1,26,-1
 291 210 l 2,27,28
 254 210 254 210 230.5 205 c 128,-1,29
 207 200 207 200 196.5 188 c 128,-1,30
 186 176 186 176 186 157 c 0,31,32
 186 133 186 133 203 119 c 128,-1,33
 220 105 220 105 247 105 c 256,34,35
 274 105 274 105 293.5 115 c 128,-1,36
 313 125 313 125 325.5 144 c 128,-1,37
 338 163 338 163 342 188 c 2,38,-1
 360 303 l 2,39,40
 366 336 366 336 346 355 c 128,-1,41
 326 374 326 374 279 374 c 0,42,43
 251 374 251 374 222.5 368.5 c 128,-1,44
 194 363 194 363 163 351 c 0,45,46
 136 342 136 342 116.5 349 c 128,-1,47
 97 356 97 356 86.5 372 c 128,-1,48
 76 388 76 388 77 408.5 c 128,-1,49
 78 429 78 429 93 447.5 c 128,-1,50
 108 466 108 466 139 476 c 0,51,52
 184 492 184 492 225 497.5 c 128,-1,53
 266 503 266 503 304 503 c 0,54,55
 395 503 395 503 446 470 c 128,-1,56
 497 437 497 437 514.5 382 c 128,-1,57
 532 327 532 327 521 261 c 2,58,-1
 493 79 l 2,59,60
 487 42 487 42 468 21 c 128,-1,61
 449 0 449 0 419 -7 c 0,62,63
 389 -15 389 -15 376.5 -33 c 128,-1,64
 364 -51 364 -51 364 -71 c 0,65,66
 364 -88 364 -88 378 -99.5 c 128,-1,67
 392 -111 392 -111 413 -111 c 0,68,69
 419 -111 419 -111 426.5 -110 c 128,-1,70
 434 -109 434 -109 444 -107 c 0,71,72
 465 -102 465 -102 476 -111.5 c 128,-1,73
 487 -121 487 -121 488.5 -137 c 128,-1,74
 490 -153 490 -153 482 -167.5 c 128,-1,75
 474 -182 474 -182 457 -187 c 0,76,77
 442 -192 442 -192 421.5 -195 c 128,-1,78
 401 -198 401 -198 383 -198 c 0,0,1
EndSplineSet
Substitution2: "'ss01' Style Set 1 lookup 35 subtable" aogonek.ss01
Substitution2: "'salt' Stylistic Alternatives lookup 34 subtable" aogonek.ss01
Substitution2: "'aalt' Access All Alternates lookup 0 subtable" aogonek.ss01
EndChar

StartChar: ae
Encoding: 230 230 269
Width: 870
GlyphClass: 2
Flags: W
AnchorPoint: "Anchor-2" 375 0 basechar 0
AnchorPoint: "Anchor-0" 434 484 basechar 0
LayerCount: 2
Fore
SplineSet
221 -11 m 0,0,1
 168 -11 168 -11 121 5.5 c 128,-1,2
 74 22 74 22 45 57 c 128,-1,3
 16 92 16 92 16 145 c 0,4,5
 16 197 16 197 46 230 c 128,-1,6
 76 263 76 263 137 278.5 c 128,-1,7
 198 294 198 294 291 294 c 2,8,-1
 370 294 l 1,9,-1
 357 210 l 1,10,-1
 292 210 l 2,11,12
 255 210 255 210 231.5 204.5 c 128,-1,13
 208 199 208 199 197 186.5 c 128,-1,14
 186 174 186 174 186 155 c 0,15,16
 186 135 186 135 202 121.5 c 128,-1,17
 218 108 218 108 247 108 c 0,18,19
 273 108 273 108 292 117.5 c 128,-1,20
 311 127 311 127 322.5 144.5 c 128,-1,21
 334 162 334 162 337 186 c 2,22,-1
 356 301 l 2,23,24
 361 334 361 334 343.5 354 c 128,-1,25
 326 374 326 374 279 374 c 0,26,27
 251 374 251 374 222.5 368.5 c 128,-1,28
 194 363 194 363 163 351 c 0,29,30
 136 342 136 342 116.5 349 c 128,-1,31
 97 356 97 356 86.5 372.5 c 128,-1,32
 76 389 76 389 77 409 c 128,-1,33
 78 429 78 429 93 447.5 c 128,-1,34
 108 466 108 466 139 476 c 0,35,36
 184 492 184 492 225 497.5 c 128,-1,37
 266 503 266 503 304 503 c 0,38,39
 368 503 368 503 410.5 483.5 c 128,-1,40
 453 464 453 464 477 424 c 1,41,-1
 444 424 l 1,42,43
 478 464 478 464 525 483.5 c 128,-1,44
 572 503 572 503 626 503 c 0,45,46
 698 503 698 503 743.5 478.5 c 128,-1,47
 789 454 789 454 813 415.5 c 128,-1,48
 837 377 837 377 843.5 333.5 c 128,-1,49
 850 290 850 290 844 252 c 2,50,-1
 842 239 l 2,51,52
 840 223 840 223 831.5 216.5 c 128,-1,53
 823 210 823 210 807 210 c 2,54,-1
 488 210 l 1,55,-1
 500 294 l 1,56,-1
 720 294 l 1,57,-1
 703 281 l 1,58,59
 707 311 707 311 700.5 334.5 c 128,-1,60
 694 358 694 358 675 372 c 128,-1,61
 656 386 656 386 624 386 c 0,62,63
 594 386 594 386 573 372 c 128,-1,64
 552 358 552 358 539.5 334.5 c 128,-1,65
 527 311 527 311 522 281 c 2,66,-1
 516 242 l 2,67,68
 506 182 506 182 535 151 c 128,-1,69
 564 120 564 120 625 120 c 0,70,71
 647 120 647 120 675.5 125 c 128,-1,72
 704 130 704 130 726 140 c 0,73,74
 753 151 753 151 771.5 145.5 c 128,-1,75
 790 140 790 140 798.5 123.5 c 128,-1,76
 807 107 807 107 805.5 87 c 128,-1,77
 804 67 804 67 792 48 c 128,-1,78
 780 29 780 29 756 19 c 0,79,80
 721 3 721 3 681.5 -4 c 128,-1,81
 642 -11 642 -11 605 -11 c 0,82,83
 524 -11 524 -11 469.5 20.5 c 128,-1,84
 415 52 415 52 391 108 c 1,85,-1
 415 108 l 1,86,87
 393 47 393 47 339 18 c 128,-1,88
 285 -11 285 -11 221 -11 c 0,0,1
EndSplineSet
EndChar

StartChar: b
Encoding: 98 98 271
Width: 620
GlyphClass: 2
Flags: W
AnchorPoint: "Anchor-2" 265 0 basechar 0
AnchorPoint: "Anchor-0" 394 705 basechar 0
LayerCount: 2
Fore
SplineSet
344 -11 m 0,0,1
 291 -11 291 -11 251 12.5 c 128,-1,2
 211 36 211 36 194 81 c 1,3,-1
 207 122 l 1,4,-1
 200 80 l 2,5,6
 195 36 195 36 169.5 13.5 c 128,-1,7
 144 -9 144 -9 100 -9 c 0,8,9
 59 -9 59 -9 39.5 18.5 c 128,-1,10
 20 46 20 46 28 94 c 2,11,-1
 112 626 l 2,12,13
 119 670 119 670 144.5 692 c 128,-1,14
 170 714 170 714 214 714 c 0,15,16
 256 714 256 714 275.5 687 c 128,-1,17
 295 660 295 660 287 611 c 2,18,-1
 256 414 l 1,19,-1
 246 414 l 1,20,21
 274 456 274 456 317 479.5 c 128,-1,22
 360 503 360 503 411 503 c 0,23,24
 466 503 466 503 507 477 c 128,-1,25
 548 451 548 451 570.5 403 c 128,-1,26
 593 355 593 355 593 289 c 0,27,28
 593 203 593 203 562 135 c 128,-1,29
 531 67 531 67 475 28 c 128,-1,30
 419 -11 419 -11 344 -11 c 0,0,1
306 120 m 0,31,32
 340 120 340 120 364 140.5 c 128,-1,33
 388 161 388 161 401 197 c 128,-1,34
 414 233 414 233 414 279 c 0,35,36
 414 324 414 324 393.5 348 c 128,-1,37
 373 372 373 372 337 372 c 0,38,39
 303 372 303 372 279 351.5 c 128,-1,40
 255 331 255 331 241.5 295 c 128,-1,41
 228 259 228 259 228 213 c 0,42,43
 228 168 228 168 249 144 c 128,-1,44
 270 120 270 120 306 120 c 0,31,32
EndSplineSet
EndChar

StartChar: uni0253
Encoding: 595 595 272
Width: 620
GlyphClass: 1
Flags: W
LayerCount: 2
Fore
SplineSet
344 -11 m 0,0,1
 291 -11 291 -11 251 12.5 c 128,-1,2
 211 36 211 36 194 81 c 1,3,-1
 207 122 l 1,4,-1
 200 80 l 2,5,6
 194 36 194 36 169 13.5 c 128,-1,7
 144 -9 144 -9 100 -9 c 0,8,9
 59 -9 59 -9 39.5 18.5 c 128,-1,10
 20 46 20 46 28 94 c 2,11,-1
 91 498 l 2,12,13
 109 609 109 609 169 662.5 c 128,-1,14
 229 716 229 716 343 716 c 0,15,16
 389 716 389 716 407.5 699.5 c 128,-1,17
 426 683 426 683 426 653 c 0,18,19
 426 625 426 625 414.5 601 c 128,-1,20
 403 577 403 577 384 577 c 0,21,22
 380 577 380 577 370.5 578 c 128,-1,23
 361 579 361 579 353 579 c 0,24,25
 318 579 318 579 297 558 c 128,-1,26
 276 537 276 537 269 496 c 2,27,-1
 256 414 l 1,28,-1
 246 414 l 1,29,30
 274 456 274 456 317 479.5 c 128,-1,31
 360 503 360 503 411 503 c 0,32,33
 466 503 466 503 507 477 c 128,-1,34
 548 451 548 451 570.5 403 c 128,-1,35
 593 355 593 355 593 289 c 0,36,37
 593 203 593 203 562 135 c 128,-1,38
 531 67 531 67 475 28 c 128,-1,39
 419 -11 419 -11 344 -11 c 0,0,1
306 120 m 0,40,41
 340 120 340 120 364 140.5 c 128,-1,42
 388 161 388 161 401 197 c 128,-1,43
 414 233 414 233 414 279 c 0,44,45
 414 324 414 324 393.5 348 c 128,-1,46
 373 372 373 372 337 372 c 0,47,48
 303 372 303 372 279 351.5 c 128,-1,49
 255 331 255 331 241.5 295 c 128,-1,50
 228 259 228 259 228 213 c 0,51,52
 228 168 228 168 249 144 c 128,-1,53
 270 120 270 120 306 120 c 0,40,41
EndSplineSet
EndChar

StartChar: c
Encoding: 99 99 273
Width: 484
GlyphClass: 2
Flags: W
AnchorPoint: "Anchor-2" 251 0 basechar 0
AnchorPoint: "Anchor-0" 321 484 basechar 0
LayerCount: 2
Fore
SplineSet
285 -11 m 0,0,1
 200 -11 200 -11 143 17.5 c 128,-1,2
 86 46 86 46 57 98 c 128,-1,3
 28 150 28 150 28 219 c 0,4,5
 28 275 28 275 46.5 326 c 128,-1,6
 65 377 65 377 102 417 c 128,-1,7
 139 457 139 457 195 480 c 128,-1,8
 251 503 251 503 325 503 c 0,9,10
 360 503 360 503 386 498 c 128,-1,11
 412 493 412 493 439 485 c 0,12,13
 468 476 468 476 480.5 457.5 c 128,-1,14
 493 439 493 439 492.5 418 c 128,-1,15
 492 397 492 397 481 379.5 c 128,-1,16
 470 362 470 362 452.5 353.5 c 128,-1,17
 435 345 435 345 413 354 c 0,18,19
 393 362 393 362 375 365.5 c 128,-1,20
 357 369 357 369 340 369 c 0,21,22
 304 369 304 369 279 356.5 c 128,-1,23
 254 344 254 344 239 322.5 c 128,-1,24
 224 301 224 301 217 275 c 128,-1,25
 210 249 210 249 210 222 c 0,26,27
 210 177 210 177 234 150 c 128,-1,28
 258 123 258 123 314 123 c 0,29,30
 326 123 326 123 344.5 127 c 128,-1,31
 363 131 363 131 384 139 c 0,32,33
 403 146 403 146 418.5 138 c 128,-1,34
 434 130 434 130 443.5 113.5 c 128,-1,35
 453 97 453 97 452.5 77 c 128,-1,36
 452 57 452 57 440 39.5 c 128,-1,37
 428 22 428 22 400 11 c 0,38,39
 377 0 377 0 345.5 -5.5 c 128,-1,40
 314 -11 314 -11 285 -11 c 0,0,1
EndSplineSet
EndChar

StartChar: d
Encoding: 100 100 280
Width: 620
GlyphClass: 2
Flags: W
AnchorPoint: "Anchor-5" 302 247 basechar 0
AnchorPoint: "Anchor-4" 485 592 basechar 0
AnchorPoint: "Anchor-2" 279 0 basechar 0
AnchorPoint: "Anchor-1" 676 705 basechar 0
AnchorPoint: "Anchor-0" 379 665 basechar 0
LayerCount: 2
Fore
SplineSet
209 -11 m 0,0,1
 154 -11 154 -11 113 15 c 128,-1,2
 72 41 72 41 49.5 89.5 c 128,-1,3
 27 138 27 138 27 203 c 0,4,5
 27 290 27 290 58 358 c 128,-1,6
 89 426 89 426 145.5 464.5 c 128,-1,7
 202 503 202 503 276 503 c 0,8,9
 329 503 329 503 369 479.5 c 128,-1,10
 409 456 409 456 426 411 c 1,11,-1
 417 412 l 1,12,-1
 451 627 l 2,13,14
 458 671 458 671 484 692.5 c 128,-1,15
 510 714 510 714 554 714 c 0,16,17
 596 714 596 714 615 687 c 128,-1,18
 634 660 634 660 627 611 c 2,19,-1
 543 80 l 2,20,21
 536 36 536 36 510.5 13.5 c 128,-1,22
 485 -9 485 -9 441 -9 c 0,23,24
 400 -9 400 -9 381 19 c 128,-1,25
 362 47 362 47 371 96 c 2,26,-1
 376 127 l 1,27,-1
 375 78 l 1,28,29
 346 36 346 36 303 12.5 c 128,-1,30
 260 -11 260 -11 209 -11 c 0,0,1
284 120 m 0,31,32
 318 120 318 120 342 141 c 128,-1,33
 366 162 366 162 379 197.5 c 128,-1,34
 392 233 392 233 392 279 c 0,35,36
 392 324 392 324 371.5 348 c 128,-1,37
 351 372 351 372 315 372 c 0,38,39
 281 372 281 372 256.5 352 c 128,-1,40
 232 332 232 332 219 296 c 128,-1,41
 206 260 206 260 206 213 c 0,42,43
 206 168 206 168 227 144 c 128,-1,44
 248 120 248 120 284 120 c 0,31,32
EndSplineSet
EndChar

StartChar: eth
Encoding: 240 240 281
Width: 606
GlyphClass: 1
Flags: W
LayerCount: 2
Fore
SplineSet
273 -11 m 0,0,1
 201 -11 201 -11 145 16 c 128,-1,2
 89 43 89 43 56.5 90.5 c 128,-1,3
 24 138 24 138 24 199 c 0,4,5
 24 272 24 272 58 328 c 128,-1,6
 92 384 92 384 150.5 415.5 c 128,-1,7
 209 447 209 447 282 447 c 0,8,9
 324 447 324 447 359.5 436 c 128,-1,10
 395 425 395 425 420 400 c 128,-1,11
 445 375 445 375 453 331 c 1,12,-1
 426 330 l 1,13,14
 433 396 433 396 403.5 452 c 128,-1,15
 374 508 374 508 321 547 c 1,16,-1
 343 547 l 1,17,-1
 197 482 l 2,18,19
 178 473 178 473 163.5 480 c 128,-1,20
 149 487 149 487 142.5 501.5 c 128,-1,21
 136 516 136 516 141 531 c 128,-1,22
 146 546 146 546 165 555 c 2,23,-1
 267 600 l 1,24,-1
 257 583 l 1,25,26
 242 590 242 590 225 595.5 c 128,-1,27
 208 601 208 601 193 605 c 0,28,29
 163 613 163 613 154 632 c 128,-1,30
 145 651 145 651 153 671.5 c 128,-1,31
 161 692 161 692 183.5 704 c 128,-1,32
 206 716 206 716 241 709 c 0,33,34
 282 700 282 700 324.5 683.5 c 128,-1,35
 367 667 367 667 396 647 c 1,36,-1
 376 649 l 1,37,-1
 500 706 l 2,38,39
 520 715 520 715 535 708 c 128,-1,40
 550 701 550 701 556 686.5 c 128,-1,41
 562 672 562 672 557.5 656.5 c 128,-1,42
 553 641 553 641 533 632 c 2,43,-1
 444 592 l 1,44,-1
 450 609 l 1,45,46
 498 568 498 568 527.5 520 c 128,-1,47
 557 472 557 472 571 420.5 c 128,-1,48
 585 369 585 369 585 320 c 0,49,50
 585 247 585 247 564 187 c 128,-1,51
 543 127 543 127 503 82 c 128,-1,52
 463 37 463 37 405 13 c 128,-1,53
 347 -11 347 -11 273 -11 c 0,0,1
290 122 m 0,54,55
 320 122 320 122 342.5 136.5 c 128,-1,56
 365 151 365 151 378.5 177 c 128,-1,57
 392 203 392 203 392 239 c 0,58,59
 392 274 392 274 369 296 c 128,-1,60
 346 318 346 318 305 318 c 0,61,62
 276 318 276 318 253 303.5 c 128,-1,63
 230 289 230 289 216.5 263 c 128,-1,64
 203 237 203 237 203 201 c 256,65,66
 203 165 203 165 226.5 143.5 c 128,-1,67
 250 122 250 122 290 122 c 0,54,55
EndSplineSet
EndChar

StartChar: dcroat
Encoding: 273 273 283
Width: 620
GlyphClass: 1
Flags: W
LayerCount: 2
Fore
SplineSet
208 -11 m 0,0,1
 153 -11 153 -11 112 15 c 128,-1,2
 71 41 71 41 48.5 87.5 c 128,-1,3
 26 134 26 134 26 197 c 0,4,5
 26 281 26 281 56.5 347.5 c 128,-1,6
 87 414 87 414 142.5 452.5 c 128,-1,7
 198 491 198 491 273 491 c 0,8,9
 326 491 326 491 366 467 c 128,-1,10
 406 443 406 443 423 398 c 1,11,-1
 415 399 l 1,12,-1
 436 532 l 1,13,-1
 321 532 l 2,14,15
 290 532 290 532 273 544.5 c 128,-1,16
 256 557 256 557 256 581 c 0,17,18
 256 614 256 614 275 633.5 c 128,-1,19
 294 653 294 653 328 653 c 2,20,-1
 493 653 l 1,21,-1
 444 584 l 1,22,-1
 451 626 l 2,23,24
 458 670 458 670 483.5 692 c 128,-1,25
 509 714 509 714 553 714 c 0,26,27
 595 714 595 714 614.5 689.5 c 128,-1,28
 634 665 634 665 627 624 c 2,29,-1
 621 584 l 1,30,-1
 595 653 l 1,31,-1
 648 653 l 2,32,33
 679 653 679 653 696 640.5 c 128,-1,34
 713 628 713 628 713 604 c 0,35,36
 713 570 713 570 693.5 551 c 128,-1,37
 674 532 674 532 640 532 c 2,38,-1
 614 532 l 1,39,-1
 543 80 l 2,40,41
 536 36 536 36 510.5 13.5 c 128,-1,42
 485 -9 485 -9 442 -9 c 0,43,44
 400 -9 400 -9 381 19 c 128,-1,45
 362 47 362 47 369 97 c 2,46,-1
 374 127 l 1,47,-1
 375 80 l 1,48,49
 347 37 347 37 303 13 c 128,-1,50
 259 -11 259 -11 208 -11 c 0,0,1
282 120 m 0,51,52
 316 120 316 120 340.5 140.5 c 128,-1,53
 365 161 365 161 378 195.5 c 128,-1,54
 391 230 391 230 391 273 c 0,55,56
 391 313 391 313 370.5 336 c 128,-1,57
 350 359 350 359 313 359 c 0,58,59
 280 359 280 359 255.5 339 c 128,-1,60
 231 319 231 319 218 284.5 c 128,-1,61
 205 250 205 250 205 206 c 0,62,63
 205 167 205 167 225.5 143.5 c 128,-1,64
 246 120 246 120 282 120 c 0,51,52
EndSplineSet
EndChar

StartChar: uni0257
Encoding: 599 599 285
Width: 620
GlyphClass: 1
Flags: W
LayerCount: 2
Fore
SplineSet
209 -11 m 0,0,1
 154 -11 154 -11 113 15 c 128,-1,2
 72 41 72 41 49 89.5 c 128,-1,3
 26 138 26 138 26 203 c 0,4,5
 26 290 26 290 57.5 358 c 128,-1,6
 89 426 89 426 145.5 464.5 c 128,-1,7
 202 503 202 503 276 503 c 0,8,9
 328 503 328 503 368.5 479.5 c 128,-1,10
 409 456 409 456 426 411 c 1,11,-1
 416 412 l 1,12,-1
 429 498 l 2,13,14
 447 610 447 610 507.5 663 c 128,-1,15
 568 716 568 716 681 716 c 0,16,17
 727 716 727 716 746 699.5 c 128,-1,18
 765 683 765 683 765 653 c 0,19,20
 765 625 765 625 753.5 601 c 128,-1,21
 742 577 742 577 723 577 c 0,22,23
 718 577 718 577 708.5 578 c 128,-1,24
 699 579 699 579 691 579 c 0,25,26
 656 579 656 579 635 557.5 c 128,-1,27
 614 536 614 536 608 495 c 2,28,-1
 542 80 l 2,29,30
 535 36 535 36 509.5 13.5 c 128,-1,31
 484 -9 484 -9 441 -9 c 0,32,33
 399 -9 399 -9 380.5 19 c 128,-1,34
 362 47 362 47 370 96 c 2,35,-1
 375 127 l 1,36,-1
 374 78 l 1,37,38
 346 36 346 36 302.5 12.5 c 128,-1,39
 259 -11 259 -11 209 -11 c 0,0,1
283 120 m 0,40,41
 317 120 317 120 341 141 c 128,-1,42
 365 162 365 162 378.5 197.5 c 128,-1,43
 392 233 392 233 392 279 c 0,44,45
 392 324 392 324 371.5 348 c 128,-1,46
 351 372 351 372 314 372 c 0,47,48
 280 372 280 372 256 352 c 128,-1,49
 232 332 232 332 218.5 296 c 128,-1,50
 205 260 205 260 205 213 c 0,51,52
 205 168 205 168 226 144 c 128,-1,53
 247 120 247 120 283 120 c 0,40,41
EndSplineSet
EndChar

StartChar: e
Encoding: 101 101 288
Width: 555
GlyphClass: 2
Flags: W
AnchorPoint: "Anchor-3" 363 0 basechar 0
AnchorPoint: "Anchor-2" 261 0 basechar 0
AnchorPoint: "Anchor-0" 329 484 basechar 0
LayerCount: 2
Fore
SplineSet
291 -11 m 0,0,1
 212 -11 212 -11 153 17.5 c 128,-1,2
 94 46 94 46 61 98 c 128,-1,3
 28 150 28 150 28 219 c 0,4,5
 28 304 28 304 65.5 368 c 128,-1,6
 103 432 103 432 167.5 467.5 c 128,-1,7
 232 503 232 503 311 503 c 0,8,9
 375 503 375 503 419.5 482 c 128,-1,10
 464 461 464 461 490.5 425 c 128,-1,11
 517 389 517 389 526 343.5 c 128,-1,12
 535 298 535 298 529 250 c 0,13,14
 526 225 526 225 515 217.5 c 128,-1,15
 504 210 504 210 486 210 c 2,16,-1
 173 210 l 1,17,-1
 185 294 l 1,18,-1
 407 294 l 1,19,-1
 391 281 l 1,20,21
 396 312 396 312 388.5 336 c 128,-1,22
 381 360 381 360 361.5 373.5 c 128,-1,23
 342 387 342 387 309 387 c 0,24,25
 277 387 277 387 255 373 c 128,-1,26
 233 359 233 359 219.5 335 c 128,-1,27
 206 311 206 311 202 281 c 2,28,-1
 195 242 l 2,29,30
 186 183 186 183 217 151.5 c 128,-1,31
 248 120 248 120 311 120 c 0,32,33
 334 120 334 120 362.5 125 c 128,-1,34
 391 130 391 130 412 140 c 0,35,36
 439 151 439 151 457.5 145 c 128,-1,37
 476 139 476 139 485 122.5 c 128,-1,38
 494 106 494 106 492.5 86 c 128,-1,39
 491 66 491 66 479 47.5 c 128,-1,40
 467 29 467 29 443 19 c 0,41,42
 408 3 408 3 368.5 -4 c 128,-1,43
 329 -11 329 -11 291 -11 c 0,0,1
EndSplineSet
EndChar

StartChar: uni0259
Encoding: 601 601 311
Width: 556
GlyphClass: 1
Flags: W
LayerCount: 2
Fore
SplineSet
246 -11 m 0,0,1
 162 -11 162 -11 109.5 24 c 128,-1,2
 57 59 57 59 37 117.5 c 128,-1,3
 17 176 17 176 26 245 c 0,4,5
 29 267 29 267 37.5 275 c 128,-1,6
 46 283 46 283 66 283 c 2,7,-1
 383 283 l 1,8,-1
 370 198 l 1,9,-1
 157 198 l 1,10,-1
 177 211 l 1,11,12
 172 182 172 182 179.5 157.5 c 128,-1,13
 187 133 187 133 205 118.5 c 128,-1,14
 223 104 223 104 249 104 c 0,15,16
 282 104 282 104 302.5 118.5 c 128,-1,17
 323 133 323 133 335.5 157 c 128,-1,18
 348 181 348 181 353 211 c 2,19,-1
 359 250 l 2,20,21
 368 310 368 310 340.5 341 c 128,-1,22
 313 372 313 372 249 372 c 0,23,24
 224 372 224 372 197 367 c 128,-1,25
 170 362 170 362 149 352 c 0,26,27
 123 341 123 341 104 346.5 c 128,-1,28
 85 352 85 352 74.5 367.5 c 128,-1,29
 64 383 64 383 62.5 402.5 c 128,-1,30
 61 422 61 422 70 440 c 128,-1,31
 79 458 79 458 101 468 c 0,32,33
 139 487 139 487 183 495 c 128,-1,34
 227 503 227 503 269 503 c 0,35,36
 348 503 348 503 406 474.5 c 128,-1,37
 464 446 464 446 496 394 c 128,-1,38
 528 342 528 342 528 273 c 0,39,40
 528 188 528 188 490.5 124 c 128,-1,41
 453 60 453 60 389.5 24.5 c 128,-1,42
 326 -11 326 -11 246 -11 c 0,0,1
EndSplineSet
EndChar

StartChar: f
Encoding: 102 102 314
Width: 402
GlyphClass: 2
Flags: W
AnchorPoint: "Anchor-2" 143 0 basechar 0
AnchorPoint: "Anchor-0" 254 705 basechar 0
LayerCount: 2
Fore
SplineSet
143 -9 m 0,0,1
 101 -9 101 -9 81.5 18.5 c 128,-1,2
 62 46 62 46 70 94 c 2,3,-1
 112 361 l 1,4,-1
 92 361 l 2,5,6
 59 361 59 361 41 375 c 128,-1,7
 23 389 23 389 23 414 c 0,8,9
 23 450 23 450 44.5 471 c 128,-1,10
 66 492 66 492 102 492 c 2,11,-1
 150 492 l 1,12,-1
 131 477 l 1,13,-1
 134 500 l 2,14,15
 147 591 147 591 208 646 c 128,-1,16
 269 701 269 701 395 708 c 2,17,-1
 418 709 l 2,18,19
 445 711 445 711 460 699 c 128,-1,20
 475 687 475 687 480 668.5 c 128,-1,21
 485 650 485 650 480 630.5 c 128,-1,22
 475 611 475 611 462 597.5 c 128,-1,23
 449 584 449 584 429 582 c 2,24,-1
 405 580 l 2,25,26
 361 576 361 576 340 559 c 128,-1,27
 319 542 319 542 313 506 c 2,28,-1
 309 480 l 1,29,-1
 297 492 l 1,30,-1
 360 492 l 2,31,32
 392 492 392 492 410 478.5 c 128,-1,33
 428 465 428 465 428 440 c 0,34,35
 428 403 428 403 407 382 c 128,-1,36
 386 361 386 361 350 361 c 2,37,-1
 290 361 l 1,38,-1
 246 79 l 2,39,40
 231 -9 231 -9 143 -9 c 0,0,1
EndSplineSet
EndChar

StartChar: g
Encoding: 103 103 315
Width: 626
GlyphClass: 2
Flags: W
AnchorPoint: "Anchor-0" 341 484 basechar 0
LayerCount: 2
Fore
SplineSet
265 -191 m 0,0,1
 208 -191 208 -191 153 -181 c 128,-1,2
 98 -171 98 -171 58 -152 c 0,3,4
 33 -140 33 -140 23 -120.5 c 128,-1,5
 13 -101 13 -101 15.5 -80.5 c 128,-1,6
 18 -60 18 -60 31 -44 c 128,-1,7
 44 -28 44 -28 64 -23 c 128,-1,8
 84 -18 84 -18 109 -30 c 0,9,10
 137 -44 137 -44 171.5 -52 c 128,-1,11
 206 -60 206 -60 237 -60 c 0,12,13
 292 -60 292 -60 326.5 -39.5 c 128,-1,14
 361 -19 361 -19 369 31 c 2,15,-1
 380 101 l 1,16,-1
 387 100 l 1,17,18
 365 56 365 56 321 34.5 c 128,-1,19
 277 13 277 13 227 13 c 0,20,21
 167 13 167 13 122.5 36.5 c 128,-1,22
 78 60 78 60 53 105.5 c 128,-1,23
 28 151 28 151 28 216 c 0,24,25
 28 274 28 274 46.5 326.5 c 128,-1,26
 65 379 65 379 98.5 418.5 c 128,-1,27
 132 458 132 458 178.5 480.5 c 128,-1,28
 225 503 225 503 280 503 c 0,29,30
 336 503 336 503 376.5 479.5 c 128,-1,31
 417 456 417 456 434 411 c 1,32,-1
 419 365 l 1,33,-1
 427 415 l 2,34,35
 434 459 434 459 459.5 480 c 128,-1,36
 485 501 485 501 528 501 c 0,37,38
 569 501 569 501 587.5 474 c 128,-1,39
 606 447 606 447 598 398 c 2,40,-1
 542 41 l 2,41,42
 525 -68 525 -68 455.5 -129.5 c 128,-1,43
 386 -191 386 -191 265 -191 c 0,0,1
287 144 m 0,44,45
 323 144 323 144 348 164 c 128,-1,46
 373 184 373 184 386 217 c 128,-1,47
 399 250 399 250 399 289 c 0,48,49
 399 326 399 326 378.5 349 c 128,-1,50
 358 372 358 372 318 372 c 0,51,52
 284 372 284 372 258.5 352.5 c 128,-1,53
 233 333 233 333 220 299.5 c 128,-1,54
 207 266 207 266 207 227 c 0,55,56
 207 190 207 190 228 167 c 128,-1,57
 249 144 249 144 287 144 c 0,44,45
EndSplineSet
EndChar

StartChar: uni01E5
Encoding: 485 485 322
Width: 626
GlyphClass: 1
Flags: W
LayerCount: 2
Fore
SplineSet
260 -191 m 0,0,1
 190 -191 190 -191 132.5 -181 c 128,-1,2
 75 -171 75 -171 37 -151 c 0,3,4
 15 -140 15 -140 7.5 -121 c 128,-1,5
 0 -102 0 -102 4 -82.5 c 128,-1,6
 8 -63 8 -63 20.5 -48 c 128,-1,7
 33 -33 33 -33 52 -28 c 128,-1,8
 71 -23 71 -23 93 -35 c 0,9,10
 123 -50 123 -50 162.5 -60.5 c 128,-1,11
 202 -71 202 -71 235 -71 c 0,12,13
 274 -71 274 -71 303 -61 c 128,-1,14
 332 -51 332 -51 348 -28 c 1,15,-1
 354 -42 l 1,16,-1
 271 -42 l 2,17,18
 249 -42 249 -42 238 -32.5 c 128,-1,19
 227 -23 227 -23 227 -7 c 0,20,21
 227 14 227 14 240 25.5 c 128,-1,22
 253 37 253 37 275 37 c 2,23,-1
 394 37 l 1,24,-1
 364 12 l 1,25,26
 364 13 364 13 365 16.5 c 128,-1,27
 366 20 366 20 367 22 c 2,28,-1
 384 146 l 1,29,-1
 390 145 l 1,30,31
 368 101 368 101 321.5 78 c 128,-1,32
 275 55 275 55 224 55 c 0,33,34
 162 55 162 55 119.5 83 c 128,-1,35
 77 111 77 111 55 156.5 c 128,-1,36
 33 202 33 202 33 255 c 0,37,38
 33 303 33 303 49.5 347.5 c 128,-1,39
 66 392 66 392 98 427 c 128,-1,40
 130 462 130 462 176 482.5 c 128,-1,41
 222 503 222 503 281 503 c 0,42,43
 337 503 337 503 377 479 c 128,-1,44
 417 455 417 455 433 412 c 1,45,-1
 418 365 l 1,46,-1
 426 415 l 2,47,48
 433 459 433 459 458.5 480 c 128,-1,49
 484 501 484 501 527 501 c 0,50,51
 567 501 567 501 586 474 c 128,-1,52
 605 447 605 447 597 398 c 2,53,-1
 541 45 l 2,54,55
 540 40 540 40 539.5 35 c 128,-1,56
 539 30 539 30 537 26 c 1,57,-1
 531 37 l 1,58,-1
 548 37 l 2,59,60
 570 37 570 37 581 28 c 128,-1,61
 592 19 592 19 592 2 c 0,62,63
 592 -16 592 -16 579 -29 c 128,-1,64
 566 -42 566 -42 544 -42 c 2,65,-1
 504 -42 l 1,66,-1
 522 -29 l 1,67,68
 492 -106 492 -106 428 -148.5 c 128,-1,69
 364 -191 364 -191 260 -191 c 0,0,1
292 184 m 0,70,71
 327 184 327 184 352.5 200 c 128,-1,72
 378 216 378 216 391.5 241.5 c 128,-1,73
 405 267 405 267 405 296 c 0,74,75
 405 329 405 329 384.5 350.5 c 128,-1,76
 364 372 364 372 324 372 c 0,77,78
 290 372 290 372 264.5 356.5 c 128,-1,79
 239 341 239 341 225 315.5 c 128,-1,80
 211 290 211 290 211 260 c 0,81,82
 211 228 211 228 231.5 206 c 128,-1,83
 252 184 252 184 292 184 c 0,70,71
EndSplineSet
EndChar

StartChar: h
Encoding: 104 104 323
Width: 606
GlyphClass: 2
Flags: W
AnchorPoint: "Anchor-5" 305 249 basechar 0
AnchorPoint: "Anchor-4" 245 592 basechar 0
AnchorPoint: "Anchor-2" 267 0 basechar 0
AnchorPoint: "Anchor-1" 324 705 basechar 0
AnchorPoint: "Anchor-0" 374 705 basechar 0
LayerCount: 2
Fore
SplineSet
101 -9 m 0,0,1
 59 -9 59 -9 40 18.5 c 128,-1,2
 21 46 21 46 28 95 c 2,3,-1
 112 626 l 2,4,5
 119 670 119 670 144.5 692 c 128,-1,6
 170 714 170 714 214 714 c 0,7,8
 256 714 256 714 275.5 687 c 128,-1,9
 295 660 295 660 287 611 c 2,10,-1
 255 407 l 1,11,-1
 244 407 l 1,12,13
 270 454 270 454 314 478.5 c 128,-1,14
 358 503 358 503 416 503 c 0,15,16
 469 503 469 503 506.5 481 c 128,-1,17
 544 459 544 459 559.5 412 c 128,-1,18
 575 365 575 365 564 291 c 2,19,-1
 531 79 l 2,20,21
 524 35 524 35 498 13 c 128,-1,22
 472 -9 472 -9 428 -9 c 0,23,24
 386 -9 386 -9 366.5 18.5 c 128,-1,25
 347 46 347 46 354 94 c 2,26,-1
 385 288 l 2,27,28
 392 327 392 327 380 347 c 128,-1,29
 368 367 368 367 334 367 c 0,30,31
 293 367 293 367 266.5 339.5 c 128,-1,32
 240 312 240 312 232 262 c 2,33,-1
 203 79 l 2,34,35
 189 -9 189 -9 101 -9 c 0,0,1
EndSplineSet
EndChar

StartChar: hbar
Encoding: 295 295 324
Width: 606
GlyphClass: 1
Flags: W
LayerCount: 2
Fore
SplineSet
101 -9 m 0,0,1
 59 -9 59 -9 39.5 18.5 c 128,-1,2
 20 46 20 46 28 94 c 2,3,-1
 97 532 l 1,4,-1
 78 532 l 2,5,6
 46 532 46 532 30 547.5 c 128,-1,7
 14 563 14 563 18 592 c 0,8,9
 27 653 27 653 89 653 c 2,10,-1
 155 653 l 1,11,-1
 107 590 l 1,12,-1
 112 626 l 2,13,14
 119 676 119 676 144.5 695 c 128,-1,15
 170 714 170 714 215 714 c 0,16,17
 257 714 257 714 277.5 692 c 128,-1,18
 298 670 298 670 288 617 c 2,19,-1
 281 575 l 1,20,-1
 256 653 l 1,21,-1
 409 653 l 2,22,23
 444 653 444 653 460.5 637.5 c 128,-1,24
 477 622 477 622 473 593 c 0,25,26
 464 532 464 532 402 532 c 2,27,-1
 275 532 l 1,28,-1
 253 394 l 1,29,-1
 242 394 l 1,30,31
 268 441 268 441 312 466 c 128,-1,32
 356 491 356 491 413 491 c 0,33,34
 467 491 467 491 504.5 468.5 c 128,-1,35
 542 446 542 446 558 399.5 c 128,-1,36
 574 353 574 353 562 278 c 2,37,-1
 531 79 l 2,38,39
 524 35 524 35 498 13 c 128,-1,40
 472 -9 472 -9 428 -9 c 0,41,42
 386 -9 386 -9 366.5 18.5 c 128,-1,43
 347 46 347 46 355 94 c 2,44,-1
 383 275 l 2,45,46
 390 314 390 314 378 334 c 128,-1,47
 366 354 366 354 332 354 c 0,48,49
 291 354 291 354 264.5 326.5 c 128,-1,50
 238 299 238 299 230 249 c 2,51,-1
 203 79 l 2,52,53
 189 -9 189 -9 101 -9 c 0,0,1
EndSplineSet
EndChar

StartChar: i
Encoding: 105 105 329
Width: 281
GlyphClass: 2
Flags: W
AnchorPoint: "Anchor-3" 148 0 basechar 0
AnchorPoint: "Anchor-2" 102 0 basechar 0
LayerCount: 2
Fore
SplineSet
100 -9 m 0,0,1
 58 -9 58 -9 39 18.5 c 128,-1,2
 20 46 20 46 27 94 c 2,3,-1
 78 413 l 2,4,5
 85 457 85 457 110.5 479 c 128,-1,6
 136 501 136 501 180 501 c 0,7,8
 222 501 222 501 241.5 474 c 128,-1,9
 261 447 261 447 253 398 c 2,10,-1
 202 79 l 2,11,12
 196 35 196 35 170.5 13 c 128,-1,13
 145 -9 145 -9 100 -9 c 0,0,1
193 572 m 0,14,15
 146 572 146 572 124 594 c 128,-1,16
 102 616 102 616 108 656 c 0,17,18
 114 699 114 699 142.5 721 c 128,-1,19
 171 743 171 743 220 743 c 0,20,21
 266 743 266 743 289 721 c 128,-1,22
 312 699 312 699 306 659 c 0,23,24
 299 616 299 616 270.5 594 c 128,-1,25
 242 572 242 572 193 572 c 0,14,15
EndSplineSet
Substitution2: "'locl' Localized Forms in Latin lookup 10 subtable" i.loclTRK
Substitution2: "Single Substitution lookup 4 subtable" dotlessi
Substitution2: "Single Substitution lookup 3 subtable" dotlessi
Substitution2: "'aalt' Access All Alternates lookup 0 subtable" i.loclTRK
EndChar

StartChar: dotlessi
Encoding: 305 305 330
Width: 281
GlyphClass: 2
Flags: W
AnchorPoint: "Anchor-3" 148 0 basechar 0
AnchorPoint: "Anchor-2" 102 0 basechar 0
AnchorPoint: "Anchor-0" 178 484 basechar 0
LayerCount: 2
Fore
SplineSet
100 -9 m 0,0,1
 58 -9 58 -9 39 18.5 c 128,-1,2
 20 46 20 46 27 94 c 2,3,-1
 78 413 l 2,4,5
 85 457 85 457 110.5 479 c 128,-1,6
 136 501 136 501 180 501 c 0,7,8
 222 501 222 501 241.5 474 c 128,-1,9
 261 447 261 447 253 398 c 2,10,-1
 202 79 l 2,11,12
 196 35 196 35 170.5 13 c 128,-1,13
 145 -9 145 -9 100 -9 c 0,0,1
EndSplineSet
EndChar

StartChar: iogonek
Encoding: 303 303 343
Width: 281
GlyphClass: 1
Flags: W
LayerCount: 2
Fore
SplineSet
108 -198 m 0,0,1
 46 -198 46 -198 15.5 -171 c 128,-1,2
 -15 -144 -15 -144 -15 -100 c 0,3,4
 -15 -61 -15 -61 4.5 -30 c 128,-1,5
 24 1 24 1 55 22 c 1,6,-1
 52 5 l 1,7,8
 35 17 35 17 28.5 40 c 128,-1,9
 22 63 22 63 27 94 c 2,10,-1
 78 413 l 2,11,12
 85 457 85 457 110.5 479 c 128,-1,13
 136 501 136 501 180 501 c 0,14,15
 222 501 222 501 241.5 474 c 128,-1,16
 261 447 261 447 253 398 c 2,17,-1
 202 79 l 2,18,19
 198 46 198 46 183 26 c 128,-1,20
 168 6 168 6 145 -2 c 0,21,22
 115 -13 115 -13 102 -32.5 c 128,-1,23
 89 -52 89 -52 89 -70 c 256,24,25
 89 -88 89 -88 103 -99.5 c 128,-1,26
 117 -111 117 -111 138 -111 c 0,27,28
 144 -111 144 -111 151.5 -110 c 128,-1,29
 159 -109 159 -109 169 -107 c 0,30,31
 190 -102 190 -102 201 -111.5 c 128,-1,32
 212 -121 212 -121 213.5 -137 c 128,-1,33
 215 -153 215 -153 207 -167.5 c 128,-1,34
 199 -182 199 -182 182 -187 c 0,35,36
 167 -192 167 -192 146.5 -195 c 128,-1,37
 126 -198 126 -198 108 -198 c 0,0,1
193 572 m 0,38,39
 146 572 146 572 124 594 c 128,-1,40
 102 616 102 616 108 656 c 0,41,42
 114 699 114 699 142.5 721 c 128,-1,43
 171 743 171 743 220 743 c 0,44,45
 266 743 266 743 289 721 c 128,-1,46
 312 699 312 699 306 659 c 0,47,48
 299 616 299 616 270.5 594 c 128,-1,49
 242 572 242 572 193 572 c 0,38,39
EndSplineSet
EndChar

StartChar: j
Encoding: 106 106 345
Width: 287
GlyphClass: 1
Flags: W
LayerCount: 2
Fore
SplineSet
-42 -190 m 0,0,1
 -69 -191 -69 -191 -85 -178.5 c 128,-1,2
 -101 -166 -101 -166 -106.5 -148 c 128,-1,3
 -112 -130 -112 -130 -107.5 -111 c 128,-1,4
 -103 -92 -103 -92 -88.5 -78.5 c 128,-1,5
 -74 -65 -74 -65 -50 -62 c 0,6,7
 -21 -60 -21 -60 -4 -44.5 c 128,-1,8
 13 -29 13 -29 18 3 c 2,9,-1
 83 413 l 2,10,11
 90 457 90 457 115 479 c 128,-1,12
 140 501 140 501 184 501 c 0,13,14
 226 501 226 501 246 474 c 128,-1,15
 266 447 266 447 258 398 c 2,16,-1
 200 27 l 2,17,18
 189 -46 189 -46 161.5 -93.5 c 128,-1,19
 134 -141 134 -141 85 -165 c 128,-1,20
 36 -189 36 -189 -42 -190 c 0,0,1
196 572 m 0,21,22
 150 572 150 572 128 594 c 128,-1,23
 106 616 106 616 111 656 c 0,24,25
 118 699 118 699 146.5 721 c 128,-1,26
 175 743 175 743 224 743 c 0,27,28
 270 743 270 743 293 721 c 128,-1,29
 316 699 316 699 310 659 c 0,30,31
 303 616 303 616 274.5 594 c 128,-1,32
 246 572 246 572 196 572 c 0,21,22
EndSplineSet
Substitution2: "Single Substitution lookup 4 subtable" uni0237
Substitution2: "Single Substitution lookup 3 subtable" uni0237
EndChar

StartChar: uni0237
Encoding: 567 567 346
Width: 287
GlyphClass: 2
Flags: W
AnchorPoint: "Anchor-2" 106 0 basechar 0
AnchorPoint: "Anchor-0" 182 484 basechar 0
LayerCount: 2
Fore
SplineSet
-42 -190 m 0,0,1
 -69 -191 -69 -191 -85 -178.5 c 128,-1,2
 -101 -166 -101 -166 -106.5 -148 c 128,-1,3
 -112 -130 -112 -130 -107.5 -111 c 128,-1,4
 -103 -92 -103 -92 -88.5 -78.5 c 128,-1,5
 -74 -65 -74 -65 -50 -62 c 0,6,7
 -21 -60 -21 -60 -4 -44.5 c 128,-1,8
 13 -29 13 -29 18 3 c 2,9,-1
 83 413 l 2,10,11
 90 457 90 457 115 479 c 128,-1,12
 140 501 140 501 184 501 c 0,13,14
 226 501 226 501 246 474 c 128,-1,15
 266 447 266 447 258 398 c 2,16,-1
 200 27 l 2,17,18
 189 -46 189 -46 161.5 -93.5 c 128,-1,19
 134 -141 134 -141 85 -165 c 128,-1,20
 36 -189 36 -189 -42 -190 c 0,0,1
EndSplineSet
EndChar

StartChar: k
Encoding: 107 107 348
Width: 580
GlyphClass: 2
Flags: W
AnchorPoint: "Anchor-2" 265 0 basechar 0
AnchorPoint: "Anchor-0" 374 705 basechar 0
LayerCount: 2
Fore
SplineSet
101 -9 m 0,0,1
 60 -9 60 -9 40.5 18 c 128,-1,2
 21 45 21 45 29 94 c 2,3,-1
 113 627 l 2,4,5
 120 671 120 671 145.5 692.5 c 128,-1,6
 171 714 171 714 215 714 c 0,7,8
 257 714 257 714 276.5 686.5 c 128,-1,9
 296 659 296 659 288 610 c 2,10,-1
 238 294 l 1,11,-1
 240 294 l 1,12,-1
 389 448 l 2,13,14
 414 476 414 476 436 488.5 c 128,-1,15
 458 501 458 501 491 501 c 0,16,17
 528 501 528 501 545 482 c 128,-1,18
 562 463 562 463 559 434.5 c 128,-1,19
 556 406 556 406 532 379 c 2,20,-1
 387 227 l 1,21,-1
 381 290 l 1,22,-1
 500 114 l 2,23,24
 519 83 519 83 517 55 c 128,-1,25
 515 27 515 27 494.5 9 c 128,-1,26
 474 -9 474 -9 440 -9 c 0,27,28
 400 -9 400 -9 378 6 c 128,-1,29
 356 21 356 21 333 58 c 2,30,-1
 227 214 l 1,31,-1
 225 214 l 1,32,-1
 204 78 l 2,33,34
 190 -9 190 -9 101 -9 c 0,0,1
EndSplineSet
EndChar

StartChar: kgreenlandic
Encoding: 312 312 351
Width: 580
GlyphClass: 2
Flags: W
AnchorPoint: "Anchor-2" 251 0 basechar 0
AnchorPoint: "Anchor-0" 327 484 basechar 0
LayerCount: 2
Fore
SplineSet
102 -9 m 256,0,1
 59 -9 59 -9 40 18 c 128,-1,2
 21 45 21 45 28 94 c 2,3,-1
 79 414 l 2,4,5
 86 457 86 457 111.5 479 c 128,-1,6
 137 501 137 501 180 501 c 0,7,8
 224 501 224 501 243 473.5 c 128,-1,9
 262 446 262 446 254 397 c 2,10,-1
 238 294 l 1,11,-1
 240 294 l 1,12,-1
 389 448 l 2,13,14
 412 474 412 474 434.5 487.5 c 128,-1,15
 457 501 457 501 490 501 c 0,16,17
 528 501 528 501 545 481.5 c 128,-1,18
 562 462 562 462 559.5 434 c 128,-1,19
 557 406 557 406 532 379 c 2,20,-1
 386 227 l 1,21,-1
 381 290 l 1,22,-1
 499 114 l 2,23,24
 519 83 519 83 516.5 55 c 128,-1,25
 514 27 514 27 494 9 c 128,-1,26
 474 -9 474 -9 438 -9 c 0,27,28
 400 -9 400 -9 378 6 c 128,-1,29
 356 21 356 21 333 58 c 2,30,-1
 227 214 l 1,31,-1
 225 214 l 1,32,-1
 203 78 l 2,33,34
 197 34 197 34 171 12.5 c 128,-1,35
 145 -9 145 -9 102 -9 c 256,0,1
EndSplineSet
EndChar

StartChar: l
Encoding: 108 108 352
Width: 348
GlyphClass: 2
Flags: W
AnchorPoint: "Anchor-5" 168 357 basechar 0
AnchorPoint: "Anchor-2" 164 0 basechar 0
AnchorPoint: "Anchor-1" 336 705 basechar 0
AnchorPoint: "Anchor-0" 213 705 basechar 0
LayerCount: 2
Fore
SplineSet
209 -11 m 0,0,1
 113 -11 113 -11 71 42 c 128,-1,2
 29 95 29 95 44 196 c 2,3,-1
 113 625 l 2,4,5
 120 669 120 669 145.5 691.5 c 128,-1,6
 171 714 171 714 215 714 c 0,7,8
 257 714 257 714 276.5 687 c 128,-1,9
 296 660 296 660 288 611 c 2,10,-1
 222 199 l 2,11,12
 217 165 217 165 229 147.5 c 128,-1,13
 241 130 241 130 265 130 c 0,14,15
 273 130 273 130 279 131.5 c 128,-1,16
 285 133 285 133 292 133 c 0,17,18
 305 133 305 133 313 123.5 c 128,-1,19
 321 114 321 114 321 87 c 0,20,21
 321 45 321 45 305.5 24.5 c 128,-1,22
 290 4 290 4 269 -3 c 0,23,24
 259 -7 259 -7 242 -9 c 128,-1,25
 225 -11 225 -11 209 -11 c 0,0,1
EndSplineSet
Substitution2: "'ss02' Style Set 2 lookup 36 subtable" l.ss02
Substitution2: "'aalt' Access All Alternates lookup 0 subtable" l.ss02
EndChar

StartChar: m
Encoding: 109 109 361
Width: 902
GlyphClass: 2
Flags: W
AnchorPoint: "Anchor-2" 413 0 basechar 0
AnchorPoint: "Anchor-0" 489 484 basechar 0
LayerCount: 2
Fore
SplineSet
102 -9 m 0,0,1
 60 -9 60 -9 41 17 c 128,-1,2
 22 43 22 43 29 90 c 2,3,-1
 81 417 l 2,4,5
 88 459 88 459 113 480 c 128,-1,6
 138 501 138 501 180 501 c 256,7,8
 222 501 222 501 240.5 475.5 c 128,-1,9
 259 450 259 450 252 402 c 2,10,-1
 246 361 l 1,11,-1
 241 402 l 1,12,13
 271 456 271 456 316.5 479.5 c 128,-1,14
 362 503 362 503 408 503 c 0,15,16
 462 503 462 503 498 475.5 c 128,-1,17
 534 448 534 448 550 393 c 1,18,-1
 536 403 l 1,19,20
 564 453 564 453 609 478 c 128,-1,21
 654 503 654 503 711 503 c 0,22,23
 764 503 764 503 801 481 c 128,-1,24
 838 459 838 459 853.5 412 c 128,-1,25
 869 365 869 365 857 291 c 2,26,-1
 823 76 l 2,27,28
 817 34 817 34 792 12.5 c 128,-1,29
 767 -9 767 -9 724 -9 c 0,30,31
 680 -9 680 -9 660.5 17 c 128,-1,32
 641 43 641 43 648 90 c 2,33,-1
 679 289 l 2,34,35
 685 327 685 327 673.5 347 c 128,-1,36
 662 367 662 367 633 367 c 0,37,38
 598 367 598 367 575 339.5 c 128,-1,39
 552 312 552 312 543 262 c 2,40,-1
 514 76 l 2,41,42
 508 34 508 34 482.5 12.5 c 128,-1,43
 457 -9 457 -9 414 -9 c 256,44,45
 371 -9 371 -9 351.5 17 c 128,-1,46
 332 43 332 43 338 90 c 2,47,-1
 370 289 l 2,48,49
 376 327 376 327 364.5 347 c 128,-1,50
 353 367 353 367 324 367 c 0,51,52
 289 367 289 367 265.5 339.5 c 128,-1,53
 242 312 242 312 234 262 c 2,54,-1
 205 76 l 2,55,56
 192 -9 192 -9 102 -9 c 0,0,1
EndSplineSet
EndChar

StartChar: n
Encoding: 110 110 363
Width: 606
GlyphClass: 2
Flags: W
AnchorPoint: "Anchor-2" 267 0 basechar 0
AnchorPoint: "Anchor-0" 336 484 basechar 0
LayerCount: 2
Fore
SplineSet
101 -8 m 0,0,1
 59 -8 59 -8 40 19.5 c 128,-1,2
 21 47 21 47 28 96 c 2,3,-1
 78 413 l 2,4,5
 85 457 85 457 111 479 c 128,-1,6
 137 501 137 501 180 501 c 0,7,8
 220 501 220 501 240 477 c 128,-1,9
 260 453 260 453 251 406 c 2,10,-1
 244 366 l 1,11,-1
 244 407 l 1,12,13
 270 454 270 454 314 478.5 c 128,-1,14
 358 503 358 503 416 503 c 0,15,16
 469 503 469 503 506.5 481 c 128,-1,17
 544 459 544 459 559.5 412 c 128,-1,18
 575 365 575 365 564 291 c 2,19,-1
 531 81 l 2,20,21
 524 37 524 37 498 14.5 c 128,-1,22
 472 -8 472 -8 428 -8 c 0,23,24
 386 -8 386 -8 366.5 19.5 c 128,-1,25
 347 47 347 47 355 96 c 2,26,-1
 385 288 l 2,27,28
 392 327 392 327 380 347 c 128,-1,29
 368 367 368 367 334 367 c 0,30,31
 293 367 293 367 266.5 339.5 c 128,-1,32
 240 312 240 312 232 262 c 2,33,-1
 203 81 l 2,34,35
 189 -8 189 -8 101 -8 c 0,0,1
EndSplineSet
EndChar

StartChar: eng
Encoding: 331 331 373
Width: 606
GlyphClass: 1
Flags: W
LayerCount: 2
Fore
SplineSet
281 -190 m 0,0,1
 254 -190 254 -190 237.5 -178 c 128,-1,2
 221 -166 221 -166 215 -148 c 128,-1,3
 209 -130 209 -130 213 -111.5 c 128,-1,4
 217 -93 217 -93 230.5 -79.5 c 128,-1,5
 244 -66 244 -66 266 -63 c 0,6,7
 299 -60 299 -60 317 -44.5 c 128,-1,8
 335 -29 335 -29 340 3 c 2,9,-1
 385 288 l 2,10,11
 392 327 392 327 380 347 c 128,-1,12
 368 367 368 367 334 367 c 0,13,14
 293 367 293 367 266.5 339.5 c 128,-1,15
 240 312 240 312 232 262 c 2,16,-1
 203 81 l 2,17,18
 189 -8 189 -8 101 -8 c 0,19,20
 59 -8 59 -8 40 19.5 c 128,-1,21
 21 47 21 47 28 96 c 2,22,-1
 78 413 l 2,23,24
 85 457 85 457 111 479 c 128,-1,25
 137 501 137 501 180 501 c 0,26,27
 220 501 220 501 240 477 c 128,-1,28
 260 453 260 453 251 406 c 2,29,-1
 244 366 l 1,30,-1
 244 407 l 1,31,32
 270 454 270 454 314 478.5 c 128,-1,33
 358 503 358 503 416 503 c 0,34,35
 469 503 469 503 506.5 481 c 128,-1,36
 544 459 544 459 559.5 412 c 128,-1,37
 575 365 575 365 564 291 c 2,38,-1
 522 27 l 2,39,40
 511 -46 511 -46 483 -93.5 c 128,-1,41
 455 -141 455 -141 406.5 -165 c 128,-1,42
 358 -189 358 -189 281 -190 c 0,0,1
EndSplineSet
EndChar

StartChar: o
Encoding: 111 111 374
Width: 602
GlyphClass: 2
Flags: W
AnchorPoint: "Anchor-5" 301 246 basechar 0
AnchorPoint: "Anchor-3" 331 0 basechar 0
AnchorPoint: "Anchor-2" 264 0 basechar 0
AnchorPoint: "Anchor-1" 390 484 basechar 0
AnchorPoint: "Anchor-0" 339 484 basechar 0
LayerCount: 2
Fore
SplineSet
282 -11 m 0,0,1
 201 -11 201 -11 144.5 17.5 c 128,-1,2
 88 46 88 46 58.5 98 c 128,-1,3
 29 150 29 150 29 219 c 0,4,5
 29 290 29 290 53.5 343 c 128,-1,6
 78 396 78 396 119.5 432 c 128,-1,7
 161 468 161 468 213 485.5 c 128,-1,8
 265 503 265 503 320 503 c 0,9,10
 400 503 400 503 456.5 474.5 c 128,-1,11
 513 446 513 446 543 394.5 c 128,-1,12
 573 343 573 343 573 274 c 0,13,14
 573 202 573 202 548.5 149 c 128,-1,15
 524 96 524 96 482.5 60 c 128,-1,16
 441 24 441 24 389 6.5 c 128,-1,17
 337 -11 337 -11 282 -11 c 0,0,1
285 120 m 0,18,19
 319 120 319 120 343.5 140.5 c 128,-1,20
 368 161 368 161 381 197 c 128,-1,21
 394 233 394 233 394 279 c 0,22,23
 394 324 394 324 373.5 348 c 128,-1,24
 353 372 353 372 316 372 c 0,25,26
 283 372 283 372 258.5 352 c 128,-1,27
 234 332 234 332 221 296 c 128,-1,28
 208 260 208 260 208 213 c 0,29,30
 208 168 208 168 228.5 144 c 128,-1,31
 249 120 249 120 285 120 c 0,18,19
EndSplineSet
Substitution2: "Single Substitution lookup 29 subtable" ordmasculine
Substitution2: "'aalt' Access All Alternates lookup 0 subtable" ordmasculine
EndChar

StartChar: oslash
Encoding: 248 248 402
Width: 602
GlyphClass: 2
Flags: W
AnchorPoint: "Anchor-5" 301 246 basechar 0
AnchorPoint: "Anchor-0" 339 484 basechar 0
LayerCount: 2
Fore
SplineSet
282 -11 m 0,0,1
 202 -11 202 -11 145.5 17.5 c 128,-1,2
 89 46 89 46 59 98 c 128,-1,3
 29 150 29 150 29 219 c 0,4,5
 29 290 29 290 53.5 343.5 c 128,-1,6
 78 397 78 397 119.5 432.5 c 128,-1,7
 161 468 161 468 213 485.5 c 128,-1,8
 265 503 265 503 320 503 c 0,9,10
 401 503 401 503 457.5 474.5 c 128,-1,11
 514 446 514 446 543.5 394.5 c 128,-1,12
 573 343 573 343 573 274 c 0,13,14
 573 202 573 202 548.5 149 c 128,-1,15
 524 96 524 96 482.5 60 c 128,-1,16
 441 24 441 24 389 6.5 c 128,-1,17
 337 -11 337 -11 282 -11 c 0,0,1
290 108 m 0,18,19
 327 108 327 108 354.5 129 c 128,-1,20
 382 150 382 150 397.5 189 c 128,-1,21
 413 228 413 228 413 282 c 0,22,23
 413 332 413 332 387.5 358 c 128,-1,24
 362 384 362 384 312 384 c 0,25,26
 276 384 276 384 248 363 c 128,-1,27
 220 342 220 342 204.5 303.5 c 128,-1,28
 189 265 189 265 189 210 c 0,29,30
 189 160 189 160 214.5 134 c 128,-1,31
 240 108 240 108 290 108 c 0,18,19
148 -35 m 2,32,33
 134 -53 134 -53 116.5 -54 c 128,-1,34
 99 -55 99 -55 85 -44 c 128,-1,35
 71 -33 71 -33 68 -15 c 128,-1,36
 65 3 65 3 79 22 c 2,37,-1
 456 526 l 2,38,39
 469 544 469 544 486.5 545 c 128,-1,40
 504 546 504 546 517.5 534.5 c 128,-1,41
 531 523 531 523 534.5 505 c 128,-1,42
 538 487 538 487 523 468 c 2,43,-1
 148 -35 l 2,32,33
EndSplineSet
EndChar

StartChar: oe
Encoding: 339 339 408
Width: 921
GlyphClass: 2
Flags: W
AnchorPoint: "Anchor-2" 441 0 basechar 0
AnchorPoint: "Anchor-0" 518 484 basechar 0
LayerCount: 2
Fore
SplineSet
282 -11 m 0,0,1
 201 -11 201 -11 144.5 17.5 c 128,-1,2
 88 46 88 46 58.5 98 c 128,-1,3
 29 150 29 150 29 219 c 0,4,5
 29 290 29 290 53.5 343.5 c 128,-1,6
 78 397 78 397 119.5 432.5 c 128,-1,7
 161 468 161 468 213 485.5 c 128,-1,8
 265 503 265 503 320 503 c 0,9,10
 385 503 385 503 434 480 c 128,-1,11
 483 457 483 457 512 415 c 1,12,-1
 476 415 l 1,13,14
 513 456 513 456 564.5 479.5 c 128,-1,15
 616 503 616 503 677 503 c 0,16,17
 763 503 763 503 814.5 467 c 128,-1,18
 866 431 866 431 885.5 373 c 128,-1,19
 905 315 905 315 894 250 c 0,20,21
 891 225 891 225 880 217.5 c 128,-1,22
 869 210 869 210 851 210 c 2,23,-1
 538 210 l 1,24,-1
 551 294 l 1,25,-1
 771 294 l 1,26,-1
 756 281 l 1,27,28
 761 312 761 312 754 336 c 128,-1,29
 747 360 747 360 728.5 374 c 128,-1,30
 710 388 710 388 676 388 c 0,31,32
 646 388 646 388 625 374 c 128,-1,33
 604 360 604 360 591.5 336.5 c 128,-1,34
 579 313 579 313 574 284 c 2,35,-1
 567 242 l 2,36,37
 557 182 557 182 586 151 c 128,-1,38
 615 120 615 120 676 120 c 0,39,40
 700 120 700 120 727.5 125 c 128,-1,41
 755 130 755 130 778 140 c 0,42,43
 805 150 805 150 823.5 144.5 c 128,-1,44
 842 139 842 139 851 123 c 128,-1,45
 860 107 860 107 858 86.5 c 128,-1,46
 856 66 856 66 844.5 47.5 c 128,-1,47
 833 29 833 29 808 19 c 0,48,49
 773 3 773 3 734 -4 c 128,-1,50
 695 -11 695 -11 660 -11 c 0,51,52
 588 -11 588 -11 533.5 15 c 128,-1,53
 479 41 479 41 447 87 c 1,54,-1
 496 87 l 1,55,56
 456 38 456 38 399.5 13.5 c 128,-1,57
 343 -11 343 -11 282 -11 c 0,0,1
285 120 m 0,58,59
 319 120 319 120 343.5 140.5 c 128,-1,60
 368 161 368 161 381 197 c 128,-1,61
 394 233 394 233 394 279 c 0,62,63
 394 324 394 324 373.5 348 c 128,-1,64
 353 372 353 372 316 372 c 0,65,66
 283 372 283 372 258.5 352 c 128,-1,67
 234 332 234 332 221 296 c 128,-1,68
 208 260 208 260 208 213 c 0,69,70
 208 168 208 168 228.5 144 c 128,-1,71
 249 120 249 120 285 120 c 0,58,59
EndSplineSet
EndChar

StartChar: p
Encoding: 112 112 409
Width: 620
GlyphClass: 2
Flags: W
AnchorPoint: "Anchor-2" 270 0 basechar 0
AnchorPoint: "Anchor-0" 346 484 basechar 0
LayerCount: 2
Fore
SplineSet
72 -189 m 0,0,1
 30 -189 30 -189 11 -162 c 128,-1,2
 -8 -135 -8 -135 -1 -86 c 2,3,-1
 78 413 l 2,4,5
 85 457 85 457 110 479 c 128,-1,6
 135 501 135 501 179 501 c 0,7,8
 221 501 221 501 239.5 473.5 c 128,-1,9
 258 446 258 446 250 397 c 2,10,-1
 245 365 l 1,11,-1
 246 415 l 1,12,13
 274 457 274 457 317 480 c 128,-1,14
 360 503 360 503 411 503 c 0,15,16
 466 503 466 503 507 477 c 128,-1,17
 548 451 548 451 570.5 403 c 128,-1,18
 593 355 593 355 593 289 c 0,19,20
 593 203 593 203 562 135 c 128,-1,21
 531 67 531 67 475 28 c 128,-1,22
 419 -11 419 -11 344 -11 c 0,23,24
 291 -11 291 -11 251 12.5 c 128,-1,25
 211 36 211 36 194 81 c 1,26,-1
 203 80 l 1,27,-1
 174 -102 l 2,28,29
 168 -146 168 -146 142.5 -167.5 c 128,-1,30
 117 -189 117 -189 72 -189 c 0,0,1
306 120 m 0,31,32
 340 120 340 120 364 140.5 c 128,-1,33
 388 161 388 161 401 197 c 128,-1,34
 414 233 414 233 414 279 c 0,35,36
 414 324 414 324 393.5 348 c 128,-1,37
 373 372 373 372 337 372 c 0,38,39
 303 372 303 372 279 351.5 c 128,-1,40
 255 331 255 331 241.5 295 c 128,-1,41
 228 259 228 259 228 213 c 0,42,43
 228 168 228 168 249 144 c 128,-1,44
 270 120 270 120 306 120 c 0,31,32
EndSplineSet
EndChar

StartChar: thorn
Encoding: 254 254 410
Width: 620
GlyphClass: 2
Flags: W
AnchorPoint: "Anchor-2" 275 0 basechar 0
AnchorPoint: "Anchor-0" 351 484 basechar 0
LayerCount: 2
Fore
SplineSet
72 -189 m 0,0,1
 30 -189 30 -189 11 -162 c 128,-1,2
 -8 -135 -8 -135 -1 -86 c 2,3,-1
 112 625 l 2,4,5
 119 670 119 670 145 692 c 128,-1,6
 171 714 171 714 214 714 c 0,7,8
 256 714 256 714 275.5 687 c 128,-1,9
 295 660 295 660 287 611 c 2,10,-1
 249 365 l 1,11,-1
 247 415 l 1,12,13
 275 457 275 457 317.5 480 c 128,-1,14
 360 503 360 503 411 503 c 0,15,16
 466 503 466 503 507 477 c 128,-1,17
 548 451 548 451 570.5 403 c 128,-1,18
 593 355 593 355 593 289 c 0,19,20
 593 203 593 203 562 135 c 128,-1,21
 531 67 531 67 475 28 c 128,-1,22
 419 -11 419 -11 344 -11 c 0,23,24
 291 -11 291 -11 251 12.5 c 128,-1,25
 211 36 211 36 194 81 c 1,26,-1
 203 80 l 1,27,-1
 174 -102 l 2,28,29
 168 -146 168 -146 142.5 -167.5 c 128,-1,30
 117 -189 117 -189 72 -189 c 0,0,1
306 120 m 0,31,32
 340 120 340 120 364 140.5 c 128,-1,33
 388 161 388 161 401 197 c 128,-1,34
 414 233 414 233 414 279 c 0,35,36
 414 324 414 324 393.5 348 c 128,-1,37
 373 372 373 372 337 372 c 0,38,39
 303 372 303 372 279 351.5 c 128,-1,40
 255 331 255 331 241.5 295 c 128,-1,41
 228 259 228 259 228 213 c 0,42,43
 228 168 228 168 249 144 c 128,-1,44
 270 120 270 120 306 120 c 0,31,32
EndSplineSet
EndChar

StartChar: q
Encoding: 113 113 411
Width: 620
GlyphClass: 2
Flags: W
AnchorPoint: "Anchor-2" 274 0 basechar 0
AnchorPoint: "Anchor-0" 351 484 basechar 0
LayerCount: 2
Fore
SplineSet
411 -189 m 0,0,1
 369 -189 369 -189 350 -162 c 128,-1,2
 331 -135 331 -135 338 -86 c 2,3,-1
 364 79 l 1,4,-1
 374 79 l 1,5,6
 346 36 346 36 303 12.5 c 128,-1,7
 260 -11 260 -11 210 -11 c 0,8,9
 154 -11 154 -11 113 15 c 128,-1,10
 72 41 72 41 49.5 89.5 c 128,-1,11
 27 138 27 138 27 203 c 0,12,13
 27 290 27 290 58 358 c 128,-1,14
 89 426 89 426 145.5 464.5 c 128,-1,15
 202 503 202 503 277 503 c 0,16,17
 329 503 329 503 369 479.5 c 128,-1,18
 409 456 409 456 426 411 c 1,19,-1
 416 370 l 1,20,-1
 422 413 l 2,21,22
 429 457 429 457 452.5 479 c 128,-1,23
 476 501 476 501 520 501 c 0,24,25
 561 501 561 501 580.5 474 c 128,-1,26
 600 447 600 447 593 398 c 2,27,-1
 514 -100 l 2,28,29
 507 -145 507 -145 481 -167 c 128,-1,30
 455 -189 455 -189 411 -189 c 0,0,1
284 120 m 0,31,32
 318 120 318 120 342 141 c 128,-1,33
 366 162 366 162 379 197.5 c 128,-1,34
 392 233 392 233 392 279 c 0,35,36
 392 324 392 324 371.5 348 c 128,-1,37
 351 372 351 372 315 372 c 0,38,39
 281 372 281 372 256.5 352 c 128,-1,40
 232 332 232 332 219 296 c 128,-1,41
 206 260 206 260 206 213 c 0,42,43
 206 168 206 168 227 144 c 128,-1,44
 248 120 248 120 284 120 c 0,31,32
EndSplineSet
EndChar

StartChar: r
Encoding: 114 114 412
Width: 434
GlyphClass: 2
Flags: W
AnchorPoint: "Anchor-2" 103 0 basechar 0
AnchorPoint: "Anchor-0" 278 485 basechar 0
LayerCount: 2
Fore
SplineSet
101 -9 m 0,0,1
 59 -9 59 -9 39.5 17 c 128,-1,2
 20 43 20 43 27 90 c 2,3,-1
 78 417 l 2,4,5
 85 459 85 459 110.5 480 c 128,-1,6
 136 501 136 501 178 501 c 256,7,8
 220 501 220 501 239 475.5 c 128,-1,9
 258 450 258 450 250 402 c 2,10,-1
 245 371 l 1,11,-1
 236 371 l 1,12,13
 254 430 254 430 298.5 465.5 c 128,-1,14
 343 501 343 501 401 503 c 0,15,16
 433 504 433 504 447 490.5 c 128,-1,17
 461 477 461 477 461 445 c 0,18,19
 461 398 461 398 439.5 375.5 c 128,-1,20
 418 353 418 353 374 349 c 2,21,-1
 337 345 l 2,22,23
 285 340 285 340 262.5 315 c 128,-1,24
 240 290 240 290 231 237 c 2,25,-1
 206 76 l 2,26,27
 199 33 199 33 173 12 c 128,-1,28
 147 -9 147 -9 101 -9 c 0,0,1
EndSplineSet
EndChar

StartChar: s
Encoding: 115 115 420
Width: 496
GlyphClass: 2
Flags: W
AnchorPoint: "Anchor-2" 224 0 basechar 0
AnchorPoint: "Anchor-0" 281 484 basechar 0
LayerCount: 2
Fore
SplineSet
229 -11 m 0,0,1
 183 -11 183 -11 139 -3 c 128,-1,2
 95 5 95 5 63 17 c 0,3,4
 36 27 36 27 24.5 45 c 128,-1,5
 13 63 13 63 14 83 c 128,-1,6
 15 103 15 103 26 118 c 128,-1,7
 37 133 37 133 56.5 139.5 c 128,-1,8
 76 146 76 146 101 136 c 0,9,10
 132 123 132 123 165 116 c 128,-1,11
 198 109 198 109 228 109 c 0,12,13
 267 109 267 109 285 121 c 128,-1,14
 303 133 303 133 303 151 c 0,15,16
 303 165 303 165 293.5 172.5 c 128,-1,17
 284 180 284 180 262 183 c 2,18,-1
 173 198 l 2,19,20
 111 208 111 208 77.5 242.5 c 128,-1,21
 44 277 44 277 44 328 c 0,22,23
 44 374 44 374 71.5 414 c 128,-1,24
 99 454 99 454 153.5 478.5 c 128,-1,25
 208 503 208 503 290 503 c 0,26,27
 320 503 320 503 356.5 497 c 128,-1,28
 393 491 393 491 423 478 c 0,29,30
 450 468 450 468 461.5 450.5 c 128,-1,31
 473 433 473 433 471.5 414 c 128,-1,32
 470 395 470 395 459 380.5 c 128,-1,33
 448 366 448 366 428 360 c 128,-1,34
 408 354 408 354 383 363 c 0,35,36
 360 373 360 373 332.5 378.5 c 128,-1,37
 305 384 305 384 280 384 c 0,38,39
 239 384 239 384 220 371.5 c 128,-1,40
 201 359 201 359 201 339 c 0,41,42
 201 328 201 328 208.5 320 c 128,-1,43
 216 312 216 312 234 309 c 2,44,-1
 323 295 l 2,45,46
 392 283 392 283 426 249 c 128,-1,47
 460 215 460 215 460 164 c 0,48,49
 460 78 460 78 397 33.5 c 128,-1,50
 334 -11 334 -11 229 -11 c 0,0,1
EndSplineSet
EndChar

StartChar: germandbls
Encoding: 223 223 431
Width: 700
GlyphClass: 1
Flags: W
LayerCount: 2
Fore
SplineSet
450 -11 m 0,0,1
 408 -11 408 -11 367.5 -2 c 128,-1,2
 327 7 327 7 294 22 c 0,3,4
 270 33 270 33 260.5 52 c 128,-1,5
 251 71 251 71 253.5 91.5 c 128,-1,6
 256 112 256 112 268 127.5 c 128,-1,7
 280 143 280 143 299.5 149 c 128,-1,8
 319 155 319 155 341 144 c 0,9,10
 372 130 372 130 402 123.5 c 128,-1,11
 432 117 432 117 457 117 c 256,12,13
 482 117 482 117 496.5 125 c 128,-1,14
 511 133 511 133 511 152 c 0,15,16
 511 166 511 166 495.5 177.5 c 128,-1,17
 480 189 480 189 438 203 c 0,18,19
 376 225 376 225 348.5 256 c 128,-1,20
 321 287 321 287 321 327 c 0,21,22
 321 358 321 358 330.5 383 c 128,-1,23
 340 408 340 408 359 431.5 c 128,-1,24
 378 455 378 455 406 479 c 0,25,26
 425 496 425 496 436 512 c 128,-1,27
 447 528 447 528 447 549 c 0,28,29
 447 565 447 565 435.5 578.5 c 128,-1,30
 424 592 424 592 395 592 c 0,31,32
 338 592 338 592 306.5 563 c 128,-1,33
 275 534 275 534 265 468 c 2,34,-1
 202 73 l 2,35,36
 196 32 196 32 171.5 11.5 c 128,-1,37
 147 -9 147 -9 106 -9 c 0,38,39
 62 -9 62 -9 41 16 c 128,-1,40
 20 41 20 41 27 88 c 2,41,-1
 82 439 l 2,42,43
 104 579 104 579 178.5 647.5 c 128,-1,44
 253 716 253 716 400 716 c 0,45,46
 466 716 466 716 513.5 696 c 128,-1,47
 561 676 561 676 586.5 643 c 128,-1,48
 612 610 612 610 612 570 c 256,49,50
 612 530 612 530 595 499.5 c 128,-1,51
 578 469 578 469 543 437 c 0,52,53
 518 413 518 413 504.5 399.5 c 128,-1,54
 491 386 491 386 486 377.5 c 128,-1,55
 481 369 481 369 481 360 c 0,56,57
 481 345 481 345 497.5 333.5 c 128,-1,58
 514 322 514 322 551 309 c 0,59,60
 610 289 610 289 640.5 256 c 128,-1,61
 671 223 671 223 671 168 c 0,62,63
 671 109 671 109 642 69 c 128,-1,64
 613 29 613 29 563.5 9 c 128,-1,65
 514 -11 514 -11 450 -11 c 0,0,1
EndSplineSet
Substitution2: "Single Substitution lookup 39 subtable" germandbls.calt
Substitution2: "Single Substitution lookup 38 subtable" germandbls.calt
Substitution2: "'aalt' Access All Alternates lookup 0 subtable" germandbls.calt
EndChar

StartChar: t
Encoding: 116 116 432
Width: 426
GlyphClass: 2
Flags: W
AnchorPoint: "Anchor-5" 199 253 basechar 0
AnchorPoint: "Anchor-2" 218 0 basechar 0
AnchorPoint: "Anchor-1" 381 705 basechar 0
AnchorPoint: "Anchor-0" 240 635 basechar 0
LayerCount: 2
Fore
SplineSet
282 -11 m 0,0,1
 206 -11 206 -11 158 16 c 128,-1,2
 110 43 110 43 91.5 91 c 128,-1,3
 73 139 73 139 82 201 c 2,4,-1
 108 361 l 1,5,-1
 86 361 l 2,6,7
 53 361 53 361 34.5 375.5 c 128,-1,8
 16 390 16 390 16 417 c 0,9,10
 16 453 16 453 39.5 472.5 c 128,-1,11
 63 492 63 492 104 492 c 2,12,-1
 129 492 l 1,13,-1
 140 562 l 2,14,15
 147 603 147 603 171 623.5 c 128,-1,16
 195 644 195 644 236 644 c 0,17,18
 282 644 282 644 302 619 c 128,-1,19
 322 594 322 594 315 547 c 2,20,-1
 307 492 l 1,21,-1
 379 492 l 2,22,23
 412 492 412 492 431 478.5 c 128,-1,24
 450 465 450 465 450 437 c 0,25,26
 450 405 450 405 428.5 383 c 128,-1,27
 407 361 407 361 370 361 c 2,28,-1
 286 361 l 1,29,-1
 261 208 l 2,30,31
 255 167 255 167 271.5 149.5 c 128,-1,32
 288 132 288 132 318 132 c 0,33,34
 333 132 333 132 343 134.5 c 128,-1,35
 353 137 353 137 365 137 c 0,36,37
 384 137 384 137 392.5 127 c 128,-1,38
 401 117 401 117 401 88 c 0,39,40
 401 39 401 39 384 20 c 128,-1,41
 367 1 367 1 341 -5 c 0,42,43
 327 -8 327 -8 311.5 -9.5 c 128,-1,44
 296 -11 296 -11 282 -11 c 0,0,1
EndSplineSet
EndChar

StartChar: u
Encoding: 117 117 440
Width: 601
GlyphClass: 2
Flags: W
AnchorPoint: "Anchor-3" 451 0 basechar 0
AnchorPoint: "Anchor-2" 261 0 basechar 0
AnchorPoint: "Anchor-1" 456 484 basechar 0
AnchorPoint: "Anchor-0" 336 484 basechar 0
LayerCount: 2
Fore
SplineSet
189 -11 m 0,0,1
 137 -11 137 -11 99.5 11 c 128,-1,2
 62 33 62 33 46.5 80 c 128,-1,3
 31 127 31 127 42 201 c 2,4,-1
 77 419 l 2,5,6
 84 461 84 461 108 481 c 128,-1,7
 132 501 132 501 173 501 c 0,8,9
 219 501 219 501 239.5 476 c 128,-1,10
 260 451 260 451 253 404 c 2,11,-1
 221 204 l 2,12,13
 216 165 216 165 227 145 c 128,-1,14
 238 125 238 125 270 125 c 0,15,16
 309 125 309 125 335 153 c 128,-1,17
 361 181 361 181 369 231 c 2,18,-1
 399 419 l 2,19,20
 406 461 406 461 430 481 c 128,-1,21
 454 501 454 501 495 501 c 0,22,23
 540 501 540 501 560.5 476 c 128,-1,24
 581 451 581 451 574 404 c 2,25,-1
 522 73 l 2,26,27
 509 -9 509 -9 426 -9 c 0,28,29
 384 -9 384 -9 365 12.5 c 128,-1,30
 346 34 346 34 353 81 c 2,31,-1
 361 135 l 1,32,-1
 360 91 l 1,33,34
 333 39 333 39 288.5 14 c 128,-1,35
 244 -11 244 -11 189 -11 c 0,0,1
EndSplineSet
EndChar

StartChar: uhorn
Encoding: 432 432 450
Width: 601
GlyphClass: 2
Flags: W
AnchorPoint: "Anchor-2" 261 0 basechar 0
AnchorPoint: "Anchor-0" 336 484 basechar 0
LayerCount: 2
Fore
SplineSet
189 -11 m 0,0,1
 137 -11 137 -11 99.5 11 c 128,-1,2
 62 33 62 33 46.5 80 c 128,-1,3
 31 127 31 127 42 201 c 2,4,-1
 77 419 l 2,5,6
 84 460 84 460 108 480.5 c 128,-1,7
 132 501 132 501 173 501 c 0,8,9
 219 501 219 501 239.5 476 c 128,-1,10
 260 451 260 451 253 404 c 2,11,-1
 221 204 l 2,12,13
 216 165 216 165 227 145 c 128,-1,14
 238 125 238 125 270 125 c 0,15,16
 309 125 309 125 335 153 c 128,-1,17
 361 181 361 181 369 231 c 2,18,-1
 399 417 l 2,19,20
 405 459 405 459 427.5 476 c 128,-1,21
 450 493 450 493 481 496 c 0,22,23
 501 498 501 498 514 506.5 c 128,-1,24
 527 515 527 515 535 531.5 c 128,-1,25
 543 548 543 548 548 572 c 0,26,27
 557 625 557 625 632 625 c 0,28,29
 669 625 669 625 687.5 610.5 c 128,-1,30
 706 596 706 596 702 569 c 0,31,32
 694 514 694 514 661 471.5 c 128,-1,33
 628 429 628 429 576 415 c 1,34,-1
 522 73 l 2,35,36
 509 -9 509 -9 426 -9 c 0,37,38
 384 -9 384 -9 365 12.5 c 128,-1,39
 346 34 346 34 353 81 c 2,40,-1
 361 135 l 1,41,-1
 360 91 l 1,42,43
 333 39 333 39 288.5 14 c 128,-1,44
 244 -11 244 -11 189 -11 c 0,0,1
EndSplineSet
EndChar

StartChar: uogonek
Encoding: 371 371 460
Width: 601
GlyphClass: 1
Flags: W
LayerCount: 2
Fore
SplineSet
361 135 m 1,0,-1
 360 91 l 1,1,2
 333 39 333 39 288.5 14 c 128,-1,3
 244 -11 244 -11 189 -11 c 0,4,5
 137 -11 137 -11 99.5 11 c 128,-1,6
 62 33 62 33 46.5 80 c 128,-1,7
 31 127 31 127 42 201 c 2,8,-1
 77 419 l 2,9,10
 84 460 84 460 108 480.5 c 128,-1,11
 132 501 132 501 173 501 c 0,12,13
 219 501 219 501 239.5 476 c 128,-1,14
 260 451 260 451 253 404 c 2,15,-1
 221 204 l 2,16,17
 216 165 216 165 227 145 c 128,-1,18
 238 125 238 125 270 125 c 0,19,20
 309 125 309 125 335 153 c 128,-1,21
 361 181 361 181 369 231 c 2,22,-1
 399 419 l 2,23,24
 406 460 406 460 430 480.5 c 128,-1,25
 454 501 454 501 495 501 c 0,26,27
 540 501 540 501 560.5 475.5 c 128,-1,28
 581 450 581 450 574 404 c 2,29,-1
 523 78 l 2,30,31
 517 39 517 39 500 20 c 128,-1,32
 483 1 483 1 449 -7 c 0,33,34
 419 -15 419 -15 405.5 -33 c 128,-1,35
 392 -51 392 -51 392 -71 c 0,36,37
 392 -88 392 -88 406 -99.5 c 128,-1,38
 420 -111 420 -111 441 -111 c 0,39,40
 447 -111 447 -111 454 -110 c 128,-1,41
 461 -109 461 -109 472 -107 c 0,42,43
 493 -102 493 -102 504 -111.5 c 128,-1,44
 515 -121 515 -121 516.5 -137 c 128,-1,45
 518 -153 518 -153 510 -167.5 c 128,-1,46
 502 -182 502 -182 485 -187 c 0,47,48
 469 -192 469 -192 449 -195 c 128,-1,49
 429 -198 429 -198 411 -198 c 0,50,51
 349 -198 349 -198 318.5 -171 c 128,-1,52
 288 -144 288 -144 288 -100 c 0,53,54
 288 -59 288 -59 310 -25 c 128,-1,55
 332 9 332 9 371 31 c 1,56,-1
 363 16 l 1,57,58
 354 28 354 28 351.5 45 c 128,-1,59
 349 62 349 62 353 86 c 2,60,-1
 361 135 l 1,0,-1
EndSplineSet
EndChar

StartChar: v
Encoding: 118 118 464
Width: 541
GlyphClass: 2
Flags: W
AnchorPoint: "Anchor-2" 234 0 basechar 0
AnchorPoint: "Anchor-0" 310 484 basechar 0
LayerCount: 2
Fore
SplineSet
239 -9 m 0,0,1
 197 -9 197 -9 173 10.5 c 128,-1,2
 149 30 149 30 137 69 c 2,3,-1
 50 383 l 2,4,5
 40 418 40 418 47.5 444.5 c 128,-1,6
 55 471 55 471 76 486 c 128,-1,7
 97 501 97 501 129 501 c 0,8,9
 165 501 165 501 184.5 484 c 128,-1,10
 204 467 204 467 213 422 c 2,11,-1
 271 170 l 1,12,-1
 237 170 l 1,13,-1
 389 439 l 2,14,15
 408 474 408 474 429.5 487.5 c 128,-1,16
 451 501 451 501 485 501 c 256,17,18
 519 501 519 501 537.5 486.5 c 128,-1,19
 556 472 556 472 558 448.5 c 128,-1,20
 560 425 560 425 543 397 c 2,21,-1
 336 53 l 2,22,23
 316 20 316 20 292 5.5 c 128,-1,24
 268 -9 268 -9 239 -9 c 0,0,1
EndSplineSet
EndChar

StartChar: w
Encoding: 119 119 465
Width: 868
GlyphClass: 2
Flags: W
AnchorPoint: "Anchor-2" 393 0 basechar 0
AnchorPoint: "Anchor-0" 458 484 basechar 0
LayerCount: 2
Fore
SplineSet
227 -9 m 0,0,1
 193 -9 193 -9 169.5 9.5 c 128,-1,2
 146 28 146 28 136 69 c 2,3,-1
 54 383 l 2,4,5
 45 418 45 418 52 444.5 c 128,-1,6
 59 471 59 471 80.5 486 c 128,-1,7
 102 501 102 501 132 501 c 0,8,9
 165 501 165 501 182.5 484.5 c 128,-1,10
 200 468 200 468 210 425 c 2,11,-1
 265 178 l 1,12,-1
 241 178 l 1,13,-1
 389 454 l 2,14,15
 402 479 402 479 420 490 c 128,-1,16
 438 501 438 501 465 501 c 0,17,18
 493 501 493 501 509.5 487 c 128,-1,19
 526 473 526 473 532 443 c 2,20,-1
 589 178 l 1,21,-1
 572 178 l 1,22,-1
 710 434 l 2,23,24
 730 472 730 472 751.5 486.5 c 128,-1,25
 773 501 773 501 808 501 c 0,26,27
 841 501 841 501 859.5 487 c 128,-1,28
 878 473 878 473 879.5 449 c 128,-1,29
 881 425 881 425 865 397 c 2,30,-1
 668 53 l 2,31,32
 650 21 650 21 625 6 c 128,-1,33
 600 -9 600 -9 565 -9 c 256,34,35
 530 -9 530 -9 506.5 10.5 c 128,-1,36
 483 30 483 30 473 69 c 2,37,-1
 408 335 l 1,38,-1
 481 335 l 1,39,-1
 331 56 l 2,40,41
 312 22 312 22 287.5 6.5 c 128,-1,42
 263 -9 263 -9 227 -9 c 0,0,1
EndSplineSet
EndChar

StartChar: x
Encoding: 120 120 470
Width: 572
GlyphClass: 2
Flags: W
AnchorPoint: "Anchor-2" 245 0 basechar 0
AnchorPoint: "Anchor-0" 321 484 basechar 0
LayerCount: 2
Fore
SplineSet
92 -9 m 0,0,1
 56 -9 56 -9 36 9.5 c 128,-1,2
 16 28 16 28 17.5 55.5 c 128,-1,3
 19 83 19 83 44 109 c 2,4,-1
 214 285 l 1,5,-1
 213 214 l 1,6,-1
 101 385 l 2,7,8
 82 414 82 414 85.5 440.5 c 128,-1,9
 89 467 89 467 110 484 c 128,-1,10
 131 501 131 501 163 501 c 0,11,12
 196 501 196 501 217.5 488 c 128,-1,13
 239 475 239 475 257 447 c 2,14,-1
 325 335 l 1,15,-1
 276 335 l 1,16,-1
 381 455 l 2,17,18
 403 480 403 480 422.5 490.5 c 128,-1,19
 442 501 442 501 473 501 c 0,20,21
 509 501 509 501 528 483 c 128,-1,22
 547 465 547 465 546 438 c 128,-1,23
 545 411 545 411 520 384 c 2,24,-1
 360 214 l 1,25,-1
 361 293 l 1,26,-1
 486 109 l 2,27,28
 506 80 506 80 501.5 53 c 128,-1,29
 497 26 497 26 476 8.5 c 128,-1,30
 455 -9 455 -9 422 -9 c 0,31,32
 395 -9 395 -9 371 4.5 c 128,-1,33
 347 18 347 18 330 45 c 2,34,-1
 250 170 l 1,35,-1
 308 169 l 1,36,-1
 183 37 l 2,37,38
 160 13 160 13 141 2 c 128,-1,39
 122 -9 122 -9 92 -9 c 0,0,1
EndSplineSet
EndChar

StartChar: y
Encoding: 121 121 471
Width: 541
GlyphClass: 2
Flags: W
AnchorPoint: "Anchor-2" 398 0 basechar 0
AnchorPoint: "Anchor-0" 292 484 basechar 0
LayerCount: 2
Fore
SplineSet
130 -189 m 0,0,1
 97 -189 97 -189 78.5 -174.5 c 128,-1,2
 60 -160 60 -160 58.5 -136 c 128,-1,3
 57 -112 57 -112 73 -85 c 2,4,-1
 168 69 l 1,5,-1
 158 -3 l 1,6,-1
 50 383 l 2,7,8
 40 418 40 418 47.5 444.5 c 128,-1,9
 55 471 55 471 76 486 c 128,-1,10
 97 501 97 501 129 501 c 0,11,12
 165 501 165 501 184 484 c 128,-1,13
 203 467 203 467 213 422 c 2,14,-1
 271 170 l 1,15,-1
 237 170 l 1,16,-1
 389 439 l 2,17,18
 408 473 408 473 429.5 487 c 128,-1,19
 451 501 451 501 485 501 c 0,20,21
 518 501 518 501 537 486.5 c 128,-1,22
 556 472 556 472 558 448.5 c 128,-1,23
 560 425 560 425 543 397 c 2,24,-1
 227 -126 l 2,25,26
 207 -160 207 -160 186 -174.5 c 128,-1,27
 165 -189 165 -189 130 -189 c 0,0,1
EndSplineSet
EndChar

StartChar: uni01B4
Encoding: 436 436 478
Width: 595
GlyphClass: 1
Flags: W
LayerCount: 2
Fore
SplineSet
130 -189 m 0,0,1
 97 -189 97 -189 78.5 -174.5 c 128,-1,2
 60 -160 60 -160 58.5 -136 c 128,-1,3
 57 -112 57 -112 73 -85 c 2,4,-1
 168 69 l 1,5,-1
 158 -3 l 1,6,-1
 50 383 l 2,7,8
 40 418 40 418 47.5 444.5 c 128,-1,9
 55 471 55 471 76 486 c 128,-1,10
 97 501 97 501 129 501 c 0,11,12
 165 501 165 501 184 484 c 128,-1,13
 203 467 203 467 213 422 c 2,14,-1
 271 170 l 1,15,-1
 237 170 l 1,16,-1
 345 364 l 2,17,18
 375 417 375 417 405 447.5 c 128,-1,19
 435 478 435 478 473.5 490.5 c 128,-1,20
 512 503 512 503 566 503 c 0,21,22
 623 503 623 503 643.5 487 c 128,-1,23
 664 471 664 471 664 440 c 0,24,25
 664 412 664 412 652.5 388.5 c 128,-1,26
 641 365 641 365 622 365 c 0,27,28
 618 365 618 365 605 366 c 128,-1,29
 592 367 592 367 579 367 c 0,30,31
 555 367 555 367 531.5 353 c 128,-1,32
 508 339 508 339 486 303 c 2,33,-1
 227 -126 l 2,34,35
 207 -160 207 -160 186 -174.5 c 128,-1,36
 165 -189 165 -189 130 -189 c 0,0,1
EndSplineSet
EndChar

StartChar: z
Encoding: 122 122 482
Width: 487
GlyphClass: 2
Flags: W
AnchorPoint: "Anchor-2" 216 0 basechar 0
AnchorPoint: "Anchor-0" 283 484 basechar 0
LayerCount: 2
Fore
SplineSet
86 0 m 2,0,1
 56 0 56 0 37 12 c 128,-1,2
 18 24 18 24 11 44 c 128,-1,3
 4 64 4 64 11 87.5 c 128,-1,4
 18 111 18 111 40 132 c 2,5,-1
 310 401 l 1,6,-1
 315 361 l 1,7,-1
 130 361 l 2,8,9
 97 361 97 361 79 375 c 128,-1,10
 61 389 61 389 61 414 c 0,11,12
 61 450 61 450 82 471 c 128,-1,13
 103 492 103 492 139 492 c 2,14,-1
 410 492 l 2,15,16
 441 492 441 492 459.5 480 c 128,-1,17
 478 468 478 468 484.5 447.5 c 128,-1,18
 491 427 491 427 483.5 403 c 128,-1,19
 476 379 476 379 452 356 c 2,20,-1
 180 85 l 1,21,-1
 175 131 l 1,22,-1
 376 131 l 2,23,24
 446 131 446 131 446 77 c 0,25,26
 446 42 446 42 424.5 21 c 128,-1,27
 403 0 403 0 368 0 c 2,28,-1
 86 0 l 2,0,1
EndSplineSet
EndChar

StartChar: germandbls.calt
Encoding: 65540 -1 487
Width: 752
GlyphClass: 1
Flags: W
LayerCount: 2
Fore
SplineSet
450 -11 m 0,0,1
 412 -11 412 -11 379.5 -4.5 c 128,-1,2
 347 2 347 2 314 17 c 0,3,4
 289 28 289 28 279 47 c 128,-1,5
 269 66 269 66 271 87 c 128,-1,6
 273 108 273 108 284.5 125.5 c 128,-1,7
 296 143 296 143 315.5 150.5 c 128,-1,8
 335 158 335 158 359 149 c 0,9,10
 384 139 384 139 404 135.5 c 128,-1,11
 424 132 424 132 443 132 c 0,12,13
 482 132 482 132 504.5 155 c 128,-1,14
 527 178 527 178 527 212 c 0,15,16
 527 241 527 241 504.5 262 c 128,-1,17
 482 283 482 283 427 283 c 2,18,-1
 399 283 l 2,19,20
 376 283 376 283 359.5 297 c 128,-1,21
 343 311 343 311 343 336 c 0,22,23
 343 375 343 375 359.5 398.5 c 128,-1,24
 376 422 376 422 413 422 c 2,25,-1
 438 422 l 2,26,27
 488 422 488 422 512 440.5 c 128,-1,28
 536 459 536 459 536 502 c 0,29,30
 536 530 536 530 508.5 550 c 128,-1,31
 481 570 481 570 427 570 c 0,32,33
 356 570 356 570 322.5 537.5 c 128,-1,34
 289 505 289 505 278 437 c 2,35,-1
 221 77 l 2,36,37
 215 34 215 34 189.5 12.5 c 128,-1,38
 164 -9 164 -9 121 -9 c 0,39,40
 75 -9 75 -9 53.5 17.5 c 128,-1,41
 32 44 32 44 40 91 c 2,42,-1
 97 454 l 2,43,44
 113 552 113 552 157.5 609.5 c 128,-1,45
 202 667 202 667 274 691.5 c 128,-1,46
 346 716 346 716 443 716 c 0,47,48
 531 716 531 716 590.5 690 c 128,-1,49
 650 664 650 664 680 621.5 c 128,-1,50
 710 579 710 579 710 530 c 0,51,52
 710 468 710 468 669 418.5 c 128,-1,53
 628 369 628 369 558 352 c 1,54,-1
 558 369 l 1,55,56
 605 360 605 360 637 334.5 c 128,-1,57
 669 309 669 309 685.5 272.5 c 128,-1,58
 702 236 702 236 702 195 c 0,59,60
 702 141 702 141 673 94 c 128,-1,61
 644 47 644 47 588 18 c 128,-1,62
 532 -11 532 -11 450 -11 c 0,0,1
EndSplineSet
EndChar

StartChar: a.ss01
Encoding: 65542 -1 489
Width: 620
GlyphClass: 2
Flags: W
AnchorPoint: "Anchor-3" 471 0 basechar 0
AnchorPoint: "Anchor-2" 277 0 basechar 0
AnchorPoint: "Anchor-0" 337 484 basechar 0
LayerCount: 2
Fore
SplineSet
210 -11 m 0,0,1
 154 -11 154 -11 113 15 c 128,-1,2
 72 41 72 41 49.5 89.5 c 128,-1,3
 27 138 27 138 27 203 c 0,4,5
 27 290 27 290 58 358 c 128,-1,6
 89 426 89 426 145.5 464.5 c 128,-1,7
 202 503 202 503 276 503 c 0,8,9
 329 503 329 503 369.5 479 c 128,-1,10
 410 455 410 455 427 410 c 1,11,-1
 414 373 l 1,12,-1
 420 413 l 2,13,14
 427 456 427 456 453.5 478.5 c 128,-1,15
 480 501 480 501 522 501 c 0,16,17
 563 501 563 501 582 474 c 128,-1,18
 601 447 601 447 593 398 c 2,19,-1
 543 79 l 2,20,21
 536 35 536 35 510.5 13 c 128,-1,22
 485 -9 485 -9 441 -9 c 0,23,24
 400 -9 400 -9 380.5 19 c 128,-1,25
 361 47 361 47 369 95 c 2,26,-1
 375 127 l 1,27,-1
 373 78 l 1,28,29
 346 36 346 36 303 12.5 c 128,-1,30
 260 -11 260 -11 210 -11 c 0,0,1
284 120 m 0,31,32
 318 120 318 120 342 140.5 c 128,-1,33
 366 161 366 161 379 197 c 128,-1,34
 392 233 392 233 392 279 c 0,35,36
 392 324 392 324 371.5 348 c 128,-1,37
 351 372 351 372 315 372 c 0,38,39
 281 372 281 372 256.5 352 c 128,-1,40
 232 332 232 332 219 296 c 128,-1,41
 206 260 206 260 206 213 c 0,42,43
 206 168 206 168 227 144 c 128,-1,44
 248 120 248 120 284 120 c 0,31,32
EndSplineSet
EndChar

StartChar: l.ss02
Encoding: 65569 -1 516
Width: 281
GlyphClass: 2
Flags: W
AnchorPoint: "Anchor-5" 158 357 basechar 0
AnchorPoint: "Anchor-2" 101 0 basechar 0
AnchorPoint: "Anchor-1" 336 705 basechar 0
AnchorPoint: "Anchor-0" 213 705 basechar 0
LayerCount: 2
Fore
SplineSet
100 -9 m 0,0,1
 58 -9 58 -9 39 18 c 128,-1,2
 20 45 20 45 27 94 c 2,3,-1
 111 626 l 2,4,5
 118 670 118 670 143.5 692 c 128,-1,6
 169 714 169 714 214 714 c 0,7,8
 256 714 256 714 275 687 c 128,-1,9
 294 660 294 660 287 611 c 2,10,-1
 202 78 l 2,11,12
 188 -9 188 -9 100 -9 c 0,0,1
EndSplineSet
EndChar

StartChar: fi
Encoding: 64257 64257 525
Width: 674
GlyphClass: 3
LigCaretCntFixed: 1
Flags: W
LayerCount: 2
Fore
SplineSet
143 -9 m 0,0,1
 101 -9 101 -9 81.5 18.5 c 128,-1,2
 62 46 62 46 70 94 c 2,3,-1
 113 361 l 1,4,-1
 92 361 l 2,5,6
 59 361 59 361 41 375 c 128,-1,7
 23 389 23 389 23 414 c 0,8,9
 23 450 23 450 44.5 471 c 128,-1,10
 66 492 66 492 102 492 c 2,11,-1
 150 492 l 1,12,-1
 131 477 l 1,13,-1
 134 500 l 2,14,15
 147 590 147 590 207 644.5 c 128,-1,16
 267 699 267 699 387 706 c 2,17,-1
 411 707 l 2,18,19
 438 708 438 708 453 696 c 128,-1,20
 468 684 468 684 473 666 c 128,-1,21
 478 648 478 648 473 629 c 128,-1,22
 468 610 468 610 455 596.5 c 128,-1,23
 442 583 442 583 422 581 c 2,24,-1
 397 579 l 2,25,26
 358 576 358 576 338 557.5 c 128,-1,27
 318 539 318 539 313 506 c 2,28,-1
 309 480 l 1,29,-1
 297 492 l 1,30,-1
 572 492 l 2,31,32
 614 492 614 492 634 470.5 c 128,-1,33
 654 449 654 449 647 405 c 2,34,-1
 595 79 l 2,35,36
 589 35 589 35 563.5 13 c 128,-1,37
 538 -9 538 -9 493 -9 c 0,38,39
 451 -9 451 -9 431.5 18.5 c 128,-1,40
 412 46 412 46 420 94 c 2,41,-1
 463 361 l 1,42,-1
 290 361 l 1,43,-1
 245 79 l 2,44,45
 231 -9 231 -9 143 -9 c 0,0,1
590 572 m 0,46,47
 546 572 546 572 524.5 594 c 128,-1,48
 503 616 503 616 509 656 c 0,49,50
 515 699 515 699 542.5 721 c 128,-1,51
 570 743 570 743 617 743 c 0,52,53
 661 743 661 743 683.5 721 c 128,-1,54
 706 699 706 699 699 659 c 0,55,56
 693 616 693 616 665.5 594 c 128,-1,57
 638 572 638 572 590 572 c 0,46,47
EndSplineSet
Ligature2: "'liga' Standard Ligatures lookup 33 subtable" f i
LCarets2: 1 337
EndChar

StartChar: ordfeminine
Encoding: 170 170 529
Width: 354
GlyphClass: 1
Flags: W
LayerCount: 2
Fore
SplineSet
161 404 m 0,0,1
 116 404 116 404 86 433 c 128,-1,2
 56 462 56 462 56 499 c 0,3,4
 56 546 56 546 103.5 569 c 128,-1,5
 151 592 151 592 237 592 c 2,6,-1
 288 592 l 1,7,-1
 280 537 l 1,8,-1
 237 537 l 2,9,10
 204 537 204 537 185 530 c 128,-1,11
 166 523 166 523 166 506 c 0,12,13
 166 493 166 493 175.5 484 c 128,-1,14
 185 475 185 475 202 475 c 256,15,16
 219 475 219 475 232 482 c 128,-1,17
 245 489 245 489 253.5 500 c 128,-1,18
 262 511 262 511 264 526 c 2,19,-1
 275 594 l 2,20,21
 279 615 279 615 268 625.5 c 128,-1,22
 257 636 257 636 230 636 c 0,23,24
 215 636 215 636 195 634 c 128,-1,25
 175 632 175 632 158 626 c 0,26,27
 137 621 137 621 123 629 c 128,-1,28
 109 637 109 637 105.5 651.5 c 128,-1,29
 102 666 102 666 110.5 680.5 c 128,-1,30
 119 695 119 695 140 702 c 256,31,32
 161 709 161 709 187.5 712.5 c 128,-1,33
 214 716 214 716 242 716 c 0,34,35
 299 716 299 716 331.5 695.5 c 128,-1,36
 364 675 364 675 375.5 641.5 c 128,-1,37
 387 608 387 608 380 568 c 2,38,-1
 361 452 l 2,39,40
 353 404 353 404 307 404 c 0,41,42
 278 404 278 404 266.5 419.5 c 128,-1,43
 255 435 255 435 259 455 c 2,44,-1
 261 467 l 1,45,-1
 258 467 l 1,46,47
 239 435 239 435 215 419.5 c 128,-1,48
 191 404 191 404 161 404 c 0,0,1
EndSplineSet
EndChar

StartChar: ordmasculine
Encoding: 186 186 530
Width: 370
GlyphClass: 1
Flags: W
LayerCount: 2
Fore
SplineSet
230 407 m 0,0,1
 182 407 182 407 145 425 c 128,-1,2
 108 443 108 443 87 475.5 c 128,-1,3
 66 508 66 508 66 553 c 0,4,5
 66 603 66 603 89.5 640 c 128,-1,6
 113 677 113 677 152 696.5 c 128,-1,7
 191 716 191 716 240 716 c 0,8,9
 287 716 287 716 324.5 698.5 c 128,-1,10
 362 681 362 681 383.5 648.5 c 128,-1,11
 405 616 405 616 405 571 c 0,12,13
 405 521 405 521 381.5 483.5 c 128,-1,14
 358 446 358 446 318.5 426.5 c 128,-1,15
 279 407 279 407 230 407 c 0,0,1
231 490 m 0,16,17
 258 490 258 490 275 510.5 c 128,-1,18
 292 531 292 531 292 572 c 0,19,20
 292 602 292 602 277.5 618 c 128,-1,21
 263 634 263 634 239 634 c 0,22,23
 213 634 213 634 196 614.5 c 128,-1,24
 179 595 179 595 179 552 c 0,25,26
 179 521 179 521 193.5 505.5 c 128,-1,27
 208 490 208 490 231 490 c 0,16,17
EndSplineSet
EndChar

StartChar: uni0411
Encoding: 1041 1041 532
Width: 688
GlyphClass: 1
Flags: W
LayerCount: 2
Fore
SplineSet
129 0 m 2,0,1
 81 0 81 0 57.5 27 c 128,-1,2
 34 54 34 54 42 102 c 2,3,-1
 123 617 l 2,4,5
 130 661 130 661 156 683 c 128,-1,6
 182 705 182 705 226 705 c 2,7,-1
 583 705 l 2,8,9
 619 705 619 705 638 690 c 128,-1,10
 657 675 657 675 657 647 c 0,11,12
 657 610 657 610 635 586.5 c 128,-1,13
 613 563 613 563 574 563 c 2,14,-1
 291 563 l 1,15,-1
 269 431 l 1,16,-1
 404 431 l 2,17,18
 532 431 532 431 595 377.5 c 128,-1,19
 658 324 658 324 658 240 c 0,20,21
 658 126 658 126 584.5 63 c 128,-1,22
 511 0 511 0 368 0 c 2,23,-1
 129 0 l 2,0,1
223 139 m 1,24,-1
 372 139 l 2,25,26
 427 139 427 139 455 160.5 c 128,-1,27
 483 182 483 182 483 224 c 0,28,29
 483 259 483 259 460.5 275.5 c 128,-1,30
 438 292 438 292 379 292 c 2,31,-1
 247 292 l 1,32,-1
 223 139 l 1,24,-1
EndSplineSet
EndChar

StartChar: uni0413
Encoding: 1043 1043 534
Width: 579
GlyphClass: 2
Flags: W
AnchorPoint: "Anchor-4" 190 358 basechar 0
AnchorPoint: "Anchor-0" 356 705 basechar 0
LayerCount: 2
Fore
SplineSet
119 -9 m 0,0,1
 72 -9 72 -9 52 19 c 128,-1,2
 32 47 32 47 41 99 c 2,3,-1
 123 617 l 2,4,5
 130 661 130 661 156 683 c 128,-1,6
 182 705 182 705 225 705 c 2,7,-1
 554 705 l 2,8,9
 592 705 592 705 612.5 689 c 128,-1,10
 633 673 633 673 633 645 c 0,11,12
 633 603 633 603 609.5 579 c 128,-1,13
 586 555 586 555 544 555 c 2,14,-1
 297 555 l 1,15,-1
 222 83 l 2,16,17
 215 36 215 36 189.5 13.5 c 128,-1,18
 164 -9 164 -9 119 -9 c 0,0,1
EndSplineSet
EndChar

StartChar: uni0490
Encoding: 1168 1168 536
Width: 579
GlyphClass: 1
Flags: W
LayerCount: 2
Fore
SplineSet
119 -9 m 0,0,1
 72 -9 72 -9 52 19 c 128,-1,2
 32 47 32 47 41 99 c 2,3,-1
 123 617 l 2,4,5
 130 661 130 661 156 683 c 128,-1,6
 182 705 182 705 226 705 c 2,7,-1
 474 705 l 1,8,-1
 491 806 l 2,9,10
 502 880 502 880 578 880 c 0,11,12
 618 880 618 880 636.5 856.5 c 128,-1,13
 655 833 655 833 648 793 c 2,14,-1
 624 643 l 2,15,16
 617 600 617 600 591 577.5 c 128,-1,17
 565 555 565 555 521 555 c 2,18,-1
 297 555 l 1,19,-1
 222 83 l 2,20,21
 215 36 215 36 190 13.5 c 128,-1,22
 165 -9 165 -9 119 -9 c 0,0,1
EndSplineSet
EndChar

StartChar: uni04F6
Encoding: 1270 1270 537
Width: 579
GlyphClass: 1
Flags: W
LayerCount: 2
Fore
SplineSet
207 -184 m 0,0,1
 166 -184 166 -184 148 -159.5 c 128,-1,2
 130 -135 130 -135 137 -91 c 2,3,-1
 151 0 l 1,4,-1
 119 0 l 2,5,6
 72 0 72 0 53 29 c 128,-1,7
 34 58 34 58 42 108 c 2,8,-1
 123 617 l 2,9,10
 130 661 130 661 156 683 c 128,-1,11
 182 705 182 705 225 705 c 2,12,-1
 554 705 l 2,13,14
 592 705 592 705 612.5 689 c 128,-1,15
 633 673 633 673 633 645 c 0,16,17
 633 603 633 603 609.5 579 c 128,-1,18
 586 555 586 555 544 555 c 2,19,-1
 297 555 l 1,20,-1
 227 112 l 1,21,-1
 199 144 l 1,22,-1
 241 144 l 2,23,24
 279 144 279 144 302 121.5 c 128,-1,25
 325 99 325 99 317 51 c 2,26,-1
 293 -105 l 2,27,28
 287 -144 287 -144 265 -164 c 128,-1,29
 243 -184 243 -184 207 -184 c 0,0,1
EndSplineSet
EndChar

StartChar: uni0492
Encoding: 1170 1170 538
Width: 628
GlyphClass: 1
Flags: W
LayerCount: 2
Fore
SplineSet
168 -9 m 0,0,1
 121 -9 121 -9 102 20.5 c 128,-1,2
 83 50 83 50 90 99 c 2,3,-1
 118 277 l 1,4,-1
 98 277 l 2,5,6
 65 277 65 277 47 291.5 c 128,-1,7
 29 306 29 306 29 330 c 0,8,9
 29 366 29 366 49 385.5 c 128,-1,10
 69 405 69 405 107 405 c 2,11,-1
 139 405 l 1,12,-1
 172 617 l 2,13,14
 179 661 179 661 205 683 c 128,-1,15
 231 705 231 705 275 705 c 2,16,-1
 603 705 l 2,17,18
 641 705 641 705 662 689 c 128,-1,19
 683 673 683 673 683 645 c 0,20,21
 683 603 683 603 659 579 c 128,-1,22
 635 555 635 555 593 555 c 2,23,-1
 346 555 l 1,24,-1
 323 405 l 1,25,-1
 426 405 l 2,26,27
 459 405 459 405 477.5 391.5 c 128,-1,28
 496 378 496 378 496 353 c 0,29,30
 496 318 496 318 474.5 297.5 c 128,-1,31
 453 277 453 277 417 277 c 2,32,-1
 303 277 l 1,33,-1
 271 81 l 2,34,35
 264 35 264 35 239 13 c 128,-1,36
 214 -9 214 -9 168 -9 c 0,0,1
EndSplineSet
Substitution2: "'locl' Localized Forms in Cyrillic lookup 16 subtable" uni0492.loclBSH
Substitution2: "'aalt' Access All Alternates lookup 0 subtable" uni0492.loclBSH
EndChar

StartChar: uni0494
Encoding: 1172 1172 539
Width: 738
GlyphClass: 1
Flags: W
LayerCount: 2
Fore
SplineSet
397 -191 m 0,0,1
 378 -191 378 -191 357.5 -190 c 128,-1,2
 337 -189 337 -189 320 -186 c 0,3,4
 293 -181 293 -181 279 -165.5 c 128,-1,5
 265 -150 265 -150 262 -129 c 128,-1,6
 259 -108 259 -108 267 -88.5 c 128,-1,7
 275 -69 275 -69 291 -56.5 c 128,-1,8
 307 -44 307 -44 328 -47 c 0,9,10
 341 -48 341 -48 350 -48.5 c 128,-1,11
 359 -49 359 -49 368 -49 c 0,12,13
 410 -49 410 -49 440 -19.5 c 128,-1,14
 470 10 470 10 478 63 c 2,15,-1
 489 130 l 2,16,17
 503 214 503 214 467.5 255 c 128,-1,18
 432 296 432 296 364 296 c 0,19,20
 338 296 338 296 308 291.5 c 128,-1,21
 278 287 278 287 253 276 c 1,22,-1
 222 82 l 2,23,24
 215 37 215 37 189.5 14 c 128,-1,25
 164 -9 164 -9 118 -9 c 0,26,27
 75 -9 75 -9 54 19.5 c 128,-1,28
 33 48 33 48 41 98 c 2,29,-1
 123 617 l 2,30,31
 130 661 130 661 156.5 683 c 128,-1,32
 183 705 183 705 227 705 c 2,33,-1
 571 705 l 2,34,35
 609 705 609 705 630 689 c 128,-1,36
 651 673 651 673 651 645 c 0,37,38
 651 603 651 603 627 579 c 128,-1,39
 603 555 603 555 561 555 c 2,40,-1
 297 555 l 1,41,-1
 277 430 l 1,42,43
 300 438 300 438 334.5 444 c 128,-1,44
 369 450 369 450 405 450 c 0,45,46
 471 450 471 450 525.5 429 c 128,-1,47
 580 408 580 408 617 367 c 128,-1,48
 654 326 654 326 670 267.5 c 128,-1,49
 686 209 686 209 674 136 c 2,50,-1
 663 71 l 2,51,52
 650 -12 650 -12 614 -71 c 128,-1,53
 578 -130 578 -130 523 -160.5 c 128,-1,54
 468 -191 468 -191 397 -191 c 0,0,1
EndSplineSet
EndChar

StartChar: uni0414
Encoding: 1044 1044 540
Width: 824
GlyphClass: 1
Flags: W
AnchorPoint: "Anchor-0" 497 703 basechar 0
LayerCount: 2
Fore
SplineSet
25 -184 m 0,0,1
 -14 -184 -14 -184 -31.5 -160.5 c 128,-1,2
 -49 -137 -49 -137 -43 -97 c 2,3,-1
 -18 68 l 2,4,5
 -6 142 -6 142 70 142 c 2,6,-1
 106 142 l 1,7,-1
 50 128 l 1,8,9
 108 178 108 178 146.5 271 c 128,-1,10
 185 364 185 364 208 510 c 2,11,-1
 224 617 l 2,12,13
 231 661 231 661 257 683 c 128,-1,14
 283 705 283 705 327 705 c 2,15,-1
 671 705 l 2,16,17
 720 705 720 705 743 678.5 c 128,-1,18
 766 652 766 652 758 602 c 2,19,-1
 679 102 l 1,20,-1
 646 142 l 1,21,-1
 698 142 l 2,22,23
 740 142 740 142 759.5 118.5 c 128,-1,24
 779 95 779 95 772 54 c 2,25,-1
 746 -110 l 2,26,27
 735 -184 735 -184 660 -184 c 0,28,29
 620 -184 620 -184 601.5 -161 c 128,-1,30
 583 -138 583 -138 589 -97 c 2,31,-1
 604 0 l 1,32,-1
 131 0 l 1,33,-1
 114 -110 l 2,34,35
 103 -184 103 -184 25 -184 c 0,0,1
255 142 m 1,36,-1
 503 142 l 1,37,-1
 570 563 l 1,38,-1
 385 563 l 1,39,-1
 374 498 l 2,40,41
 354 373 354 373 327 285 c 128,-1,42
 300 197 300 197 255 142 c 1,36,-1
EndSplineSet
EndChar

StartChar: uni0416
Encoding: 1046 1046 544
Width: 1069
GlyphClass: 2
Flags: W
AnchorPoint: "Anchor-0" 607 705 basechar 0
LayerCount: 2
Fore
SplineSet
500 -9 m 0,0,1
 456 -9 456 -9 435.5 16 c 128,-1,2
 415 41 415 41 422 86 c 2,3,-1
 452 273 l 1,4,-1
 408 273 l 2,5,6
 364 273 364 273 333.5 255.5 c 128,-1,7
 303 238 303 238 278 198 c 2,8,-1
 179 39 l 2,9,10
 160 8 160 8 133.5 -2.5 c 128,-1,11
 107 -13 107 -13 81 -7 c 128,-1,12
 55 -1 55 -1 37 17.5 c 128,-1,13
 19 36 19 36 17 64.5 c 128,-1,14
 15 93 15 93 36 128 c 2,15,-1
 117 258 l 2,16,17
 162 330 162 330 215.5 366.5 c 128,-1,18
 269 403 269 403 340 416 c 1,19,-1
 275 367 l 1,20,-1
 169 589 l 2,21,22
 152 623 152 623 159 650 c 128,-1,23
 166 677 166 677 186.5 694 c 128,-1,24
 207 711 207 711 234 714 c 128,-1,25
 261 717 261 717 286 703.5 c 128,-1,26
 311 690 311 690 326 655 c 2,27,-1
 437 405 l 1,28,-1
 411 423 l 1,29,-1
 475 423 l 1,30,-1
 508 634 l 2,31,32
 515 674 515 674 538.5 694 c 128,-1,33
 562 714 562 714 603 714 c 0,34,35
 647 714 647 714 667.5 689 c 128,-1,36
 688 664 688 664 681 619 c 2,37,-1
 650 423 l 1,38,-1
 711 423 l 1,39,-1
 685 405 l 1,40,-1
 888 674 l 2,41,42
 909 702 909 702 935 710 c 128,-1,43
 961 718 961 718 985.5 710.5 c 128,-1,44
 1010 703 1010 703 1025 683.5 c 128,-1,45
 1040 664 1040 664 1040 637 c 128,-1,46
 1040 610 1040 610 1016 581 c 2,47,-1
 846 367 l 1,48,-1
 775 416 l 1,49,50
 820 408 820 408 850.5 388 c 128,-1,51
 881 368 881 368 902 336 c 128,-1,52
 923 304 923 304 939 258 c 2,53,-1
 991 116 l 2,54,55
 1005 79 1005 79 996.5 51.5 c 128,-1,56
 988 24 988 24 965.5 8 c 128,-1,57
 943 -8 943 -8 916 -8.5 c 128,-1,58
 889 -9 889 -9 864 6.5 c 128,-1,59
 839 22 839 22 827 57 c 2,60,-1
 778 198 l 2,61,62
 764 237 764 237 739.5 255 c 128,-1,63
 715 273 715 273 671 273 c 2,64,-1
 627 273 l 1,65,-1
 595 72 l 2,66,67
 589 32 589 32 565 11.5 c 128,-1,68
 541 -9 541 -9 500 -9 c 0,0,1
EndSplineSet
EndChar

StartChar: uni0417
Encoding: 1047 1047 545
Width: 628
GlyphClass: 2
Flags: W
AnchorPoint: "Anchor-2" 288 0 basechar 0
AnchorPoint: "Anchor-0" 372 705 basechar 0
LayerCount: 2
Fore
SplineSet
290 -11 m 0,0,1
 234 -11 234 -11 171.5 2.5 c 128,-1,2
 109 16 109 16 59 46 c 0,3,4
 37 58 37 58 28 79.5 c 128,-1,5
 19 101 19 101 21.5 123 c 128,-1,6
 24 145 24 145 37 162 c 128,-1,7
 50 179 50 179 72 184 c 128,-1,8
 94 189 94 189 123 175 c 0,9,10
 148 162 148 162 176 154.5 c 128,-1,11
 204 147 204 147 232 143.5 c 128,-1,12
 260 140 260 140 283 140 c 0,13,14
 312 140 312 140 339.5 148 c 128,-1,15
 367 156 367 156 385 174 c 128,-1,16
 403 192 403 192 403 221 c 0,17,18
 403 255 403 255 382 271 c 128,-1,19
 361 287 361 287 318 287 c 2,20,-1
 224 287 l 2,21,22
 187 287 187 287 167.5 303 c 128,-1,23
 148 319 148 319 148 346 c 0,24,25
 148 384 148 384 171 406 c 128,-1,26
 194 428 194 428 234 428 c 2,27,-1
 329 428 l 2,28,29
 377 428 377 428 405.5 446 c 128,-1,30
 434 464 434 464 434 502 c 0,31,32
 434 524 434 524 424 538.5 c 128,-1,33
 414 553 414 553 392.5 559 c 128,-1,34
 371 565 371 565 337 565 c 0,35,36
 306 565 306 565 270.5 559 c 128,-1,37
 235 553 235 553 206 541 c 0,38,39
 173 527 173 527 148 533 c 128,-1,40
 123 539 123 539 109 556.5 c 128,-1,41
 95 574 95 574 94 597 c 128,-1,42
 93 620 93 620 107.5 642 c 128,-1,43
 122 664 122 664 153 676 c 0,44,45
 200 696 200 696 255.5 706 c 128,-1,46
 311 716 311 716 363 716 c 0,47,48
 445 716 445 716 499.5 691.5 c 128,-1,49
 554 667 554 667 583 626 c 128,-1,50
 612 585 612 585 612 536 c 0,51,52
 612 461 612 461 564.5 414 c 128,-1,53
 517 367 517 367 442 354 c 1,54,-1
 442 371 l 1,55,56
 507 358 507 358 543 315 c 128,-1,57
 579 272 579 272 579 211 c 0,58,59
 579 141 579 141 545 91.5 c 128,-1,60
 511 42 511 42 446 15.5 c 128,-1,61
 381 -11 381 -11 290 -11 c 0,0,1
EndSplineSet
EndChar

StartChar: uni0418
Encoding: 1048 1048 546
Width: 758
GlyphClass: 2
Flags: W
AnchorPoint: "Anchor-0" 447 705 basechar 0
LayerCount: 2
Fore
SplineSet
99 -10 m 256,0,1
 72 -10 72 -10 58 -1 c 128,-1,2
 44 8 44 8 39.5 22 c 128,-1,3
 35 36 35 36 35.5 51 c 128,-1,4
 36 66 36 66 38 78 c 2,5,-1
 125 629 l 2,6,7
 132 672 132 672 157 693 c 128,-1,8
 182 714 182 714 220 714 c 0,9,10
 265 714 265 714 283.5 688 c 128,-1,11
 302 662 302 662 294 614 c 2,12,-1
 239 267 l 1,13,-1
 213 274 l 1,14,-1
 600 673 l 2,15,16
 617 691 617 691 640 702.5 c 128,-1,17
 663 714 663 714 694 714 c 0,18,19
 730 714 730 714 743 700 c 128,-1,20
 756 686 756 686 756.5 666 c 128,-1,21
 757 646 757 646 754 627 c 2,22,-1
 667 76 l 2,23,24
 660 33 660 33 635 12 c 128,-1,25
 610 -9 610 -9 571 -9 c 0,26,27
 527 -9 527 -9 509 17.5 c 128,-1,28
 491 44 491 44 498 91 c 2,29,-1
 553 439 l 1,30,-1
 578 431 l 1,31,-1
 191 31 l 2,32,33
 172 12 172 12 149 1 c 128,-1,34
 126 -10 126 -10 99 -10 c 256,0,1
EndSplineSet
EndChar

StartChar: uni048A
Encoding: 1162 1162 549
Width: 798
GlyphClass: 1
Flags: W
LayerCount: 2
Fore
SplineSet
665 -137 m 2,0,1
 651 -163 651 -163 630 -174.5 c 128,-1,2
 609 -186 609 -186 587 -184 c 128,-1,3
 565 -182 565 -182 548.5 -169 c 128,-1,4
 532 -156 532 -156 527.5 -133.5 c 128,-1,5
 523 -111 523 -111 538 -82 c 2,6,-1
 601 46 l 1,7,-1
 620 0 l 1,8,-1
 577 0 l 2,9,10
 529 0 529 0 510 24 c 128,-1,11
 491 48 491 48 499 99 c 2,12,-1
 553 439 l 1,13,-1
 578 431 l 1,14,-1
 191 31 l 2,15,16
 172 12 172 12 149 1 c 128,-1,17
 126 -10 126 -10 99 -10 c 256,18,19
 72 -10 72 -10 58 -1 c 128,-1,20
 44 8 44 8 39.5 22 c 128,-1,21
 35 36 35 36 35.5 51 c 128,-1,22
 36 66 36 66 38 78 c 2,23,-1
 125 629 l 2,24,25
 132 672 132 672 157 693 c 128,-1,26
 182 714 182 714 220 714 c 0,27,28
 265 714 265 714 283.5 688 c 128,-1,29
 302 662 302 662 294 614 c 2,30,-1
 239 267 l 1,31,-1
 213 274 l 1,32,-1
 600 673 l 2,33,34
 617 691 617 691 640 702.5 c 128,-1,35
 663 714 663 714 694 714 c 0,36,37
 730 714 730 714 743 700 c 128,-1,38
 756 686 756 686 756.5 666 c 128,-1,39
 757 646 757 646 754 627 c 2,40,-1
 669 94 l 1,41,-1
 636 144 l 1,42,-1
 691 144 l 2,43,44
 740 144 740 144 758.5 116.5 c 128,-1,45
 777 89 777 89 754 42 c 2,46,-1
 665 -137 l 2,0,1
453 760 m 0,47,48
 377 760 377 760 331.5 789.5 c 128,-1,49
 286 819 286 819 266 866 c 0,50,51
 255 891 255 891 264.5 908 c 128,-1,52
 274 925 274 925 295 932 c 0,53,54
 315 939 315 939 329 929.5 c 128,-1,55
 343 920 343 920 359 897 c 0,56,57
 373 874 373 874 397.5 862.5 c 128,-1,58
 422 851 422 851 460 851 c 256,59,60
 498 851 498 851 525 863.5 c 128,-1,61
 552 876 552 876 571 901 c 0,62,63
 588 921 588 921 601.5 930.5 c 128,-1,64
 615 940 615 940 635 932 c 0,65,66
 653 926 653 926 660.5 911.5 c 128,-1,67
 668 897 668 897 657 876 c 0,68,69
 631 823 631 823 579 791.5 c 128,-1,70
 527 760 527 760 453 760 c 0,47,48
EndSplineSet
EndChar

StartChar: uni041A
Encoding: 1050 1050 550
Width: 716
GlyphClass: 2
Flags: W
AnchorPoint: "Anchor-5" 385 353 basechar 0
AnchorPoint: "Anchor-0" 426 705 basechar 0
LayerCount: 2
Fore
SplineSet
121 -9 m 0,0,1
 76 -9 76 -9 54 17.5 c 128,-1,2
 32 44 32 44 40 91 c 2,3,-1
 125 629 l 2,4,5
 132 671 132 671 157 692.5 c 128,-1,6
 182 714 182 714 225 714 c 0,7,8
 271 714 271 714 292 688 c 128,-1,9
 313 662 313 662 306 614 c 2,10,-1
 276 423 l 1,11,-1
 358 423 l 1,12,-1
 332 405 l 1,13,-1
 535 674 l 2,14,15
 556 702 556 702 582 710 c 128,-1,16
 608 718 608 718 632 710.5 c 128,-1,17
 656 703 656 703 671 683.5 c 128,-1,18
 686 664 686 664 686 637.5 c 128,-1,19
 686 611 686 611 663 581 c 2,20,-1
 499 367 l 1,21,-1
 422 416 l 1,22,23
 490 403 490 403 526.5 365 c 128,-1,24
 563 327 563 327 587 258 c 2,25,-1
 638 116 l 2,26,27
 652 79 652 79 643 51 c 128,-1,28
 634 23 634 23 612 7.5 c 128,-1,29
 590 -8 590 -8 562.5 -8.5 c 128,-1,30
 535 -9 535 -9 510.5 6.5 c 128,-1,31
 486 22 486 22 474 57 c 2,32,-1
 425 198 l 2,33,34
 412 238 412 238 387 255.5 c 128,-1,35
 362 273 362 273 318 273 c 2,36,-1
 252 273 l 1,37,-1
 221 77 l 2,38,39
 214 33 214 33 189 12 c 128,-1,40
 164 -9 164 -9 121 -9 c 0,0,1
EndSplineSet
EndChar

StartChar: uni041B
Encoding: 1051 1051 552
Width: 765
GlyphClass: 2
Flags: W
LayerCount: 2
Fore
SplineSet
572 -9 m 256,0,1
 528 -9 528 -9 507 17.5 c 128,-1,2
 486 44 486 44 493 93 c 2,3,-1
 567 555 l 1,4,-1
 382 555 l 1,5,-1
 362 428 l 2,6,7
 349 348 349 348 328.5 282.5 c 128,-1,8
 308 217 308 217 278 164.5 c 128,-1,9
 248 112 248 112 207 72 c 128,-1,10
 166 32 166 32 112 2 c 0,11,12
 79 -16 79 -16 47.5 -10.5 c 128,-1,13
 16 -5 16 -5 -4 27 c 0,14,15
 -23 60 -23 60 -12.5 89 c 128,-1,16
 -2 118 -2 118 31 138 c 0,17,18
 66 160 66 160 93 190.5 c 128,-1,19
 120 221 120 221 140.5 261.5 c 128,-1,20
 161 302 161 302 175.5 355.5 c 128,-1,21
 190 409 190 409 201 476 c 2,22,-1
 223 617 l 2,23,24
 230 661 230 661 256 683 c 128,-1,25
 282 705 282 705 326 705 c 2,26,-1
 670 705 l 2,27,28
 719 705 719 705 742 678.5 c 128,-1,29
 765 652 765 652 757 603 c 2,30,-1
 674 78 l 2,31,32
 668 35 668 35 642 13 c 128,-1,33
 616 -9 616 -9 572 -9 c 256,0,1
EndSplineSet
EndChar

StartChar: uni041F
Encoding: 1055 1055 556
Width: 779
GlyphClass: 2
Flags: W
LayerCount: 2
Fore
SplineSet
118 -9 m 0,0,1
 73 -9 73 -9 53 17 c 128,-1,2
 33 43 33 43 40 92 c 2,3,-1
 123 617 l 2,4,5
 130 661 130 661 156 683 c 128,-1,6
 182 705 182 705 226 705 c 2,7,-1
 684 705 l 2,8,9
 733 705 733 705 756 678.5 c 128,-1,10
 779 652 779 652 771 603 c 2,11,-1
 688 78 l 2,12,13
 682 35 682 35 656 13 c 128,-1,14
 630 -9 630 -9 587 -9 c 0,15,16
 542 -9 542 -9 521 17.5 c 128,-1,17
 500 44 500 44 507 93 c 2,18,-1
 581 555 l 1,19,-1
 297 555 l 1,20,-1
 222 78 l 2,21,22
 215 35 215 35 189.5 13 c 128,-1,23
 164 -9 164 -9 118 -9 c 0,0,1
EndSplineSet
EndChar

StartChar: uni0423
Encoding: 1059 1059 560
Width: 681
GlyphClass: 2
Flags: W
AnchorPoint: "Anchor-0" 402 705 basechar 0
LayerCount: 2
Fore
SplineSet
247 -9 m 0,0,1
 213 -9 213 -9 192 8 c 128,-1,2
 171 25 171 25 168 52 c 128,-1,3
 165 79 165 79 183 107 c 2,4,-1
 273 243 l 1,5,-1
 274 192 l 1,6,-1
 89 604 l 2,7,8
 75 635 75 635 82.5 660 c 128,-1,9
 90 685 90 685 112.5 699.5 c 128,-1,10
 135 714 135 714 166 714 c 0,11,12
 201 714 201 714 220.5 695.5 c 128,-1,13
 240 677 240 677 257 636 c 2,14,-1
 380 355 l 1,15,-1
 349 355 l 1,16,-1
 547 654 l 2,17,18
 566 683 566 683 587 698.5 c 128,-1,19
 608 714 608 714 644 714 c 0,20,21
 679 714 679 714 699.5 697.5 c 128,-1,22
 720 681 720 681 723 654.5 c 128,-1,23
 726 628 726 628 707 599 c 2,24,-1
 344 51 l 2,25,26
 324 21 324 21 303.5 6 c 128,-1,27
 283 -9 283 -9 247 -9 c 0,0,1
EndSplineSet
EndChar

StartChar: uni0424
Encoding: 1060 1060 562
Width: 932
GlyphClass: 1
Flags: W
LayerCount: 2
Fore
SplineSet
425 -37 m 0,0,1
 378 -37 378 -37 358 -8.5 c 128,-1,2
 338 20 338 20 346 69 c 2,3,-1
 352 108 l 1,4,-1
 399 54 l 1,5,-1
 388 54 l 2,6,7
 292 54 292 54 218.5 85 c 128,-1,8
 145 116 145 116 104.5 177.5 c 128,-1,9
 64 239 64 239 64 329 c 0,10,11
 64 396 64 396 87.5 456 c 128,-1,12
 111 516 111 516 158 562.5 c 128,-1,13
 205 609 205 609 276.5 635.5 c 128,-1,14
 348 662 348 662 445 662 c 2,15,-1
 474 662 l 1,16,-1
 432 608 l 1,17,-1
 439 657 l 2,18,19
 446 702 446 702 473 724.5 c 128,-1,20
 500 747 500 747 541 747 c 0,21,22
 588 747 588 747 608.5 719 c 128,-1,23
 629 691 629 691 621 641 c 2,24,-1
 615 603 l 1,25,-1
 568 657 l 1,26,-1
 579 657 l 2,27,28
 676 657 676 657 748.5 626 c 128,-1,29
 821 595 821 595 862 533.5 c 128,-1,30
 903 472 903 472 903 382 c 0,31,32
 903 315 903 315 879.5 255 c 128,-1,33
 856 195 856 195 809 148.5 c 128,-1,34
 762 102 762 102 690 75.5 c 128,-1,35
 618 49 618 49 522 49 c 2,36,-1
 493 49 l 1,37,-1
 535 103 l 1,38,-1
 527 54 l 2,39,40
 520 9 520 9 493 -14 c 128,-1,41
 466 -37 466 -37 425 -37 c 0,0,1
362 162 m 1,42,-1
 425 554 l 1,43,-1
 455 527 l 1,44,-1
 433 527 l 2,45,46
 383 527 383 527 348 511.5 c 128,-1,47
 313 496 313 496 291.5 469 c 128,-1,48
 270 442 270 442 260 407 c 128,-1,49
 250 372 250 372 250 333 c 0,50,51
 250 286 250 286 263.5 253.5 c 128,-1,52
 277 221 277 221 310.5 205 c 128,-1,53
 344 189 344 189 402 189 c 2,54,-1
 414 189 l 1,55,-1
 362 162 l 1,42,-1
542 157 m 1,56,-1
 511 184 l 1,57,-1
 534 184 l 2,58,59
 584 184 584 184 619 199.5 c 128,-1,60
 654 215 654 215 675.5 242.5 c 128,-1,61
 697 270 697 270 707 305.5 c 128,-1,62
 717 341 717 341 717 380 c 0,63,64
 717 427 717 427 703 458.5 c 128,-1,65
 689 490 689 490 656 506 c 128,-1,66
 623 522 623 522 565 522 c 2,67,-1
 554 522 l 1,68,-1
 604 549 l 1,69,-1
 542 157 l 1,56,-1
EndSplineSet
EndChar

StartChar: uni0427
Encoding: 1063 1063 564
Width: 721
GlyphClass: 2
Flags: W
AnchorPoint: "Anchor-5" 315 295 basechar 0
AnchorPoint: "Anchor-0" 419 705 basechar 0
LayerCount: 2
Fore
SplineSet
529 -9 m 0,0,1
 482 -9 482 -9 462 19 c 128,-1,2
 442 47 442 47 450 98 c 2,3,-1
 473 248 l 1,4,5
 450 239 450 239 417.5 233 c 128,-1,6
 385 227 385 227 349 227 c 0,7,8
 261 227 261 227 198.5 264.5 c 128,-1,9
 136 302 136 302 107.5 371.5 c 128,-1,10
 79 441 79 441 94 539 c 2,11,-1
 107 623 l 2,12,13
 114 669 114 669 141 691.5 c 128,-1,14
 168 714 168 714 210 714 c 0,15,16
 257 714 257 714 276 685.5 c 128,-1,17
 295 657 295 657 288 607 c 2,18,-1
 277 537 l 2,19,20
 264 454 264 454 291.5 417.5 c 128,-1,21
 319 381 319 381 387 381 c 0,22,23
 413 381 413 381 443 386 c 128,-1,24
 473 391 473 391 497 401 c 1,25,-1
 533 623 l 2,26,27
 541 669 541 669 567.5 691.5 c 128,-1,28
 594 714 594 714 635 714 c 0,29,30
 683 714 683 714 702 685.5 c 128,-1,31
 721 657 721 657 714 607 c 2,32,-1
 632 82 l 2,33,34
 625 36 625 36 598 13.5 c 128,-1,35
 571 -9 571 -9 529 -9 c 0,0,1
EndSplineSet
EndChar

StartChar: uni0426
Encoding: 1062 1062 565
Width: 837
GlyphClass: 1
Flags: W
LayerCount: 2
Fore
SplineSet
672 -184 m 0,0,1
 631 -184 631 -184 613.5 -159.5 c 128,-1,2
 596 -135 596 -135 603 -91 c 2,3,-1
 617 0 l 1,4,-1
 129 0 l 2,5,6
 81 0 81 0 57.5 27 c 128,-1,7
 34 54 34 54 42 102 c 2,8,-1
 125 629 l 2,9,10
 132 672 132 672 157 693 c 128,-1,11
 182 714 182 714 224 714 c 0,12,13
 271 714 271 714 292.5 688 c 128,-1,14
 314 662 314 662 306 614 c 2,15,-1
 233 150 l 1,16,-1
 516 150 l 1,17,-1
 592 628 l 2,18,19
 599 670 599 670 623.5 692 c 128,-1,20
 648 714 648 714 690 714 c 0,21,22
 738 714 738 714 759.5 688 c 128,-1,23
 781 662 781 662 773 614 c 2,24,-1
 694 114 l 1,25,-1
 628 150 l 1,26,-1
 706 150 l 2,27,28
 749 150 749 150 770.5 125 c 128,-1,29
 792 100 792 100 785 56 c 2,30,-1
 759 -106 l 2,31,32
 747 -184 747 -184 672 -184 c 0,0,1
EndSplineSet
EndChar

StartChar: uni0428
Encoding: 1064 1064 566
Width: 1090
GlyphClass: 1
Flags: W
LayerCount: 2
Fore
SplineSet
129 0 m 2,0,1
 81 0 81 0 57.5 27 c 128,-1,2
 34 54 34 54 42 102 c 2,3,-1
 125 630 l 2,4,5
 132 672 132 672 157 693 c 128,-1,6
 182 714 182 714 223 714 c 0,7,8
 269 714 269 714 290 688 c 128,-1,9
 311 662 311 662 303 614 c 2,10,-1
 230 150 l 1,11,-1
 439 150 l 1,12,-1
 515 628 l 2,13,14
 522 669 522 669 546 691.5 c 128,-1,15
 570 714 570 714 613 714 c 0,16,17
 659 714 659 714 680 688 c 128,-1,18
 701 662 701 662 693 614 c 2,19,-1
 620 150 l 1,20,-1
 830 150 l 1,21,-1
 906 628 l 2,22,23
 913 669 913 669 936.5 691.5 c 128,-1,24
 960 714 960 714 1003 714 c 0,25,26
 1049 714 1049 714 1070 688 c 128,-1,27
 1091 662 1091 662 1084 614 c 2,28,-1
 1000 88 l 2,29,30
 993 43 993 43 966.5 21.5 c 128,-1,31
 940 0 940 0 898 0 c 2,32,-1
 129 0 l 2,0,1
EndSplineSet
EndChar

StartChar: uni0429
Encoding: 1065 1065 567
Width: 1148
GlyphClass: 1
Flags: W
LayerCount: 2
Fore
SplineSet
982 -184 m 0,0,1
 942 -184 942 -184 924.5 -159.5 c 128,-1,2
 907 -135 907 -135 913 -91 c 2,3,-1
 928 0 l 1,4,-1
 129 0 l 2,5,6
 81 0 81 0 57.5 27 c 128,-1,7
 34 54 34 54 42 102 c 2,8,-1
 125 628 l 2,9,10
 132 671 132 671 157 692.5 c 128,-1,11
 182 714 182 714 223 714 c 0,12,13
 269 714 269 714 290 688 c 128,-1,14
 311 662 311 662 303 614 c 2,15,-1
 230 150 l 1,16,-1
 439 150 l 1,17,-1
 516 628 l 2,18,19
 522 669 522 669 546 691.5 c 128,-1,20
 570 714 570 714 613 714 c 0,21,22
 659 714 659 714 680 688 c 128,-1,23
 701 662 701 662 693 614 c 2,24,-1
 620 150 l 1,25,-1
 830 150 l 1,26,-1
 905 628 l 2,27,28
 912 669 912 669 936 691.5 c 128,-1,29
 960 714 960 714 1003 714 c 0,30,31
 1049 714 1049 714 1070 688.5 c 128,-1,32
 1091 663 1091 663 1084 615 c 2,33,-1
 1005 114 l 1,34,-1
 939 150 l 1,35,-1
 1016 150 l 2,36,37
 1060 150 1060 150 1081.5 125.5 c 128,-1,38
 1103 101 1103 101 1096 57 c 2,39,-1
 1070 -105 l 2,40,41
 1065 -144 1065 -144 1042 -164 c 128,-1,42
 1019 -184 1019 -184 982 -184 c 0,0,1
EndSplineSet
EndChar

StartChar: uni040F
Encoding: 1039 1039 568
Width: 779
GlyphClass: 1
Flags: W
LayerCount: 2
Fore
SplineSet
326 -184 m 0,0,1
 286 -184 286 -184 268 -159.5 c 128,-1,2
 250 -135 250 -135 257 -91 c 2,3,-1
 272 0 l 1,4,-1
 129 0 l 2,5,6
 81 0 81 0 57.5 27 c 128,-1,7
 34 54 34 54 41 102 c 2,8,-1
 125 628 l 2,9,10
 132 671 132 671 157 692.5 c 128,-1,11
 182 714 182 714 224 714 c 0,12,13
 270 714 270 714 292 688 c 128,-1,14
 314 662 314 662 306 614 c 2,15,-1
 233 150 l 1,16,-1
 516 150 l 1,17,-1
 592 629 l 2,18,19
 599 671 599 671 623.5 692.5 c 128,-1,20
 648 714 648 714 690 714 c 0,21,22
 738 714 738 714 759.5 688 c 128,-1,23
 781 662 781 662 773 614 c 2,24,-1
 690 89 l 2,25,26
 683 44 683 44 656.5 22 c 128,-1,27
 630 0 630 0 587 0 c 2,28,-1
 431 0 l 1,29,-1
 414 -106 l 2,30,31
 408 -144 408 -144 385 -164 c 128,-1,32
 362 -184 362 -184 326 -184 c 0,0,1
EndSplineSet
EndChar

StartChar: uni042C
Encoding: 1068 1068 569
Width: 688
GlyphClass: 1
Flags: W
LayerCount: 2
Fore
SplineSet
129 0 m 2,0,1
 81 0 81 0 57.5 27 c 128,-1,2
 34 54 34 54 42 102 c 2,3,-1
 124 624 l 2,4,5
 131 667 131 667 156.5 690.5 c 128,-1,6
 182 714 182 714 225 714 c 0,7,8
 271 714 271 714 292.5 688 c 128,-1,9
 314 662 314 662 306 614 c 2,10,-1
 277 431 l 1,11,-1
 403 431 l 2,12,13
 488 431 488 431 544.5 405.5 c 128,-1,14
 601 380 601 380 628.5 335.5 c 128,-1,15
 656 291 656 291 656 235 c 0,16,17
 656 121 656 121 584 60.5 c 128,-1,18
 512 0 512 0 370 0 c 2,19,-1
 129 0 l 2,0,1
231 139 m 1,20,-1
 371 139 l 2,21,22
 426 139 426 139 453.5 160.5 c 128,-1,23
 481 182 481 182 481 224 c 0,24,25
 481 259 481 259 458.5 275.5 c 128,-1,26
 436 292 436 292 378 292 c 2,27,-1
 255 292 l 1,28,-1
 231 139 l 1,20,-1
EndSplineSet
EndChar

StartChar: uni042B
Encoding: 1067 1067 570
Width: 957
GlyphClass: 2
Flags: W
AnchorPoint: "Anchor-0" 545 705 basechar 0
LayerCount: 2
Fore
SplineSet
129 0 m 2,0,1
 81 0 81 0 57.5 27 c 128,-1,2
 34 54 34 54 42 102 c 2,3,-1
 124 624 l 2,4,5
 131 667 131 667 156.5 690.5 c 128,-1,6
 182 714 182 714 225 714 c 0,7,8
 271 714 271 714 292.5 688 c 128,-1,9
 314 662 314 662 306 614 c 2,10,-1
 277 431 l 1,11,-1
 378 431 l 2,12,13
 464 431 464 431 519.5 405.5 c 128,-1,14
 575 380 575 380 602.5 335.5 c 128,-1,15
 630 291 630 291 630 235 c 0,16,17
 630 121 630 121 557.5 60.5 c 128,-1,18
 485 0 485 0 342 0 c 2,19,-1
 129 0 l 2,0,1
231 139 m 1,20,-1
 346 139 l 2,21,22
 401 139 401 139 428.5 160.5 c 128,-1,23
 456 182 456 182 456 224 c 0,24,25
 456 259 456 259 433.5 275.5 c 128,-1,26
 411 292 411 292 352 292 c 2,27,-1
 255 292 l 1,28,-1
 231 139 l 1,20,-1
765 -9 m 0,29,30
 720 -9 720 -9 698 17.5 c 128,-1,31
 676 44 676 44 684 91 c 2,32,-1
 769 628 l 2,33,34
 776 671 776 671 801 692.5 c 128,-1,35
 826 714 826 714 869 714 c 0,36,37
 915 714 915 714 936.5 688 c 128,-1,38
 958 662 958 662 950 614 c 2,39,-1
 866 77 l 2,40,41
 860 34 860 34 834.5 12.5 c 128,-1,42
 809 -9 809 -9 765 -9 c 0,29,30
EndSplineSet
EndChar

StartChar: uni042A
Encoding: 1066 1066 571
Width: 826
GlyphClass: 1
Flags: W
LayerCount: 2
Fore
SplineSet
267 0 m 2,0,1
 218 0 218 0 195 27 c 128,-1,2
 172 54 172 54 180 102 c 2,3,-1
 251 555 l 1,4,-1
 139 555 l 2,5,6
 96 555 96 555 75 575 c 128,-1,7
 54 595 54 595 60 630 c 0,8,9
 66 667 66 667 88.5 686 c 128,-1,10
 111 705 111 705 149 705 c 2,11,-1
 356 705 l 2,12,13
 405 705 405 705 427.5 679 c 128,-1,14
 450 653 450 653 442 604 c 2,15,-1
 415 431 l 1,16,-1
 540 431 l 2,17,18
 626 431 626 431 682 405.5 c 128,-1,19
 738 380 738 380 765.5 335.5 c 128,-1,20
 793 291 793 291 793 235 c 0,21,22
 793 121 793 121 721.5 60.5 c 128,-1,23
 650 0 650 0 507 0 c 2,24,-1
 267 0 l 2,0,1
369 139 m 1,25,-1
 508 139 l 2,26,27
 563 139 563 139 591 160.5 c 128,-1,28
 619 182 619 182 619 224 c 0,29,30
 619 259 619 259 596.5 275.5 c 128,-1,31
 574 292 574 292 515 292 c 2,32,-1
 393 292 l 1,33,-1
 369 139 l 1,25,-1
EndSplineSet
EndChar

StartChar: uni0409
Encoding: 1033 1033 572
Width: 1137
GlyphClass: 1
Flags: W
LayerCount: 2
Fore
SplineSet
579 0 m 2,0,1
 530 0 530 0 507 27 c 128,-1,2
 484 54 484 54 491 102 c 2,3,-1
 563 555 l 1,4,-1
 382 555 l 1,5,-1
 362 428 l 2,6,7
 348 345 348 345 328 280.5 c 128,-1,8
 308 216 308 216 279.5 165.5 c 128,-1,9
 251 115 251 115 212 75 c 128,-1,10
 173 35 173 35 121 4 c 0,11,12
 99 -10 99 -10 75 -12 c 128,-1,13
 51 -14 51 -14 29.5 -4 c 128,-1,14
 8 6 8 6 -4 28 c 0,15,16
 -23 61 -23 61 -11.5 89.5 c 128,-1,17
 0 118 0 118 32 139 c 0,18,19
 68 160 68 160 94.5 190.5 c 128,-1,20
 121 221 121 221 141 262 c 128,-1,21
 161 303 161 303 175.5 356 c 128,-1,22
 190 409 190 409 201 475 c 2,23,-1
 223 617 l 2,24,25
 230 661 230 661 256 683 c 128,-1,26
 282 705 282 705 325 705 c 2,27,-1
 666 705 l 2,28,29
 715 705 715 705 738 678.5 c 128,-1,30
 761 652 761 652 753 603 c 2,31,-1
 726 431 l 1,32,-1
 852 431 l 2,33,34
 938 431 938 431 994 405.5 c 128,-1,35
 1050 380 1050 380 1077.5 335.5 c 128,-1,36
 1105 291 1105 291 1105 235 c 0,37,38
 1105 121 1105 121 1032 60.5 c 128,-1,39
 959 0 959 0 816 0 c 2,40,-1
 579 0 l 2,0,1
680 139 m 1,41,-1
 820 139 l 2,42,43
 875 139 875 139 903 160.5 c 128,-1,44
 931 182 931 182 931 224 c 0,45,46
 931 259 931 259 908 275.5 c 128,-1,47
 885 292 885 292 827 292 c 2,48,-1
 704 292 l 1,49,-1
 680 139 l 1,41,-1
EndSplineSet
EndChar

StartChar: uni040A
Encoding: 1034 1034 573
Width: 1163
GlyphClass: 1
Flags: W
LayerCount: 2
Fore
SplineSet
118 -9 m 256,0,1
 72 -9 72 -9 52 17 c 128,-1,2
 32 43 32 43 40 92 c 2,3,-1
 124 626 l 2,4,5
 131 669 131 669 156.5 691.5 c 128,-1,6
 182 714 182 714 226 714 c 0,7,8
 271 714 271 714 292 688 c 128,-1,9
 313 662 313 662 306 614 c 2,10,-1
 278 433 l 1,11,-1
 568 433 l 1,12,-1
 599 627 l 2,13,14
 606 670 606 670 631.5 692 c 128,-1,15
 657 714 657 714 701 714 c 0,16,17
 746 714 746 714 767 687.5 c 128,-1,18
 788 661 788 661 780 612 c 2,19,-1
 751 431 l 1,20,-1
 877 431 l 2,21,22
 963 431 963 431 1019 405.5 c 128,-1,23
 1075 380 1075 380 1102.5 335.5 c 128,-1,24
 1130 291 1130 291 1130 235 c 0,25,26
 1130 121 1130 121 1057 60.5 c 128,-1,27
 984 0 984 0 841 0 c 2,28,-1
 604 0 l 2,29,30
 555 0 555 0 531.5 27 c 128,-1,31
 508 54 508 54 516 102 c 2,32,-1
 544 282 l 1,33,-1
 254 282 l 1,34,-1
 222 78 l 2,35,36
 215 35 215 35 189.5 13 c 128,-1,37
 164 -9 164 -9 118 -9 c 256,0,1
706 139 m 1,38,-1
 845 139 l 2,39,40
 900 139 900 139 928 160.5 c 128,-1,41
 956 182 956 182 956 224 c 0,42,43
 956 259 956 259 933.5 275.5 c 128,-1,44
 911 292 911 292 852 292 c 2,45,-1
 730 292 l 1,46,-1
 706 139 l 1,38,-1
EndSplineSet
EndChar

StartChar: uni0404
Encoding: 1028 1028 575
Width: 688
GlyphClass: 2
Flags: W
AnchorPoint: "Anchor-2" 359 0 basechar 0
AnchorPoint: "Anchor-0" 470 705 basechar 0
LayerCount: 2
Fore
SplineSet
405 -11 m 0,0,1
 307 -11 307 -11 230 25.5 c 128,-1,2
 153 62 153 62 108 134 c 128,-1,3
 63 206 63 206 63 310 c 0,4,5
 63 396 63 396 89 470 c 128,-1,6
 115 544 115 544 165.5 599 c 128,-1,7
 216 654 216 654 290.5 685 c 128,-1,8
 365 716 365 716 462 716 c 0,9,10
 507 716 507 716 552 706.5 c 128,-1,11
 597 697 597 697 635 677 c 0,12,13
 668 663 668 663 680.5 639.5 c 128,-1,14
 693 616 693 616 689.5 591 c 128,-1,15
 686 566 686 566 669.5 546 c 128,-1,16
 653 526 653 526 628 519.5 c 128,-1,17
 603 513 603 513 571 528 c 0,18,19
 543 543 543 543 514 549.5 c 128,-1,20
 485 556 485 556 458 556 c 0,21,22
 405 556 405 556 365.5 535.5 c 128,-1,23
 326 515 326 515 300.5 479.5 c 128,-1,24
 275 444 275 444 263 397 c 1,25,-1
 251 430 l 1,26,-1
 471 430 l 2,27,28
 508 430 508 430 528 414.5 c 128,-1,29
 548 399 548 399 547 371 c 0,30,31
 547 332 547 332 524 310 c 128,-1,32
 501 288 501 288 462 288 c 2,33,-1
 248 288 l 1,34,-1
 255 304 l 1,35,36
 258 254 258 254 276.5 219.5 c 128,-1,37
 295 185 295 185 332.5 167 c 128,-1,38
 370 149 370 149 427 149 c 0,39,40
 449 149 449 149 477 154.5 c 128,-1,41
 505 160 505 160 529 172 c 0,42,43
 564 188 564 188 589 181.5 c 128,-1,44
 614 175 614 175 627.5 156 c 128,-1,45
 641 137 641 137 641 112 c 128,-1,46
 641 87 641 87 627.5 64 c 128,-1,47
 614 41 614 41 584 28 c 0,48,49
 542 9 542 9 495 -1 c 128,-1,50
 448 -11 448 -11 405 -11 c 0,0,1
EndSplineSet
EndChar

StartChar: uni042D
Encoding: 1069 1069 576
Width: 688
GlyphClass: 2
Flags: W
AnchorPoint: "Anchor-2" 274 0 basechar 0
AnchorPoint: "Anchor-0" 385 705 basechar 0
LayerCount: 2
Fore
SplineSet
259 -11 m 0,0,1
 214 -11 214 -11 169.5 -1.5 c 128,-1,2
 125 8 125 8 86 28 c 0,3,4
 54 42 54 42 41.5 65.5 c 128,-1,5
 29 89 29 89 32.5 114 c 128,-1,6
 36 139 36 139 52 158.5 c 128,-1,7
 68 178 68 178 93 185 c 128,-1,8
 118 192 118 192 150 177 c 0,9,10
 178 163 178 163 207 156 c 128,-1,11
 236 149 236 149 263 149 c 0,12,13
 322 149 322 149 363 172 c 128,-1,14
 404 195 404 195 429 234.5 c 128,-1,15
 454 274 454 274 462 325 c 1,16,-1
 480 288 l 1,17,-1
 253 288 l 2,18,19
 215 288 215 288 195.5 303.5 c 128,-1,20
 176 319 176 319 176 347 c 0,21,22
 177 385 177 385 200 407.5 c 128,-1,23
 223 430 223 430 262 430 c 2,24,-1
 475 430 l 1,25,-1
 466 404 l 1,26,27
 464 454 464 454 446.5 487.5 c 128,-1,28
 429 521 429 521 393.5 538.5 c 128,-1,29
 358 556 358 556 299 556 c 0,30,31
 277 556 277 556 247.5 550.5 c 128,-1,32
 218 545 218 545 193 534 c 0,33,34
 158 518 158 518 132.5 524.5 c 128,-1,35
 107 531 107 531 93.5 550.5 c 128,-1,36
 80 570 80 570 80 595 c 128,-1,37
 80 620 80 620 94 643 c 128,-1,38
 108 666 108 666 138 678 c 0,39,40
 182 697 182 697 229 706.5 c 128,-1,41
 276 716 276 716 318 716 c 0,42,43
 418 716 418 716 494.5 679.5 c 128,-1,44
 571 643 571 643 614.5 571 c 128,-1,45
 658 499 658 499 658 392 c 0,46,47
 658 307 658 307 632 234 c 128,-1,48
 606 161 606 161 555.5 106 c 128,-1,49
 505 51 505 51 430.5 20 c 128,-1,50
 356 -11 356 -11 259 -11 c 0,0,1
EndSplineSet
EndChar

StartChar: uni040B
Encoding: 1035 1035 580
Width: 887
GlyphClass: 1
Flags: W
LayerCount: 2
Fore
SplineSet
284 -9 m 0,0,1
 241 -9 241 -9 219.5 19 c 128,-1,2
 198 47 198 47 207 97 c 2,3,-1
 279 555 l 1,4,-1
 137 555 l 2,5,6
 99 555 99 555 78 571.5 c 128,-1,7
 57 588 57 588 57 616 c 0,8,9
 57 658 57 658 81 681.5 c 128,-1,10
 105 705 105 705 147 705 c 2,11,-1
 630 705 l 2,12,13
 668 705 668 705 688.5 689 c 128,-1,14
 709 673 709 673 709 645 c 0,15,16
 709 603 709 603 685.5 579 c 128,-1,17
 662 555 662 555 620 555 c 2,18,-1
 463 555 l 1,19,-1
 443 430 l 1,20,21
 466 438 466 438 500.5 444 c 128,-1,22
 535 450 535 450 571 450 c 0,23,24
 659 450 659 450 720.5 412.5 c 128,-1,25
 782 375 782 375 810.5 305.5 c 128,-1,26
 839 236 839 236 823 138 c 2,27,-1
 814 82 l 2,28,29
 807 35 807 35 780 13 c 128,-1,30
 753 -9 753 -9 712 -9 c 0,31,32
 665 -9 665 -9 645 19 c 128,-1,33
 625 47 625 47 634 99 c 2,34,-1
 641 140 l 2,35,36
 654 224 654 224 626 260 c 128,-1,37
 598 296 598 296 530 296 c 0,38,39
 504 296 504 296 473.5 291.5 c 128,-1,40
 443 287 443 287 418 276 c 1,41,-1
 388 82 l 2,42,43
 381 37 381 37 355.5 14 c 128,-1,44
 330 -9 330 -9 284 -9 c 0,0,1
EndSplineSet
EndChar

StartChar: uni042E
Encoding: 1070 1070 581
Width: 1087
GlyphClass: 1
Flags: W
AnchorPoint: "Anchor-0" 617 676 basechar 0
LayerCount: 2
Fore
SplineSet
680 -11 m 0,0,1
 585 -11 585 -11 513 24 c 128,-1,2
 441 59 441 59 399.5 124.5 c 128,-1,3
 358 190 358 190 352 282 c 1,4,-1
 254 282 l 1,5,-1
 222 83 l 2,6,7
 215 36 215 36 189.5 13.5 c 128,-1,8
 164 -9 164 -9 118 -9 c 256,9,10
 72 -9 72 -9 52 19 c 128,-1,11
 32 47 32 47 41 99 c 2,12,-1
 124 623 l 2,13,14
 131 669 131 669 157 691.5 c 128,-1,15
 183 714 183 714 228 714 c 0,16,17
 275 714 275 714 294.5 685.5 c 128,-1,18
 314 657 314 657 305 606 c 2,19,-1
 278 433 l 1,20,-1
 367 433 l 1,21,22
 389 519 389 519 439.5 582.5 c 128,-1,23
 490 646 490 646 564 681 c 128,-1,24
 638 716 638 716 729 716 c 0,25,26
 828 716 828 716 902 678.5 c 128,-1,27
 976 641 976 641 1017.5 570.5 c 128,-1,28
 1059 500 1059 500 1059 401 c 0,29,30
 1059 309 1059 309 1031.5 233.5 c 128,-1,31
 1004 158 1004 158 954 103 c 128,-1,32
 904 48 904 48 834 18.5 c 128,-1,33
 764 -11 764 -11 680 -11 c 0,0,1
682 143 m 0,34,35
 740 143 740 143 782 175 c 128,-1,36
 824 207 824 207 846 264.5 c 128,-1,37
 868 322 868 322 868 397 c 0,38,39
 868 481 868 481 829.5 521.5 c 128,-1,40
 791 562 791 562 726 562 c 0,41,42
 669 562 669 562 627.5 530 c 128,-1,43
 586 498 586 498 564 441 c 128,-1,44
 542 384 542 384 542 308 c 0,45,46
 542 225 542 225 580 184 c 128,-1,47
 618 143 618 143 682 143 c 0,34,35
EndSplineSet
EndChar

StartChar: uni042F
Encoding: 1071 1071 582
Width: 710
GlyphClass: 1
Flags: W
AnchorPoint: "Anchor-0" 437 690 basechar 0
LayerCount: 2
Fore
SplineSet
513 -9 m 0,0,1
 470 -9 470 -9 450 19 c 128,-1,2
 430 47 430 47 438 99 c 2,3,-1
 465 263 l 1,4,-1
 419 263 l 2,5,6
 404 263 404 263 390 259 c 128,-1,7
 376 255 376 255 363.5 247 c 128,-1,8
 351 239 351 239 341 224 c 2,9,-1
 210 33 l 2,10,11
 190 4 190 4 163.5 -5 c 128,-1,12
 137 -14 137 -14 111.5 -6 c 128,-1,13
 86 2 86 2 68.5 21.5 c 128,-1,14
 51 41 51 41 49 69 c 128,-1,15
 47 97 47 97 69 128 c 2,16,-1
 119 200 l 2,17,18
 147 242 147 242 182.5 262.5 c 128,-1,19
 218 283 218 283 260 283 c 2,20,-1
 307 283 l 1,21,-1
 312 265 l 1,22,23
 207 272 207 272 149.5 324.5 c 128,-1,24
 92 377 92 377 92 467 c 0,25,26
 92 550 92 550 128.5 602.5 c 128,-1,27
 165 655 165 655 228.5 680 c 128,-1,28
 292 705 292 705 371 705 c 2,29,-1
 613 705 l 2,30,31
 664 705 664 705 686.5 678.5 c 128,-1,32
 709 652 709 652 701 603 c 2,33,-1
 619 82 l 2,34,35
 612 36 612 36 585 13.5 c 128,-1,36
 558 -9 558 -9 513 -9 c 0,0,1
374 393 m 2,37,-1
 485 393 l 1,38,-1
 513 564 l 1,39,-1
 379 564 l 2,40,41
 325 564 325 564 296.5 540.5 c 128,-1,42
 268 517 268 517 268 470 c 0,43,44
 268 431 268 431 293.5 412 c 128,-1,45
 319 393 319 393 374 393 c 2,37,-1
EndSplineSet
EndChar

StartChar: uni0402
Encoding: 1026 1026 583
Width: 904
GlyphClass: 1
Flags: W
LayerCount: 2
Fore
SplineSet
562 -191 m 0,0,1
 543 -191 543 -191 522.5 -189.5 c 128,-1,2
 502 -188 502 -188 485 -185 c 0,3,4
 458 -180 458 -180 444 -164 c 128,-1,5
 430 -148 430 -148 428 -127.5 c 128,-1,6
 426 -107 426 -107 434.5 -87.5 c 128,-1,7
 443 -68 443 -68 459.5 -56 c 128,-1,8
 476 -44 476 -44 498 -47 c 0,9,10
 509 -48 509 -48 517 -48.5 c 128,-1,11
 525 -49 525 -49 533 -49 c 0,12,13
 576 -49 576 -49 606 -19.5 c 128,-1,14
 636 10 636 10 644 63 c 2,15,-1
 655 130 l 2,16,17
 669 214 669 214 633.5 255 c 128,-1,18
 598 296 598 296 530 296 c 0,19,20
 503 296 503 296 473 291.5 c 128,-1,21
 443 287 443 287 419 276 c 1,22,-1
 388 82 l 2,23,24
 381 37 381 37 355.5 14 c 128,-1,25
 330 -9 330 -9 284 -9 c 0,26,27
 241 -9 241 -9 220 19 c 128,-1,28
 199 47 199 47 207 98 c 2,29,-1
 279 555 l 1,30,-1
 137 555 l 2,31,32
 99 555 99 555 78 571.5 c 128,-1,33
 57 588 57 588 57 616 c 0,34,35
 57 658 57 658 81 681.5 c 128,-1,36
 105 705 105 705 147 705 c 2,37,-1
 630 705 l 2,38,39
 668 705 668 705 688.5 689 c 128,-1,40
 709 673 709 673 709 645 c 0,41,42
 709 603 709 603 685.5 579 c 128,-1,43
 662 555 662 555 620 555 c 2,44,-1
 463 555 l 1,45,-1
 443 430 l 1,46,47
 466 438 466 438 500 444 c 128,-1,48
 534 450 534 450 570 450 c 0,49,50
 636 450 636 450 690.5 429 c 128,-1,51
 745 408 745 408 782.5 367.5 c 128,-1,52
 820 327 820 327 836 268.5 c 128,-1,53
 852 210 852 210 840 136 c 2,54,-1
 830 71 l 2,55,56
 817 -13 817 -13 780.5 -71.5 c 128,-1,57
 744 -130 744 -130 688.5 -160.5 c 128,-1,58
 633 -191 633 -191 562 -191 c 0,0,1
EndSplineSet
EndChar

StartChar: uni0462
Encoding: 1122 1122 584
Width: 767
GlyphClass: 1
Flags: W
LayerCount: 2
Fore
SplineSet
213 0 m 2,0,1
 164 0 164 0 141 26.5 c 128,-1,2
 118 53 118 53 125 102 c 2,3,-1
 190 506 l 1,4,-1
 92 506 l 2,5,6
 55 506 55 506 36 523.5 c 128,-1,7
 17 541 17 541 23 571 c 0,8,9
 33 635 33 635 101 635 c 2,10,-1
 250 635 l 1,11,-1
 200 570 l 1,12,-1
 209 628 l 2,13,14
 216 672 216 672 241.5 693 c 128,-1,15
 267 714 267 714 310 714 c 256,16,17
 353 714 353 714 372.5 688 c 128,-1,18
 392 662 392 662 384 614 c 2,19,-1
 377 570 l 1,20,-1
 350 635 l 1,21,-1
 552 635 l 2,22,23
 589 635 589 635 607.5 618 c 128,-1,24
 626 601 626 601 621 571 c 0,25,26
 610 506 610 506 543 506 c 2,27,-1
 368 506 l 1,28,-1
 355 431 l 1,29,-1
 481 431 l 2,30,31
 609 431 609 431 672 377.5 c 128,-1,32
 735 324 735 324 735 240 c 0,33,34
 735 126 735 126 662 63 c 128,-1,35
 589 0 589 0 445 0 c 2,36,-1
 213 0 l 2,0,1
309 139 m 1,37,-1
 449 139 l 2,38,39
 504 139 504 139 532 160.5 c 128,-1,40
 560 182 560 182 560 224 c 0,41,42
 560 259 560 259 537.5 275.5 c 128,-1,43
 515 292 515 292 456 292 c 2,44,-1
 334 292 l 1,45,-1
 309 139 l 1,37,-1
EndSplineSet
EndChar

StartChar: uni046A
Encoding: 1130 1130 585
Width: 1073
GlyphClass: 1
Flags: W
LayerCount: 2
Fore
SplineSet
503 -9 m 0,0,1
 456 -9 456 -9 435 17.5 c 128,-1,2
 414 44 414 44 421 91 c 2,3,-1
 450 273 l 1,4,-1
 408 273 l 2,5,6
 363 273 363 273 333 256 c 128,-1,7
 303 239 303 239 278 198 c 2,8,-1
 179 39 l 2,9,10
 160 8 160 8 134 -2.5 c 128,-1,11
 108 -13 108 -13 81.5 -7 c 128,-1,12
 55 -1 55 -1 37.5 17.5 c 128,-1,13
 20 36 20 36 17.5 64.5 c 128,-1,14
 15 93 15 93 36 128 c 2,15,-1
 121 265 l 2,16,17
 154 317 154 317 199 351.5 c 128,-1,18
 244 386 244 386 297 403.5 c 128,-1,19
 350 421 350 421 406 421 c 2,20,-1
 433 421 l 1,21,-1
 425 381 l 1,22,-1
 266 611 l 2,23,24
 247 638 247 638 246.5 659 c 128,-1,25
 246 680 246 680 263.5 692.5 c 128,-1,26
 281 705 281 705 314 705 c 2,27,-1
 883 705 l 2,28,29
 920 705 920 705 937 691.5 c 128,-1,30
 954 678 954 678 951 656.5 c 128,-1,31
 948 635 948 635 923 610 c 2,32,-1
 692 381 l 1,33,-1
 680 421 l 1,34,-1
 704 421 l 2,35,36
 763 418 763 418 810.5 397.5 c 128,-1,37
 858 377 858 377 892 341.5 c 128,-1,38
 926 306 926 306 944 258 c 2,39,-1
 996 116 l 2,40,41
 1010 79 1010 79 1001 51.5 c 128,-1,42
 992 24 992 24 970 8 c 128,-1,43
 948 -8 948 -8 920.5 -8.5 c 128,-1,44
 893 -9 893 -9 868.5 6.5 c 128,-1,45
 844 22 844 22 832 57 c 2,46,-1
 782 198 l 2,47,48
 769 238 769 238 744 255.5 c 128,-1,49
 719 273 719 273 675 273 c 2,50,-1
 634 273 l 1,51,-1
 603 76 l 2,52,53
 597 33 597 33 571.5 12 c 128,-1,54
 546 -9 546 -9 503 -9 c 0,0,1
557 417 m 1,55,-1
 559 417 l 1,56,-1
 762 622 l 1,57,-1
 756 583 l 1,58,-1
 407 583 l 1,59,-1
 413 622 l 1,60,-1
 557 417 l 1,55,-1
EndSplineSet
EndChar

StartChar: uni0474
Encoding: 1140 1140 587
Width: 802
GlyphClass: 1
Flags: W
LayerCount: 2
Fore
SplineSet
337 -9 m 0,0,1
 298 -9 298 -9 274 10 c 128,-1,2
 250 29 250 29 239 68 c 2,3,-1
 80 600 l 2,4,5
 71 634 71 634 78.5 659 c 128,-1,6
 86 684 86 684 107.5 698.5 c 128,-1,7
 129 713 129 713 159 713 c 0,8,9
 194 713 194 713 217 696 c 128,-1,10
 240 679 240 679 252 634 c 2,11,-1
 378 171 l 1,12,-1
 322 171 l 1,13,-1
 509 500 l 2,14,15
 548 569 548 569 586.5 613.5 c 128,-1,16
 625 658 625 658 671.5 682 c 128,-1,17
 718 706 718 706 781 712 c 0,18,19
 812 714 812 714 832.5 702 c 128,-1,20
 853 690 853 690 861.5 669.5 c 128,-1,21
 870 649 870 649 866.5 627 c 128,-1,22
 863 605 863 605 846 586.5 c 128,-1,23
 829 568 829 568 799 562 c 0,24,25
 769 555 769 555 746.5 538 c 128,-1,26
 724 521 724 521 703 492.5 c 128,-1,27
 682 464 682 464 656 420 c 2,28,-1
 438 54 l 2,29,30
 419 22 419 22 395.5 6.5 c 128,-1,31
 372 -9 372 -9 337 -9 c 0,0,1
EndSplineSet
EndChar

StartChar: uni0496
Encoding: 1174 1174 588
Width: 1108
GlyphClass: 1
Flags: W
LayerCount: 2
Fore
SplineSet
968 -184 m 0,0,1
 931 -184 931 -184 914 -159.5 c 128,-1,2
 897 -135 897 -135 904 -91 c 2,3,-1
 925 44 l 1,4,-1
 961 -6 l 1,5,-1
 918 -6 l 2,6,7
 885 -6 885 -6 862 9.5 c 128,-1,8
 839 25 839 25 827 57 c 2,9,-1
 778 198 l 2,10,11
 764 237 764 237 739.5 255 c 128,-1,12
 715 273 715 273 671 273 c 2,13,-1
 627 273 l 1,14,-1
 595 72 l 2,15,16
 589 32 589 32 565 11.5 c 128,-1,17
 541 -9 541 -9 500 -9 c 0,18,19
 456 -9 456 -9 435.5 16 c 128,-1,20
 415 41 415 41 422 86 c 2,21,-1
 452 273 l 1,22,-1
 408 273 l 2,23,24
 364 273 364 273 333.5 255.5 c 128,-1,25
 303 238 303 238 278 198 c 2,26,-1
 179 39 l 2,27,28
 160 8 160 8 133.5 -2.5 c 128,-1,29
 107 -13 107 -13 81 -7 c 128,-1,30
 55 -1 55 -1 37 17.5 c 128,-1,31
 19 36 19 36 17 64.5 c 128,-1,32
 15 93 15 93 36 128 c 2,33,-1
 117 258 l 2,34,35
 162 330 162 330 215.5 366.5 c 128,-1,36
 269 403 269 403 340 416 c 1,37,-1
 275 367 l 1,38,-1
 169 589 l 2,39,40
 152 623 152 623 159 650 c 128,-1,41
 166 677 166 677 186.5 694 c 128,-1,42
 207 711 207 711 234 714 c 128,-1,43
 261 717 261 717 286 703.5 c 128,-1,44
 311 690 311 690 326 655 c 2,45,-1
 437 405 l 1,46,-1
 411 423 l 1,47,-1
 475 423 l 1,48,-1
 508 634 l 2,49,50
 515 674 515 674 538.5 694 c 128,-1,51
 562 714 562 714 603 714 c 0,52,53
 647 714 647 714 667.5 689 c 128,-1,54
 688 664 688 664 681 619 c 2,55,-1
 650 423 l 1,56,-1
 711 423 l 1,57,-1
 685 405 l 1,58,-1
 888 674 l 2,59,60
 909 702 909 702 935 710 c 128,-1,61
 961 718 961 718 985.5 710.5 c 128,-1,62
 1010 703 1010 703 1025 683.5 c 128,-1,63
 1040 664 1040 664 1040 637 c 128,-1,64
 1040 610 1040 610 1016 581 c 2,65,-1
 846 367 l 1,66,-1
 775 416 l 1,67,68
 820 408 820 408 850.5 388 c 128,-1,69
 881 368 881 368 902 336 c 128,-1,70
 923 304 923 304 939 258 c 2,71,-1
 999 96 l 1,72,-1
 930 144 l 1,73,-1
 1006 144 l 2,74,75
 1050 144 1050 144 1071 119.5 c 128,-1,76
 1092 95 1092 95 1085 51 c 2,77,-1
 1060 -105 l 2,78,79
 1054 -145 1054 -145 1031 -164.5 c 128,-1,80
 1008 -184 1008 -184 968 -184 c 0,0,1
EndSplineSet
EndChar

StartChar: uni0498
Encoding: 1176 1176 589
Width: 628
GlyphClass: 2
Flags: W
AnchorPoint: "Anchor-2" 288 0 basechar 0
AnchorPoint: "Anchor-0" 372 705 basechar 0
LayerCount: 2
Fore
SplineSet
258 -184 m 0,0,1
 224 -184 224 -184 207 -160.5 c 128,-1,2
 190 -137 190 -137 196 -95 c 2,3,-1
 226 91 l 1,4,-1
 378 91 l 1,5,-1
 345 -109 l 2,6,7
 340 -146 340 -146 317.5 -165 c 128,-1,8
 295 -184 295 -184 258 -184 c 0,0,1
290 -11 m 0,9,10
 234 -11 234 -11 171.5 2.5 c 128,-1,11
 109 16 109 16 59 46 c 0,12,13
 37 58 37 58 28 79.5 c 128,-1,14
 19 101 19 101 21.5 123 c 128,-1,15
 24 145 24 145 37 162 c 128,-1,16
 50 179 50 179 72 184 c 128,-1,17
 94 189 94 189 123 175 c 0,18,19
 148 162 148 162 176 154.5 c 128,-1,20
 204 147 204 147 232 143.5 c 128,-1,21
 260 140 260 140 283 140 c 0,22,23
 312 140 312 140 339.5 148 c 128,-1,24
 367 156 367 156 385 174 c 128,-1,25
 403 192 403 192 403 221 c 0,26,27
 403 255 403 255 382 271 c 128,-1,28
 361 287 361 287 318 287 c 2,29,-1
 224 287 l 2,30,31
 187 287 187 287 167.5 303 c 128,-1,32
 148 319 148 319 148 346 c 0,33,34
 148 384 148 384 171 406 c 128,-1,35
 194 428 194 428 234 428 c 2,36,-1
 329 428 l 2,37,38
 377 428 377 428 405.5 446 c 128,-1,39
 434 464 434 464 434 502 c 0,40,41
 434 524 434 524 424 538.5 c 128,-1,42
 414 553 414 553 392.5 559 c 128,-1,43
 371 565 371 565 337 565 c 0,44,45
 306 565 306 565 270.5 559 c 128,-1,46
 235 553 235 553 206 541 c 0,47,48
 173 527 173 527 148 533 c 128,-1,49
 123 539 123 539 109 556.5 c 128,-1,50
 95 574 95 574 94 597 c 128,-1,51
 93 620 93 620 107.5 642 c 128,-1,52
 122 664 122 664 153 676 c 0,53,54
 200 696 200 696 255.5 706 c 128,-1,55
 311 716 311 716 363 716 c 0,56,57
 445 716 445 716 499.5 691.5 c 128,-1,58
 554 667 554 667 583 626 c 128,-1,59
 612 585 612 585 612 536 c 0,60,61
 612 461 612 461 564.5 414 c 128,-1,62
 517 367 517 367 442 354 c 1,63,-1
 442 371 l 1,64,65
 507 358 507 358 543 315 c 128,-1,66
 579 272 579 272 579 211 c 0,67,68
 579 141 579 141 545 91.5 c 128,-1,69
 511 42 511 42 446 15.5 c 128,-1,70
 381 -11 381 -11 290 -11 c 0,9,10
EndSplineSet
Substitution2: "'locl' Localized Forms in Cyrillic lookup 17 subtable" uni0498.loclCHU
Substitution2: "'locl' Localized Forms in Cyrillic lookup 16 subtable" uni0498.loclBSH
AlternateSubs2: "'aalt' Access All Alternates lookup 1 subtable" uni0498.loclBSH uni0498.loclCHU
EndChar

StartChar: uni049A
Encoding: 1178 1178 590
Width: 755
GlyphClass: 1
Flags: W
LayerCount: 2
Fore
SplineSet
615 -184 m 0,0,1
 579 -184 579 -184 561.5 -159.5 c 128,-1,2
 544 -135 544 -135 551 -91 c 2,3,-1
 573 44 l 1,4,-1
 591 -6 l 1,5,-1
 560 -6 l 2,6,7
 533 -6 533 -6 509.5 8.5 c 128,-1,8
 486 23 486 23 474 57 c 2,9,-1
 425 198 l 2,10,11
 412 238 412 238 387 255.5 c 128,-1,12
 362 273 362 273 318 273 c 2,13,-1
 252 273 l 1,14,-1
 221 77 l 2,15,16
 214 33 214 33 189 12 c 128,-1,17
 164 -9 164 -9 121 -9 c 0,18,19
 76 -9 76 -9 54 17.5 c 128,-1,20
 32 44 32 44 40 91 c 2,21,-1
 125 629 l 2,22,23
 132 671 132 671 157 692.5 c 128,-1,24
 182 714 182 714 225 714 c 0,25,26
 271 714 271 714 292 688 c 128,-1,27
 313 662 313 662 306 614 c 2,28,-1
 276 423 l 1,29,-1
 358 423 l 1,30,-1
 332 405 l 1,31,-1
 535 674 l 2,32,33
 556 702 556 702 582 710 c 128,-1,34
 608 718 608 718 632.5 710.5 c 128,-1,35
 657 703 657 703 672 683.5 c 128,-1,36
 687 664 687 664 686.5 637.5 c 128,-1,37
 686 611 686 611 663 581 c 2,38,-1
 499 367 l 1,39,-1
 422 416 l 1,40,41
 490 403 490 403 526.5 365 c 128,-1,42
 563 327 563 327 587 258 c 2,43,-1
 645 96 l 1,44,-1
 605 144 l 1,45,-1
 653 144 l 2,46,47
 698 144 698 144 719 119.5 c 128,-1,48
 740 95 740 95 733 51 c 2,49,-1
 708 -105 l 2,50,51
 702 -145 702 -145 679 -164.5 c 128,-1,52
 656 -184 656 -184 615 -184 c 0,0,1
EndSplineSet
EndChar

StartChar: uni049C
Encoding: 1180 1180 591
Width: 796
GlyphClass: 1
Flags: W
LayerCount: 2
Fore
SplineSet
121 -9 m 0,0,1
 76 -9 76 -9 54 17.5 c 128,-1,2
 32 44 32 44 40 91 c 2,3,-1
 125 629 l 2,4,5
 132 672 132 672 157 693 c 128,-1,6
 182 714 182 714 225 714 c 0,7,8
 271 714 271 714 292.5 688 c 128,-1,9
 314 662 314 662 306 614 c 2,10,-1
 276 422 l 1,11,-1
 320 422 l 1,12,-1
 339 539 l 2,13,14
 347 589 347 589 397 589 c 0,15,16
 423 589 423 589 435 574 c 128,-1,17
 447 559 447 559 443 531 c 2,18,-1
 426 422 l 1,19,-1
 426 422 l 1,20,-1
 422 420 l 1,21,-1
 615 674 l 2,22,23
 637 702 637 702 663 710.5 c 128,-1,24
 689 719 689 719 713 711.5 c 128,-1,25
 737 704 737 704 752 684.5 c 128,-1,26
 767 665 767 665 766.5 638.5 c 128,-1,27
 766 612 766 612 744 582 c 2,28,-1
 578 367 l 1,29,-1
 502 416 l 1,30,31
 548 408 548 408 578 388 c 128,-1,32
 608 368 608 368 629 336 c 128,-1,33
 650 304 650 304 667 258 c 2,34,-1
 719 116 l 2,35,36
 733 79 733 79 724 51.5 c 128,-1,37
 715 24 715 24 693 8 c 128,-1,38
 671 -8 671 -8 643.5 -9 c 128,-1,39
 616 -10 616 -10 591.5 6 c 128,-1,40
 567 22 567 22 555 57 c 2,41,-1
 506 200 l 2,42,43
 492 241 492 241 467.5 258.5 c 128,-1,44
 443 276 443 276 399 276 c 2,45,-1
 382 276 l 1,46,-1
 404 286 l 1,47,-1
 385 165 l 2,48,49
 377 115 377 115 326 115 c 0,50,51
 272 115 272 115 281 173 c 2,52,-1
 297 276 l 1,53,-1
 252 276 l 1,54,-1
 221 76 l 2,55,56
 215 33 215 33 189.5 12 c 128,-1,57
 164 -9 164 -9 121 -9 c 0,0,1
EndSplineSet
EndChar

StartChar: uni049E
Encoding: 1182 1182 592
Width: 793
GlyphClass: 1
Flags: W
LayerCount: 2
Fore
SplineSet
186 -9 m 0,0,1
 140 -9 140 -9 118.5 17.5 c 128,-1,2
 97 44 97 44 104 91 c 2,3,-1
 171 514 l 1,4,-1
 95 514 l 2,5,6
 61 514 61 514 44 529.5 c 128,-1,7
 27 545 27 545 32 573 c 0,8,9
 37 603 37 603 55 618 c 128,-1,10
 73 633 73 633 103 633 c 2,11,-1
 232 633 l 1,12,-1
 178 560 l 1,13,-1
 190 629 l 2,14,15
 196 672 196 672 221 693 c 128,-1,16
 246 714 246 714 289 714 c 0,17,18
 335 714 335 714 357 689 c 128,-1,19
 379 664 379 664 371 614 c 2,20,-1
 362 558 l 1,21,-1
 340 633 l 1,22,-1
 419 633 l 2,23,24
 453 633 453 633 469.5 617 c 128,-1,25
 486 601 486 601 482 573 c 0,26,27
 477 544 477 544 459 529 c 128,-1,28
 441 514 441 514 410 514 c 2,29,-1
 356 514 l 1,30,-1
 341 423 l 1,31,-1
 446 423 l 1,32,-1
 418 405 l 1,33,-1
 621 674 l 2,34,35
 642 702 642 702 668.5 710 c 128,-1,36
 695 718 695 718 719 711 c 128,-1,37
 743 704 743 704 758.5 684.5 c 128,-1,38
 774 665 774 665 773.5 638 c 128,-1,39
 773 611 773 611 750 581 c 2,40,-1
 576 355 l 1,41,-1
 496 416 l 1,42,43
 542 408 542 408 572 388 c 128,-1,44
 602 368 602 368 623 336 c 128,-1,45
 644 304 644 304 661 258 c 2,46,-1
 713 116 l 2,47,48
 727 79 727 79 718 51.5 c 128,-1,49
 709 24 709 24 687 8 c 128,-1,50
 665 -8 665 -8 637.5 -8.5 c 128,-1,51
 610 -9 610 -9 585.5 6.5 c 128,-1,52
 561 22 561 22 548 58 c 2,53,-1
 499 198 l 2,54,55
 485 238 485 238 460.5 255.5 c 128,-1,56
 436 273 436 273 392 273 c 2,57,-1
 317 273 l 1,58,-1
 285 76 l 2,59,60
 278 33 278 33 253.5 12 c 128,-1,61
 229 -9 229 -9 186 -9 c 0,0,1
EndSplineSet
EndChar

StartChar: uni04A0
Encoding: 1184 1184 593
Width: 854
GlyphClass: 1
Flags: W
LayerCount: 2
Fore
SplineSet
259 -9 m 0,0,1
 213 -9 213 -9 191.5 17.5 c 128,-1,2
 170 44 170 44 178 91 c 2,3,-1
 251 556 l 1,4,-1
 139 556 l 2,5,6
 99 556 99 556 78 572 c 128,-1,7
 57 588 57 588 57 617 c 0,8,9
 57 658 57 658 81.5 681.5 c 128,-1,10
 106 705 106 705 148 705 c 2,11,-1
 362 705 l 2,12,13
 408 705 408 705 429.5 679 c 128,-1,14
 451 653 451 653 443 605 c 2,15,-1
 414 423 l 1,16,-1
 496 423 l 1,17,-1
 469 405 l 1,18,-1
 673 674 l 2,19,20
 694 702 694 702 720 710 c 128,-1,21
 746 718 746 718 770.5 710.5 c 128,-1,22
 795 703 795 703 810 683.5 c 128,-1,23
 825 664 825 664 824.5 637.5 c 128,-1,24
 824 611 824 611 801 581 c 2,25,-1
 636 367 l 1,26,-1
 560 416 l 1,27,28
 628 403 628 403 664 365 c 128,-1,29
 700 327 700 327 725 258 c 2,30,-1
 776 116 l 2,31,32
 790 79 790 79 781 51 c 128,-1,33
 772 23 772 23 750 7.5 c 128,-1,34
 728 -8 728 -8 700.5 -8.5 c 128,-1,35
 673 -9 673 -9 648.5 6.5 c 128,-1,36
 624 22 624 22 612 57 c 2,37,-1
 563 198 l 2,38,39
 549 238 549 238 524.5 255.5 c 128,-1,40
 500 273 500 273 456 273 c 2,41,-1
 390 273 l 1,42,-1
 359 77 l 2,43,44
 352 33 352 33 327 12 c 128,-1,45
 302 -9 302 -9 259 -9 c 0,0,1
EndSplineSet
EndChar

StartChar: uni04A2
Encoding: 1186 1186 594
Width: 839
GlyphClass: 1
Flags: W
LayerCount: 2
Fore
SplineSet
680 -184 m 0,0,1
 639 -184 639 -184 621 -159.5 c 128,-1,2
 603 -135 603 -135 610 -91 c 2,3,-1
 624 0 l 1,4,-1
 592 0 l 2,5,6
 545 0 545 0 526.5 29 c 128,-1,7
 508 58 508 58 517 108 c 2,8,-1
 544 282 l 1,9,-1
 254 282 l 1,10,-1
 222 83 l 2,11,12
 215 36 215 36 189.5 13.5 c 128,-1,13
 164 -9 164 -9 118 -9 c 256,14,15
 72 -9 72 -9 52 19 c 128,-1,16
 32 47 32 47 41 99 c 2,17,-1
 124 623 l 2,18,19
 131 669 131 669 157 691.5 c 128,-1,20
 183 714 183 714 228 714 c 0,21,22
 275 714 275 714 294.5 685.5 c 128,-1,23
 314 657 314 657 305 606 c 2,24,-1
 278 433 l 1,25,-1
 568 433 l 1,26,-1
 599 623 l 2,27,28
 606 669 606 669 631.5 691.5 c 128,-1,29
 657 714 657 714 702 714 c 0,30,31
 749 714 749 714 768.5 686 c 128,-1,32
 788 658 788 658 779 606 c 2,33,-1
 700 112 l 1,34,-1
 663 144 l 1,35,-1
 714 144 l 2,36,37
 752 144 752 144 775 121.5 c 128,-1,38
 798 99 798 99 790 51 c 2,39,-1
 766 -105 l 2,40,41
 760 -144 760 -144 738 -164 c 128,-1,42
 716 -184 716 -184 680 -184 c 0,0,1
EndSplineSet
EndChar

StartChar: uni04A4
Encoding: 1188 1188 595
Width: 953
GlyphClass: 1
Flags: W
LayerCount: 2
Fore
SplineSet
118 -9 m 256,0,1
 72 -9 72 -9 52 19 c 128,-1,2
 32 47 32 47 41 99 c 2,3,-1
 124 623 l 2,4,5
 131 669 131 669 157 691.5 c 128,-1,6
 183 714 183 714 228 714 c 0,7,8
 275 714 275 714 294.5 685.5 c 128,-1,9
 314 657 314 657 305 606 c 2,10,-1
 278 433 l 1,11,-1
 568 433 l 1,12,-1
 598 617 l 2,13,14
 605 661 605 661 631 683 c 128,-1,15
 657 705 657 705 701 705 c 2,16,-1
 937 705 l 2,17,18
 975 705 975 705 995.5 689 c 128,-1,19
 1016 673 1016 673 1016 645 c 0,20,21
 1016 603 1016 603 992.5 579 c 128,-1,22
 969 555 969 555 927 555 c 2,23,-1
 771 555 l 1,24,-1
 696 83 l 2,25,26
 689 36 689 36 663.5 13.5 c 128,-1,27
 638 -9 638 -9 593 -9 c 0,28,29
 546 -9 546 -9 527 19.5 c 128,-1,30
 508 48 508 48 516 99 c 2,31,-1
 544 282 l 1,32,-1
 254 282 l 1,33,-1
 222 83 l 2,34,35
 215 36 215 36 189.5 13.5 c 128,-1,36
 164 -9 164 -9 118 -9 c 256,0,1
EndSplineSet
EndChar

StartChar: uni0524
Encoding: 1316 1316 596
Width: 832
GlyphClass: 1
Flags: W
LayerCount: 2
Fore
SplineSet
673 -184 m 0,0,1
 632 -184 632 -184 614 -159.5 c 128,-1,2
 596 -135 596 -135 603 -91 c 2,3,-1
 618 0 l 1,4,-1
 586 0 l 2,5,6
 539 0 539 0 520.5 29 c 128,-1,7
 502 58 502 58 510 108 c 2,8,-1
 581 555 l 1,9,-1
 297 555 l 1,10,-1
 222 78 l 2,11,12
 215 35 215 35 189.5 13 c 128,-1,13
 164 -9 164 -9 118 -9 c 0,14,15
 73 -9 73 -9 53 17 c 128,-1,16
 33 43 33 43 40 92 c 2,17,-1
 123 617 l 2,18,19
 130 661 130 661 156 683 c 128,-1,20
 182 705 182 705 226 705 c 2,21,-1
 684 705 l 2,22,23
 733 705 733 705 756 678.5 c 128,-1,24
 779 652 779 652 771 603 c 2,25,-1
 694 112 l 1,26,-1
 665 144 l 1,27,-1
 707 144 l 2,28,29
 745 144 745 144 768 121.5 c 128,-1,30
 791 99 791 99 784 51 c 2,31,-1
 759 -105 l 2,32,33
 753 -144 753 -144 731 -164 c 128,-1,34
 709 -184 709 -184 673 -184 c 0,0,1
EndSplineSet
EndChar

StartChar: uni04A8
Encoding: 1192 1192 597
Width: 866
GlyphClass: 1
Flags: W
LayerCount: 2
Fore
SplineSet
383 -11 m 0,0,1
 287 -11 287 -11 215 23.5 c 128,-1,2
 143 58 143 58 103 128 c 128,-1,3
 63 198 63 198 63 305 c 0,4,5
 63 393 63 393 88 467.5 c 128,-1,6
 113 542 113 542 161 598 c 128,-1,7
 209 654 209 654 279 685 c 128,-1,8
 349 716 349 716 439 716 c 0,9,10
 443 716 443 716 446.5 716 c 128,-1,11
 450 716 450 716 455 716 c 0,12,13
 501 714 501 714 517.5 693 c 128,-1,14
 534 672 534 672 533 640 c 0,15,16
 532 619 532 619 521.5 604 c 128,-1,17
 511 589 511 589 495.5 581 c 128,-1,18
 480 573 480 573 463 573 c 0,19,20
 452 572 452 572 439.5 571 c 128,-1,21
 427 570 427 570 412 566 c 0,22,23
 362 556 362 556 326 519.5 c 128,-1,24
 290 483 290 483 270.5 429 c 128,-1,25
 251 375 251 375 251 311 c 0,26,27
 251 242 251 242 268.5 200.5 c 128,-1,28
 286 159 286 159 320 140 c 128,-1,29
 354 121 354 121 403 121 c 0,30,31
 466 121 466 121 510.5 133.5 c 128,-1,32
 555 146 555 146 583.5 172 c 128,-1,33
 612 198 612 198 625 239 c 128,-1,34
 638 280 638 280 638 337 c 0,35,36
 638 370 638 370 626 390.5 c 128,-1,37
 614 411 614 411 589 411 c 0,38,39
 566 411 566 411 550 392.5 c 128,-1,40
 534 374 534 374 525.5 338.5 c 128,-1,41
 517 303 517 303 517 253 c 0,42,43
 517 205 517 205 537 176 c 128,-1,44
 557 147 557 147 596.5 134 c 128,-1,45
 636 121 636 121 693 121 c 0,46,47
 712 121 712 121 733.5 124 c 128,-1,48
 755 127 755 127 776 134 c 0,49,50
 804 143 804 143 824.5 136 c 128,-1,51
 845 129 845 129 855.5 112.5 c 128,-1,52
 866 96 866 96 865.5 75.5 c 128,-1,53
 865 55 865 55 853 37 c 128,-1,54
 841 19 841 19 815 10 c 0,55,56
 786 -1 786 -1 750 -6 c 128,-1,57
 714 -11 714 -11 676 -11 c 0,58,59
 609 -11 609 -11 550 11 c 128,-1,60
 491 33 491 33 447 72 c 128,-1,61
 403 111 403 111 377.5 162.5 c 128,-1,62
 352 214 352 214 352 273 c 0,63,64
 352 351 352 351 383 412.5 c 128,-1,65
 414 474 414 474 469.5 510 c 128,-1,66
 525 546 525 546 598 546 c 0,67,68
 656 546 656 546 702.5 521.5 c 128,-1,69
 749 497 749 497 776 453.5 c 128,-1,70
 803 410 803 410 803 353 c 0,71,72
 803 275 803 275 769.5 208.5 c 128,-1,73
 736 142 736 142 678 92.5 c 128,-1,74
 620 43 620 43 544.5 16 c 128,-1,75
 469 -11 469 -11 383 -11 c 0,0,1
EndSplineSet
EndChar

StartChar: uni04AA
Encoding: 1194 1194 598
Width: 688
GlyphClass: 2
Flags: W
AnchorPoint: "Anchor-2" 375 0 basechar 0
AnchorPoint: "Anchor-0" 448 705 basechar 0
LayerCount: 2
Fore
SplineSet
346 -184 m 0,0,1
 311 -184 311 -184 294.5 -160.5 c 128,-1,2
 278 -137 278 -137 284 -95 c 2,3,-1
 313 91 l 1,4,-1
 465 91 l 1,5,-1
 433 -109 l 2,6,7
 427 -146 427 -146 404.5 -165 c 128,-1,8
 382 -184 382 -184 346 -184 c 0,0,1
405 -11 m 0,9,10
 307 -11 307 -11 230 25.5 c 128,-1,11
 153 62 153 62 108 134.5 c 128,-1,12
 63 207 63 207 63 313 c 0,13,14
 63 398 63 398 89 471 c 128,-1,15
 115 544 115 544 165.5 599 c 128,-1,16
 216 654 216 654 290.5 685 c 128,-1,17
 365 716 365 716 462 716 c 0,18,19
 507 716 507 716 555.5 705.5 c 128,-1,20
 604 695 604 695 646 673 c 0,21,22
 673 659 673 659 682 636.5 c 128,-1,23
 691 614 691 614 686.5 590 c 128,-1,24
 682 566 682 566 667.5 546.5 c 128,-1,25
 653 527 653 527 631.5 519.5 c 128,-1,26
 610 512 610 512 585 523 c 0,27,28
 548 541 548 541 517.5 548.5 c 128,-1,29
 487 556 487 556 458 556 c 0,30,31
 391 556 391 556 346.5 524.5 c 128,-1,32
 302 493 302 493 279.5 439.5 c 128,-1,33
 257 386 257 386 257 320 c 0,34,35
 257 262 257 262 275 223.5 c 128,-1,36
 293 185 293 185 330.5 167 c 128,-1,37
 368 149 368 149 427 149 c 0,38,39
 453 149 453 149 480.5 155 c 128,-1,40
 508 161 508 161 536 174 c 0,41,42
 564 186 564 186 586.5 179 c 128,-1,43
 609 172 609 172 622 153 c 128,-1,44
 635 134 635 134 637 110.5 c 128,-1,45
 639 87 639 87 628 65 c 128,-1,46
 617 43 617 43 589 30 c 0,47,48
 549 9 549 9 498 -1 c 128,-1,49
 447 -11 447 -11 405 -11 c 0,9,10
EndSplineSet
Substitution2: "'locl' Localized Forms in Cyrillic lookup 17 subtable" uni04AA.loclCHU
Substitution2: "'locl' Localized Forms in Cyrillic lookup 16 subtable" uni04AA.loclBSH
AlternateSubs2: "'aalt' Access All Alternates lookup 1 subtable" uni04AA.loclBSH uni04AA.loclCHU
EndChar

StartChar: uni04AC
Encoding: 1196 1196 599
Width: 619
GlyphClass: 1
Flags: W
LayerCount: 2
Fore
SplineSet
357 -184 m 0,0,1
 317 -184 317 -184 299 -159.5 c 128,-1,2
 281 -135 281 -135 288 -91 c 2,3,-1
 303 0 l 1,4,-1
 282 0 l 2,5,6
 234 0 234 0 210.5 27 c 128,-1,7
 187 54 187 54 195 102 c 2,8,-1
 267 555 l 1,9,-1
 126 555 l 2,10,11
 88 555 88 555 67.5 571.5 c 128,-1,12
 47 588 47 588 47 616 c 0,13,14
 47 658 47 658 70.5 681.5 c 128,-1,15
 94 705 94 705 136 705 c 2,16,-1
 616 705 l 2,17,18
 654 705 654 705 674.5 689 c 128,-1,19
 695 673 695 673 695 645 c 0,20,21
 695 603 695 603 671.5 579 c 128,-1,22
 648 555 648 555 606 555 c 2,23,-1
 450 555 l 1,24,-1
 379 110 l 1,25,-1
 312 148 l 1,26,-1
 392 148 l 2,27,28
 435 148 435 148 456 123.5 c 128,-1,29
 477 99 477 99 471 55 c 2,30,-1
 445 -105 l 2,31,32
 432 -184 432 -184 357 -184 c 0,0,1
EndSplineSet
EndChar

StartChar: uni04B2
Encoding: 1202 1202 602
Width: 737
GlyphClass: 1
Flags: W
LayerCount: 2
Fore
SplineSet
596 -184 m 0,0,1
 559 -184 559 -184 542 -159.5 c 128,-1,2
 525 -135 525 -135 532 -91 c 2,3,-1
 553 44 l 1,4,-1
 588 0 l 1,5,-1
 540 0 l 2,6,7
 509 0 509 0 489 12 c 128,-1,8
 469 24 469 24 448 59 c 2,9,-1
 330 263 l 1,10,-1
 374 263 l 1,11,-1
 198 49 l 2,12,13
 171 16 171 16 149 3.5 c 128,-1,14
 127 -9 127 -9 96 -9 c 0,15,16
 60 -9 60 -9 39 11.5 c 128,-1,17
 18 32 18 32 18 62.5 c 128,-1,18
 18 93 18 93 43 121 c 2,19,-1
 287 397 l 1,20,-1
 287 315 l 1,21,-1
 124 587 l 2,22,23
 105 619 105 619 109.5 648 c 128,-1,24
 114 677 114 677 136 695.5 c 128,-1,25
 158 714 158 714 194 714 c 0,26,27
 226 714 226 714 245.5 699.5 c 128,-1,28
 265 685 265 685 287 645 c 2,29,-1
 399 448 l 1,30,-1
 355 448 l 1,31,-1
 528 656 l 2,32,33
 556 689 556 689 577.5 701.5 c 128,-1,34
 599 714 599 714 630 714 c 0,35,36
 666 714 666 714 687.5 694 c 128,-1,37
 709 674 709 674 710 644 c 128,-1,38
 711 614 711 614 686 586 c 2,39,-1
 445 314 l 1,40,-1
 445 398 l 1,41,-1
 624 100 l 1,42,-1
 566 144 l 1,43,-1
 634 144 l 2,44,45
 678 144 678 144 699 119.5 c 128,-1,46
 720 95 720 95 713 51 c 2,47,-1
 688 -105 l 2,48,49
 682 -145 682 -145 659 -164.5 c 128,-1,50
 636 -184 636 -184 596 -184 c 0,0,1
EndSplineSet
EndChar

StartChar: uni04B4
Encoding: 1204 1204 603
Width: 975
GlyphClass: 1
Flags: W
LayerCount: 2
Fore
SplineSet
810 -184 m 0,0,1
 770 -184 770 -184 752 -159.5 c 128,-1,2
 734 -135 734 -135 741 -91 c 2,3,-1
 756 0 l 1,4,-1
 268 0 l 2,5,6
 220 0 220 0 196 27 c 128,-1,7
 172 54 172 54 180 102 c 2,8,-1
 252 555 l 1,9,-1
 138 555 l 2,10,11
 99 555 99 555 78.5 571.5 c 128,-1,12
 58 588 58 588 58 616 c 0,13,14
 58 658 58 658 82 681.5 c 128,-1,15
 106 705 106 705 148 705 c 2,16,-1
 540 705 l 2,17,18
 578 705 578 705 598.5 689 c 128,-1,19
 619 673 619 673 619 645 c 0,20,21
 619 603 619 603 595.5 579 c 128,-1,22
 572 555 572 555 530 555 c 2,23,-1
 435 555 l 1,24,-1
 371 150 l 1,25,-1
 655 150 l 1,26,-1
 730 628 l 2,27,28
 737 671 737 671 761.5 692.5 c 128,-1,29
 786 714 786 714 828 714 c 0,30,31
 876 714 876 714 897.5 688 c 128,-1,32
 919 662 919 662 912 614 c 2,33,-1
 832 110 l 1,34,-1
 765 150 l 1,35,-1
 844 150 l 2,36,37
 887 150 887 150 908.5 125 c 128,-1,38
 930 100 930 100 924 56 c 2,39,-1
 898 -105 l 2,40,41
 885 -184 885 -184 810 -184 c 0,0,1
EndSplineSet
EndChar

StartChar: uni04B6
Encoding: 1206 1206 604
Width: 774
GlyphClass: 1
Flags: W
LayerCount: 2
Fore
SplineSet
473 248 m 1,0,1
 450 239 450 239 417.5 233 c 128,-1,2
 385 227 385 227 349 227 c 0,3,4
 261 227 261 227 198.5 264.5 c 128,-1,5
 136 302 136 302 107.5 371.5 c 128,-1,6
 79 441 79 441 94 539 c 2,7,-1
 107 623 l 2,8,9
 114 669 114 669 141 691.5 c 128,-1,10
 168 714 168 714 210 714 c 0,11,12
 257 714 257 714 276 685.5 c 128,-1,13
 295 657 295 657 288 607 c 2,14,-1
 277 537 l 2,15,16
 264 454 264 454 291.5 417.5 c 128,-1,17
 319 381 319 381 387 381 c 0,18,19
 413 381 413 381 443 386 c 128,-1,20
 473 391 473 391 497 401 c 1,21,-1
 533 623 l 2,22,23
 541 669 541 669 567.5 691.5 c 128,-1,24
 594 714 594 714 635 714 c 0,25,26
 683 714 683 714 702 685.5 c 128,-1,27
 721 657 721 657 714 607 c 2,28,-1
 636 112 l 1,29,-1
 608 144 l 1,30,-1
 650 144 l 2,31,32
 688 144 688 144 711 121.5 c 128,-1,33
 734 99 734 99 727 51 c 2,34,-1
 702 -105 l 2,35,36
 696 -144 696 -144 674 -164 c 128,-1,37
 652 -184 652 -184 616 -184 c 0,38,39
 575 -184 575 -184 557 -159.5 c 128,-1,40
 539 -135 539 -135 546 -91 c 2,41,-1
 560 0 l 1,42,-1
 529 0 l 2,43,44
 482 0 482 0 463.5 29 c 128,-1,45
 445 58 445 58 452 108 c 2,46,-1
 473 248 l 1,0,1
EndSplineSet
EndChar

StartChar: uni04B8
Encoding: 1208 1208 605
Width: 721
GlyphClass: 1
Flags: W
LayerCount: 2
Fore
SplineSet
529 -9 m 0,0,1
 482 -9 482 -9 462 18.5 c 128,-1,2
 442 46 442 46 450 97 c 2,3,-1
 473 248 l 1,4,5
 458 241 458 241 437.5 236.5 c 128,-1,6
 417 232 417 232 394 230 c 1,7,-1
 408 241 l 1,8,-1
 392 143 l 2,9,10
 384 93 384 93 333 93 c 0,11,12
 308 93 308 93 296 108 c 128,-1,13
 284 123 284 123 288 151 c 2,14,-1
 302 240 l 1,15,-1
 314 229 l 1,16,17
 237 236 237 236 182.5 275.5 c 128,-1,18
 128 315 128 315 104 382 c 128,-1,19
 80 449 80 449 94 539 c 2,20,-1
 107 623 l 2,21,22
 114 669 114 669 141 691.5 c 128,-1,23
 168 714 168 714 210 714 c 0,24,25
 257 714 257 714 276 685.5 c 128,-1,26
 295 657 295 657 288 607 c 2,27,-1
 277 537 l 2,28,29
 267 472 267 472 281.5 436 c 128,-1,30
 296 400 296 400 336 388 c 1,31,-1
 325 381 l 1,32,-1
 343 494 l 2,33,34
 351 543 351 543 401 543 c 0,35,36
 427 543 427 543 439 528 c 128,-1,37
 451 513 451 513 447 485 c 2,38,-1
 429 374 l 1,39,-1
 414 382 l 1,40,41
 436 384 436 384 457.5 389 c 128,-1,42
 479 394 479 394 497 401 c 1,43,-1
 533 623 l 2,44,45
 541 669 541 669 567.5 691.5 c 128,-1,46
 594 714 594 714 635 714 c 0,47,48
 682 714 682 714 701.5 685.5 c 128,-1,49
 721 657 721 657 714 607 c 2,50,-1
 632 82 l 2,51,52
 625 36 625 36 598 13.5 c 128,-1,53
 571 -9 571 -9 529 -9 c 0,0,1
EndSplineSet
EndChar

StartChar: uni04BA
Encoding: 1210 1210 606
Width: 721
GlyphClass: 2
Flags: W
LayerCount: 2
Fore
SplineSet
121 -9 m 0,0,1
 73 -9 73 -9 53 19.5 c 128,-1,2
 33 48 33 48 41 99 c 2,3,-1
 124 623 l 2,4,5
 131 669 131 669 158 691.5 c 128,-1,6
 185 714 185 714 226 714 c 0,7,8
 274 714 274 714 293.5 686.5 c 128,-1,9
 313 659 313 659 305 607 c 2,10,-1
 282 457 l 1,11,12
 305 466 305 466 340 472 c 128,-1,13
 375 478 375 478 410 478 c 0,14,15
 498 478 498 478 560 441 c 128,-1,16
 622 404 622 404 649.5 334 c 128,-1,17
 677 264 677 264 662 166 c 2,18,-1
 649 82 l 2,19,20
 642 36 642 36 615 13.5 c 128,-1,21
 588 -9 588 -9 546 -9 c 0,22,23
 500 -9 500 -9 480.5 19.5 c 128,-1,24
 461 48 461 48 468 99 c 2,25,-1
 479 168 l 2,26,27
 492 252 492 252 464.5 288 c 128,-1,28
 437 324 437 324 369 324 c 0,29,30
 343 324 343 324 313 319.5 c 128,-1,31
 283 315 283 315 258 304 c 1,32,-1
 222 82 l 2,33,34
 215 36 215 36 188.5 13.5 c 128,-1,35
 162 -9 162 -9 121 -9 c 0,0,1
EndSplineSet
EndChar

StartChar: uni0526
Encoding: 1318 1318 607
Width: 774
GlyphClass: 1
Flags: W
LayerCount: 2
Fore
SplineSet
479 168 m 2,0,1
 492 252 492 252 464.5 288 c 128,-1,2
 437 324 437 324 369 324 c 0,3,4
 343 324 343 324 313 319.5 c 128,-1,5
 283 315 283 315 258 304 c 1,6,-1
 222 82 l 2,7,8
 215 36 215 36 188.5 13.5 c 128,-1,9
 162 -9 162 -9 121 -9 c 0,10,11
 73 -9 73 -9 53 19.5 c 128,-1,12
 33 48 33 48 41 99 c 2,13,-1
 124 623 l 2,14,15
 131 669 131 669 158 691.5 c 128,-1,16
 185 714 185 714 226 714 c 0,17,18
 274 714 274 714 293.5 686.5 c 128,-1,19
 313 659 313 659 305 607 c 2,20,-1
 282 457 l 1,21,22
 305 466 305 466 340 472 c 128,-1,23
 375 478 375 478 410 478 c 0,24,25
 498 478 498 478 560 441 c 128,-1,26
 622 404 622 404 649.5 334 c 128,-1,27
 677 264 677 264 662 166 c 2,28,-1
 654 115 l 1,29,-1
 625 144 l 1,30,-1
 667 144 l 2,31,32
 705 144 705 144 728 121.5 c 128,-1,33
 751 99 751 99 744 51 c 2,34,-1
 719 -105 l 2,35,36
 713 -144 713 -144 691 -164 c 128,-1,37
 669 -184 669 -184 633 -184 c 0,38,39
 592 -184 592 -184 574 -159.5 c 128,-1,40
 556 -135 556 -135 563 -91 c 2,41,-1
 577 0 l 1,42,-1
 546 0 l 2,43,44
 499 0 499 0 481 29 c 128,-1,45
 463 58 463 58 470 108 c 2,46,-1
 479 168 l 2,0,1
EndSplineSet
EndChar

StartChar: uni04BC
Encoding: 1212 1212 608
Width: 1010
GlyphClass: 2
Flags: W
AnchorPoint: "Anchor-3" 683 0 basechar 0
LayerCount: 2
Fore
SplineSet
635 -11 m 0,0,1
 525 -11 525 -11 442.5 28.5 c 128,-1,2
 360 68 360 68 314.5 142 c 128,-1,3
 269 216 269 216 269 319 c 1,4,-1
 302 282 l 1,5,-1
 250 282 l 2,6,7
 178 282 178 282 128.5 307 c 128,-1,8
 79 332 79 332 57.5 376 c 128,-1,9
 36 420 36 420 46 477 c 2,10,-1
 49 496 l 1,11,12
 64 558 64 558 142 558 c 0,13,14
 183 558 183 558 207 540.5 c 128,-1,15
 231 523 231 523 226 486 c 0,16,17
 225 479 225 479 224.5 473 c 128,-1,18
 224 467 224 467 225 461 c 0,19,20
 225 442 225 442 235.5 432.5 c 128,-1,21
 246 423 246 423 269 423 c 2,22,-1
 311 423 l 1,23,-1
 274 392 l 1,24,25
 284 456 284 456 311.5 514.5 c 128,-1,26
 339 573 339 573 386 618.5 c 128,-1,27
 433 664 433 664 499 690 c 128,-1,28
 565 716 565 716 651 716 c 0,29,30
 738 716 738 716 799 690.5 c 128,-1,31
 860 665 860 665 899 622.5 c 128,-1,32
 938 580 938 580 958.5 530.5 c 128,-1,33
 979 481 979 481 983.5 432.5 c 128,-1,34
 988 384 988 384 980 346 c 0,35,36
 973 316 973 316 958.5 302.5 c 128,-1,37
 944 289 944 289 926.5 285.5 c 128,-1,38
 909 282 909 282 894 282 c 2,39,-1
 423 282 l 1,40,-1
 460 318 l 1,41,42
 458 263 458 263 480 223.5 c 128,-1,43
 502 184 502 184 546 163.5 c 128,-1,44
 590 143 590 143 653 143 c 0,45,46
 698 143 698 143 742.5 152.5 c 128,-1,47
 787 162 787 162 825 179 c 0,48,49
 854 191 854 191 875.5 183.5 c 128,-1,50
 897 176 897 176 909.5 156.5 c 128,-1,51
 922 137 922 137 924 113.5 c 128,-1,52
 926 90 926 90 914.5 69 c 128,-1,53
 903 48 903 48 876 37 c 0,54,55
 823 14 823 14 763 1.5 c 128,-1,56
 703 -11 703 -11 635 -11 c 0,0,1
651 570 m 0,57,58
 596 570 596 570 557.5 546 c 128,-1,59
 519 522 519 522 496.5 480.5 c 128,-1,60
 474 439 474 439 465 386 c 1,61,-1
 435 423 l 1,62,-1
 854 423 l 1,63,-1
 803 352 l 1,64,65
 815 422 815 422 798.5 470.5 c 128,-1,66
 782 519 782 519 744.5 544.5 c 128,-1,67
 707 570 707 570 651 570 c 0,57,58
EndSplineSet
EndChar

StartChar: uni04C3
Encoding: 1219 1219 612
Width: 738
GlyphClass: 1
Flags: W
LayerCount: 2
Fore
SplineSet
398 -191 m 0,0,1
 379 -191 379 -191 358 -189.5 c 128,-1,2
 337 -188 337 -188 319 -185 c 0,3,4
 292 -180 292 -180 278 -164 c 128,-1,5
 264 -148 264 -148 261.5 -127.5 c 128,-1,6
 259 -107 259 -107 267 -87.5 c 128,-1,7
 275 -68 275 -68 291 -56 c 128,-1,8
 307 -44 307 -44 329 -46 c 0,9,10
 341 -48 341 -48 350 -48.5 c 128,-1,11
 359 -49 359 -49 368 -49 c 0,12,13
 410 -49 410 -49 440 -19.5 c 128,-1,14
 470 10 470 10 479 62 c 2,15,-1
 488 121 l 2,16,17
 498 178 498 178 483.5 214 c 128,-1,18
 469 250 469 250 436.5 266.5 c 128,-1,19
 404 283 404 283 358 283 c 2,20,-1
 254 283 l 1,21,-1
 221 76 l 2,22,23
 214 32 214 32 189 11.5 c 128,-1,24
 164 -9 164 -9 121 -9 c 0,25,26
 76 -9 76 -9 54 17.5 c 128,-1,27
 32 44 32 44 40 91 c 2,28,-1
 125 628 l 2,29,30
 132 671 132 671 157 692.5 c 128,-1,31
 182 714 182 714 225 714 c 0,32,33
 271 714 271 714 292.5 688 c 128,-1,34
 314 662 314 662 306 614 c 2,35,-1
 278 433 l 1,36,-1
 374 433 l 1,37,-1
 343 405 l 1,38,-1
 547 674 l 2,39,40
 568 702 568 702 594 710 c 128,-1,41
 620 718 620 718 644 710.5 c 128,-1,42
 668 703 668 703 683 683.5 c 128,-1,43
 698 664 698 664 697.5 637.5 c 128,-1,44
 697 611 697 611 674 581 c 2,45,-1
 509 367 l 1,46,-1
 457 426 l 1,47,48
 530 415 530 415 584 379.5 c 128,-1,49
 638 344 638 344 662.5 281.5 c 128,-1,50
 687 219 687 219 672 127 c 2,51,-1
 661 64 l 2,52,53
 648 -20 648 -20 612.5 -76.5 c 128,-1,54
 577 -133 577 -133 522.5 -162 c 128,-1,55
 468 -191 468 -191 398 -191 c 0,0,1
EndSplineSet
EndChar

StartChar: uni04C5
Encoding: 1221 1221 613
Width: 805
GlyphClass: 1
Flags: W
LayerCount: 2
Fore
SplineSet
672 -137 m 2,0,1
 659 -163 659 -163 637.5 -174.5 c 128,-1,2
 616 -186 616 -186 594 -184 c 128,-1,3
 572 -182 572 -182 555.5 -169 c 128,-1,4
 539 -156 539 -156 534.5 -133.5 c 128,-1,5
 530 -111 530 -111 545 -82 c 2,6,-1
 608 46 l 1,7,-1
 627 0 l 1,8,-1
 572 0 l 2,9,10
 524 0 524 0 505 24 c 128,-1,11
 486 48 486 48 494 99 c 2,12,-1
 567 555 l 1,13,-1
 382 555 l 1,14,-1
 362 428 l 2,15,16
 349 348 349 348 328.5 282.5 c 128,-1,17
 308 217 308 217 278 164.5 c 128,-1,18
 248 112 248 112 207 72 c 128,-1,19
 166 32 166 32 112 2 c 0,20,21
 79 -16 79 -16 47.5 -10.5 c 128,-1,22
 16 -5 16 -5 -4 27 c 0,23,24
 -23 60 -23 60 -12.5 89 c 128,-1,25
 -2 118 -2 118 31 138 c 0,26,27
 66 160 66 160 93 190.5 c 128,-1,28
 120 221 120 221 140.5 261.5 c 128,-1,29
 161 302 161 302 175.5 355.5 c 128,-1,30
 190 409 190 409 201 476 c 2,31,-1
 223 617 l 2,32,33
 230 661 230 661 256 683 c 128,-1,34
 282 705 282 705 326 705 c 2,35,-1
 670 705 l 2,36,37
 719 705 719 705 742 678.5 c 128,-1,38
 765 652 765 652 757 603 c 2,39,-1
 676 94 l 1,40,-1
 643 144 l 1,41,-1
 698 144 l 2,42,43
 747 144 747 144 765.5 116.5 c 128,-1,44
 784 89 784 89 762 42 c 2,45,-1
 672 -137 l 2,0,1
EndSplineSet
EndChar

StartChar: uni04C7
Encoding: 1223 1223 614
Width: 786
GlyphClass: 1
Flags: W
LayerCount: 2
Fore
SplineSet
440 -190 m 0,0,1
 406 -191 406 -191 389 -173 c 128,-1,2
 372 -155 372 -155 371.5 -130 c 128,-1,3
 371 -105 371 -105 386.5 -85 c 128,-1,4
 402 -65 402 -65 432 -62 c 0,5,6
 461 -60 461 -60 478 -44.5 c 128,-1,7
 495 -29 495 -29 500 3 c 2,8,-1
 544 282 l 1,9,-1
 254 282 l 1,10,-1
 222 83 l 2,11,12
 215 36 215 36 189.5 13.5 c 128,-1,13
 164 -9 164 -9 118 -9 c 256,14,15
 72 -9 72 -9 52 19 c 128,-1,16
 32 47 32 47 41 99 c 2,17,-1
 124 623 l 2,18,19
 131 669 131 669 157 691.5 c 128,-1,20
 183 714 183 714 228 714 c 0,21,22
 275 714 275 714 294.5 685.5 c 128,-1,23
 314 657 314 657 305 606 c 2,24,-1
 278 433 l 1,25,-1
 568 433 l 1,26,-1
 598 623 l 2,27,28
 605 669 605 669 631 691.5 c 128,-1,29
 657 714 657 714 702 714 c 0,30,31
 749 714 749 714 768 686 c 128,-1,32
 787 658 787 658 779 606 c 2,33,-1
 687 27 l 2,34,35
 676 -46 676 -46 647.5 -93.5 c 128,-1,36
 619 -141 619 -141 568.5 -165 c 128,-1,37
 518 -189 518 -189 440 -190 c 0,0,1
EndSplineSet
EndChar

StartChar: uni04C9
Encoding: 1225 1225 615
Width: 827
GlyphClass: 1
Flags: W
LayerCount: 2
Fore
SplineSet
694 -137 m 2,0,1
 680 -163 680 -163 659 -174.5 c 128,-1,2
 638 -186 638 -186 615.5 -184 c 128,-1,3
 593 -182 593 -182 577 -169 c 128,-1,4
 561 -156 561 -156 556.5 -133.5 c 128,-1,5
 552 -111 552 -111 566 -82 c 2,6,-1
 630 46 l 1,7,-1
 649 0 l 1,8,-1
 593 0 l 2,9,10
 546 0 546 0 527 24 c 128,-1,11
 508 48 508 48 516 99 c 2,12,-1
 544 282 l 1,13,-1
 254 282 l 1,14,-1
 222 83 l 2,15,16
 215 36 215 36 189.5 13.5 c 128,-1,17
 164 -9 164 -9 118 -9 c 256,18,19
 72 -9 72 -9 52 19 c 128,-1,20
 32 47 32 47 41 99 c 2,21,-1
 124 623 l 2,22,23
 131 669 131 669 157 691.5 c 128,-1,24
 183 714 183 714 228 714 c 0,25,26
 275 714 275 714 294.5 685.5 c 128,-1,27
 314 657 314 657 305 606 c 2,28,-1
 278 433 l 1,29,-1
 568 433 l 1,30,-1
 599 623 l 2,31,32
 606 669 606 669 631.5 691.5 c 128,-1,33
 657 714 657 714 702 714 c 0,34,35
 749 714 749 714 768.5 686 c 128,-1,36
 788 658 788 658 779 606 c 2,37,-1
 698 94 l 1,38,-1
 664 144 l 1,39,-1
 719 144 l 2,40,41
 769 144 769 144 787.5 116.5 c 128,-1,42
 806 89 806 89 783 42 c 2,43,-1
 694 -137 l 2,0,1
EndSplineSet
EndChar

StartChar: uni04CB
Encoding: 1227 1227 616
Width: 760
GlyphClass: 1
Flags: W
LayerCount: 2
Fore
SplineSet
384 -184 m 0,0,1
 345 -184 345 -184 329.5 -158.5 c 128,-1,2
 314 -133 314 -133 321 -88 c 2,3,-1
 344 59 l 2,4,5
 351 101 351 101 375.5 122.5 c 128,-1,6
 400 144 400 144 437 144 c 2,7,-1
 516 144 l 1,8,-1
 449 87 l 1,9,-1
 474 248 l 1,10,11
 450 239 450 239 417.5 233 c 128,-1,12
 385 227 385 227 349 227 c 0,13,14
 261 227 261 227 198.5 264.5 c 128,-1,15
 136 302 136 302 107.5 371.5 c 128,-1,16
 79 441 79 441 94 539 c 2,17,-1
 107 623 l 2,18,19
 114 669 114 669 141 691.5 c 128,-1,20
 168 714 168 714 210 714 c 0,21,22
 257 714 257 714 276 685.5 c 128,-1,23
 295 657 295 657 288 607 c 2,24,-1
 277 537 l 2,25,26
 264 454 264 454 291.5 417.5 c 128,-1,27
 319 381 319 381 387 381 c 0,28,29
 413 381 413 381 443 386 c 128,-1,30
 473 391 473 391 497 401 c 1,31,-1
 533 623 l 2,32,33
 541 669 541 669 567.5 691.5 c 128,-1,34
 594 714 594 714 635 714 c 0,35,36
 683 714 683 714 702 685.5 c 128,-1,37
 721 657 721 657 714 607 c 2,38,-1
 632 86 l 2,39,40
 625 40 625 40 598.5 20 c 128,-1,41
 572 0 572 0 529 0 c 2,42,-1
 494 0 l 1,43,-1
 478 -99 l 2,44,45
 472 -140 472 -140 449 -162 c 128,-1,46
 426 -184 426 -184 384 -184 c 0,0,1
EndSplineSet
EndChar

StartChar: uni04CD
Encoding: 1229 1229 617
Width: 925
GlyphClass: 1
Flags: W
LayerCount: 2
Fore
SplineSet
789 -137 m 2,0,1
 775 -163 775 -163 754 -174.5 c 128,-1,2
 733 -186 733 -186 711 -184 c 128,-1,3
 689 -182 689 -182 672.5 -169 c 128,-1,4
 656 -156 656 -156 651.5 -133.5 c 128,-1,5
 647 -111 647 -111 662 -82 c 2,6,-1
 725 46 l 1,7,-1
 744 0 l 1,8,-1
 705 0 l 2,9,10
 658 0 658 0 638.5 24 c 128,-1,11
 619 48 619 48 628 99 c 2,12,-1
 680 425 l 1,13,-1
 703 425 l 1,14,-1
 494 134 l 2,15,16
 479 113 479 113 463 104 c 128,-1,17
 447 95 447 95 423 95 c 0,18,19
 397 95 397 95 382 107 c 128,-1,20
 367 119 367 119 355 144 c 2,21,-1
 238 419 l 1,22,-1
 260 419 l 1,23,-1
 204 69 l 2,24,25
 198 31 198 31 175.5 11.5 c 128,-1,26
 153 -8 153 -8 114 -8 c 0,27,28
 70 -8 70 -8 52.5 16 c 128,-1,29
 35 40 35 40 40 82 c 2,30,-1
 128 637 l 2,31,32
 135 676 135 676 157.5 695 c 128,-1,33
 180 714 180 714 218 714 c 0,34,35
 252 714 252 714 272 699.5 c 128,-1,36
 292 685 292 685 306 649 c 2,37,-1
 454 270 l 1,38,-1
 424 270 l 1,39,-1
 703 662 l 2,40,41
 723 690 723 690 745.5 702 c 128,-1,42
 768 714 768 714 802 714 c 0,43,44
 844 714 844 714 864.5 690.5 c 128,-1,45
 885 667 885 667 878 624 c 2,46,-1
 793 94 l 1,47,-1
 760 144 l 1,48,-1
 815 144 l 2,49,50
 864 144 864 144 882.5 116.5 c 128,-1,51
 901 89 901 89 878 42 c 2,52,-1
 789 -137 l 2,0,1
EndSplineSet
EndChar

StartChar: uni04E0
Encoding: 1248 1248 626
Width: 628
GlyphClass: 1
Flags: W
LayerCount: 2
Fore
SplineSet
291 -11 m 0,0,1
 233 -11 233 -11 171.5 2.5 c 128,-1,2
 110 16 110 16 59 45 c 0,3,4
 37 58 37 58 28 79 c 128,-1,5
 19 100 19 100 21.5 122.5 c 128,-1,6
 24 145 24 145 37 162.5 c 128,-1,7
 50 180 50 180 72 185 c 128,-1,8
 94 190 94 190 123 175 c 0,9,10
 160 155 160 155 205 147.5 c 128,-1,11
 250 140 250 140 284 140 c 0,12,13
 314 140 314 140 342.5 148 c 128,-1,14
 371 156 371 156 389 174.5 c 128,-1,15
 407 193 407 193 407 225 c 0,16,17
 407 252 407 252 392.5 265.5 c 128,-1,18
 378 279 378 279 358 283 c 128,-1,19
 338 287 338 287 320 287 c 2,20,-1
 230 287 l 2,21,22
 202 287 202 287 185.5 300 c 128,-1,23
 169 313 169 313 164 332 c 128,-1,24
 159 351 159 351 165.5 370.5 c 128,-1,25
 172 390 172 390 188 403 c 2,26,-1
 423 594 l 1,27,-1
 426 556 l 1,28,-1
 158 556 l 2,29,30
 114 556 114 556 94.5 573 c 128,-1,31
 75 590 75 590 75 621 c 0,32,33
 75 661 75 661 101.5 683 c 128,-1,34
 128 705 128 705 167 705 c 2,35,-1
 553 705 l 2,36,37
 584 705 584 705 601 690.5 c 128,-1,38
 618 676 618 676 621.5 653 c 128,-1,39
 625 630 625 630 612.5 604 c 128,-1,40
 600 578 600 578 571 554 c 2,41,-1
 361 382 l 1,42,-1
 321 425 l 1,43,-1
 376 425 l 2,44,45
 441 425 441 425 487.5 400.5 c 128,-1,46
 534 376 534 376 558.5 333 c 128,-1,47
 583 290 583 290 583 233 c 0,48,49
 583 166 583 166 548.5 110.5 c 128,-1,50
 514 55 514 55 449 22 c 128,-1,51
 384 -11 384 -11 291 -11 c 0,0,1
EndSplineSet
EndChar

StartChar: uni04E8
Encoding: 1256 1256 630
Width: 808
GlyphClass: 2
Flags: W
AnchorPoint: "Anchor-5" 420 353 basechar 0
AnchorPoint: "Anchor-3" 445 0 basechar 0
AnchorPoint: "Anchor-2" 371 0 basechar 0
AnchorPoint: "Anchor-1" 522 705 basechar 0
AnchorPoint: "Anchor-0" 461 705 basechar 0
LayerCount: 2
Fore
SplineSet
158 291 m 1,0,-1
 180 425 l 1,1,-1
 682 425 l 1,2,-1
 660 291 l 1,3,-1
 158 291 l 1,0,-1
396 -11 m 0,4,5
 295 -11 295 -11 220 26.5 c 128,-1,6
 145 64 145 64 103.5 134.5 c 128,-1,7
 62 205 62 205 62 305 c 0,8,9
 62 396 62 396 89.5 471.5 c 128,-1,10
 117 547 117 547 167.5 602 c 128,-1,11
 218 657 218 657 288.5 686.5 c 128,-1,12
 359 716 359 716 445 716 c 0,13,14
 547 716 547 716 622 678.5 c 128,-1,15
 697 641 697 641 738 570.5 c 128,-1,16
 779 500 779 500 779 401 c 0,17,18
 779 309 779 309 752 233.5 c 128,-1,19
 725 158 725 158 674 103 c 128,-1,20
 623 48 623 48 552.5 18.5 c 128,-1,21
 482 -11 482 -11 396 -11 c 0,4,5
398 143 m 0,22,23
 459 143 459 143 501 175 c 128,-1,24
 543 207 543 207 566 264.5 c 128,-1,25
 589 322 589 322 589 397 c 0,26,27
 589 481 589 481 549.5 521.5 c 128,-1,28
 510 562 510 562 442 562 c 0,29,30
 383 562 383 562 340.5 530 c 128,-1,31
 298 498 298 498 275.5 441 c 128,-1,32
 253 384 253 384 253 308 c 0,33,34
 253 225 253 225 292 184 c 128,-1,35
 331 143 331 143 398 143 c 0,22,23
EndSplineSet
EndChar

StartChar: uni04FA
Encoding: 1274 1274 638
Width: 628
GlyphClass: 1
Flags: W
LayerCount: 2
Fore
SplineSet
88 -184 m 2,0,1
 61 -185 61 -185 42.5 -172 c 128,-1,2
 24 -159 24 -159 21 -130 c 256,3,4
 18 -101 18 -101 34 -84.5 c 128,-1,5
 50 -68 50 -68 78 -66 c 2,6,-1
 89 -65 l 2,7,8
 135 -61 135 -61 161 -43.5 c 128,-1,9
 187 -26 187 -26 191 0 c 1,10,-1
 160 0 l 2,11,12
 120 0 120 0 101 22 c 128,-1,13
 82 44 82 44 88 84 c 2,14,-1
 118 277 l 1,15,-1
 98 277 l 2,16,17
 65 277 65 277 47 291.5 c 128,-1,18
 29 306 29 306 29 330 c 0,19,20
 29 366 29 366 49 385.5 c 128,-1,21
 69 405 69 405 107 405 c 2,22,-1
 139 405 l 1,23,-1
 172 617 l 2,24,25
 179 661 179 661 205 683 c 128,-1,26
 231 705 231 705 275 705 c 2,27,-1
 603 705 l 2,28,29
 641 705 641 705 662 689 c 128,-1,30
 683 673 683 673 683 645 c 0,31,32
 683 603 683 603 659 579 c 128,-1,33
 635 555 635 555 593 555 c 2,34,-1
 346 555 l 1,35,-1
 322 405 l 1,36,-1
 426 405 l 2,37,38
 459 405 459 405 477.5 391.5 c 128,-1,39
 496 378 496 378 496 353 c 0,40,41
 496 318 496 318 474.5 297.5 c 128,-1,42
 453 277 453 277 417 277 c 2,43,-1
 303 277 l 1,44,-1
 275 105 l 1,45,-1
 242 144 l 1,46,-1
 296 144 l 2,47,48
 336 144 336 144 355.5 121.5 c 128,-1,49
 375 99 375 99 369 60 c 2,50,-1
 365 36 l 2,51,52
 354 -33 354 -33 326.5 -80 c 128,-1,53
 299 -127 299 -127 249.5 -152 c 128,-1,54
 200 -177 200 -177 121 -182 c 2,55,-1
 88 -184 l 2,0,1
EndSplineSet
EndChar

StartChar: uni04FC
Encoding: 1276 1276 639
Width: 698
GlyphClass: 1
Flags: W
LayerCount: 2
Fore
SplineSet
446 -179 m 0,0,1
 409 -187 409 -187 383 -170.5 c 128,-1,2
 357 -154 357 -154 349 -119 c 0,3,4
 340 -82 340 -82 355.5 -64 c 128,-1,5
 371 -46 371 -46 398 -36 c 0,6,7
 424 -26 424 -26 437 -11.5 c 128,-1,8
 450 3 450 3 450 28 c 0,9,10
 450 41 450 41 445 56.5 c 128,-1,11
 440 72 440 72 426 94 c 2,12,-1
 330 263 l 1,13,-1
 374 263 l 1,14,-1
 198 49 l 2,15,16
 171 16 171 16 149.5 3.5 c 128,-1,17
 128 -9 128 -9 97 -9 c 0,18,19
 60 -9 60 -9 39 11.5 c 128,-1,20
 18 32 18 32 18 62.5 c 128,-1,21
 18 93 18 93 43 121 c 2,22,-1
 287 397 l 1,23,-1
 287 315 l 1,24,-1
 124 587 l 2,25,26
 105 619 105 619 109.5 648 c 128,-1,27
 114 677 114 677 136 695.5 c 128,-1,28
 158 714 158 714 194 714 c 0,29,30
 226 714 226 714 245.5 699.5 c 128,-1,31
 265 685 265 685 287 645 c 2,32,-1
 399 448 l 1,33,-1
 355 448 l 1,34,-1
 528 656 l 2,35,36
 556 689 556 689 577.5 701.5 c 128,-1,37
 599 714 599 714 630 714 c 0,38,39
 666 714 666 714 687.5 694 c 128,-1,40
 709 674 709 674 710 644.5 c 128,-1,41
 711 615 711 615 686 586 c 2,42,-1
 445 314 l 1,43,-1
 445 398 l 1,44,-1
 583 169 l 2,45,46
 609 126 609 126 619.5 90 c 128,-1,47
 630 54 630 54 630 24 c 0,48,49
 630 -62 630 -62 583 -111.5 c 128,-1,50
 536 -161 536 -161 446 -179 c 0,0,1
EndSplineSet
EndChar

